<?xml version="1.0" encoding="utf-8" standalone="no"?>
<!DOCTYPE svg PUBLIC "-//W3C//DTD SVG 1.1//EN"
  "http://www.w3.org/Graphics/SVG/1.1/DTD/svg11.dtd">
<!-- Created with matplotlib (http://matplotlib.org/) -->
<svg height="432pt" version="1.1" viewBox="0 0 432 432" width="432pt" xmlns="http://www.w3.org/2000/svg" xmlns:xlink="http://www.w3.org/1999/xlink">
 <defs>
  <style type="text/css">
*{stroke-linecap:butt;stroke-linejoin:round;}
  </style>
 </defs>
 <g id="figure_1">
  <g id="patch_1">
   <path d="M 0 432 
L 432 432 
L 432 0 
L 0 0 
z
" style="fill:#ffffff;"/>
  </g>
  <g id="patch_2">
   <path d="M 54 378 
L 388.8 378 
L 388.8 51.84 
L 54 51.84 
z
" style="fill:#ffffff;"/>
  </g>
  <g id="pane3d_1">
   <g id="patch_3">
    <path d="M 123.167618 250.300629 
L 296.830073 234.935244 
L 300.428755 81.192627 
L 117.871559 94.9667 
" style="fill:#f2f2f2;opacity:0.5;stroke:#f2f2f2;stroke-linejoin:miter;"/>
   </g>
  </g>
  <g id="pane3d_2">
   <g id="patch_4">
    <path d="M 296.830073 234.935244 
L 336.280448 328.521251 
L 342.41219 165.407425 
L 300.428755 81.192627 
" style="fill:#e6e6e6;opacity:0.5;stroke:#e6e6e6;stroke-linejoin:miter;"/>
   </g>
  </g>
  <g id="pane3d_3">
   <g id="patch_5">
    <path d="M 123.167618 250.300629 
L 147.409086 346.793928 
L 336.280448 328.521251 
L 296.830073 234.935244 
" style="fill:#ececec;opacity:0.5;stroke:#ececec;stroke-linejoin:miter;"/>
   </g>
  </g>
  <g id="axis3d_1">
   <g id="line2d_1">
    <path d="M 123.167618 250.300629 
L 147.409086 346.793928 
" style="fill:none;stroke:#000000;stroke-linecap:square;stroke-width:0.8;"/>
   </g>
   <g id="text_1">
    <!-- amp -->
    <defs>
     <path d="M 34.28125 27.484375 
Q 23.390625 27.484375 19.1875 25 
Q 14.984375 22.515625 14.984375 16.5 
Q 14.984375 11.71875 18.140625 8.90625 
Q 21.296875 6.109375 26.703125 6.109375 
Q 34.1875 6.109375 38.703125 11.40625 
Q 43.21875 16.703125 43.21875 25.484375 
L 43.21875 27.484375 
z
M 52.203125 31.203125 
L 52.203125 0 
L 43.21875 0 
L 43.21875 8.296875 
Q 40.140625 3.328125 35.546875 0.953125 
Q 30.953125 -1.421875 24.3125 -1.421875 
Q 15.921875 -1.421875 10.953125 3.296875 
Q 6 8.015625 6 15.921875 
Q 6 25.140625 12.171875 29.828125 
Q 18.359375 34.515625 30.609375 34.515625 
L 43.21875 34.515625 
L 43.21875 35.40625 
Q 43.21875 41.609375 39.140625 45 
Q 35.0625 48.390625 27.6875 48.390625 
Q 23 48.390625 18.546875 47.265625 
Q 14.109375 46.140625 10.015625 43.890625 
L 10.015625 52.203125 
Q 14.9375 54.109375 19.578125 55.046875 
Q 24.21875 56 28.609375 56 
Q 40.484375 56 46.34375 49.84375 
Q 52.203125 43.703125 52.203125 31.203125 
z
" id="DejaVuSans-61"/>
     <path d="M 52 44.1875 
Q 55.375 50.25 60.0625 53.125 
Q 64.75 56 71.09375 56 
Q 79.640625 56 84.28125 50.015625 
Q 88.921875 44.046875 88.921875 33.015625 
L 88.921875 0 
L 79.890625 0 
L 79.890625 32.71875 
Q 79.890625 40.578125 77.09375 44.375 
Q 74.3125 48.1875 68.609375 48.1875 
Q 61.625 48.1875 57.5625 43.546875 
Q 53.515625 38.921875 53.515625 30.90625 
L 53.515625 0 
L 44.484375 0 
L 44.484375 32.71875 
Q 44.484375 40.625 41.703125 44.40625 
Q 38.921875 48.1875 33.109375 48.1875 
Q 26.21875 48.1875 22.15625 43.53125 
Q 18.109375 38.875 18.109375 30.90625 
L 18.109375 0 
L 9.078125 0 
L 9.078125 54.6875 
L 18.109375 54.6875 
L 18.109375 46.1875 
Q 21.1875 51.21875 25.484375 53.609375 
Q 29.78125 56 35.6875 56 
Q 41.65625 56 45.828125 52.96875 
Q 50 49.953125 52 44.1875 
z
" id="DejaVuSans-6d"/>
     <path d="M 18.109375 8.203125 
L 18.109375 -20.796875 
L 9.078125 -20.796875 
L 9.078125 54.6875 
L 18.109375 54.6875 
L 18.109375 46.390625 
Q 20.953125 51.265625 25.265625 53.625 
Q 29.59375 56 35.59375 56 
Q 45.5625 56 51.78125 48.09375 
Q 58.015625 40.1875 58.015625 27.296875 
Q 58.015625 14.40625 51.78125 6.484375 
Q 45.5625 -1.421875 35.59375 -1.421875 
Q 29.59375 -1.421875 25.265625 0.953125 
Q 20.953125 3.328125 18.109375 8.203125 
z
M 48.6875 27.296875 
Q 48.6875 37.203125 44.609375 42.84375 
Q 40.53125 48.484375 33.40625 48.484375 
Q 26.265625 48.484375 22.1875 42.84375 
Q 18.109375 37.203125 18.109375 27.296875 
Q 18.109375 17.390625 22.1875 11.75 
Q 26.265625 6.109375 33.40625 6.109375 
Q 40.53125 6.109375 44.609375 11.75 
Q 48.6875 17.390625 48.6875 27.296875 
z
" id="DejaVuSans-70"/>
    </defs>
    <g transform="translate(97.776855 323.59028)scale(0.1 -0.1)">
     <use xlink:href="#DejaVuSans-61"/>
     <use x="61.279297" xlink:href="#DejaVuSans-6d"/>
     <use x="158.691406" xlink:href="#DejaVuSans-70"/>
    </g>
   </g>
   <g id="Line3DCollection_1">
    <path d="M 126.562866 263.815433 
L 302.36177 248.057791 
L 306.292556 92.954856 
" style="fill:none;stroke:#b0b0b0;stroke-width:0.8;"/>
    <path d="M 130.599741 279.884237 
L 308.936163 263.653873 
L 313.271413 106.953782 
" style="fill:none;stroke:#b0b0b0;stroke-width:0.8;"/>
    <path d="M 134.759575 296.442478 
L 315.707771 279.717794 
L 320.470722 121.394915 
" style="fill:none;stroke:#b0b0b0;stroke-width:0.8;"/>
    <path d="M 139.048071 313.512861 
L 322.685601 296.270926 
L 327.901096 136.299543 
" style="fill:none;stroke:#b0b0b0;stroke-width:0.8;"/>
    <path d="M 143.471293 331.119522 
L 329.879221 313.335963 
L 335.573842 151.690345 
" style="fill:none;stroke:#b0b0b0;stroke-width:0.8;"/>
   </g>
   <g id="xtick_1">
    <g id="line2d_2">
     <path d="M 127.990085 263.687505 
L 123.707407 264.071381 
" style="fill:none;stroke:#000000;stroke-linecap:square;stroke-width:0.8;"/>
    </g>
    <g id="text_2">
     <!-- 0.6 -->
     <defs>
      <path d="M 31.78125 66.40625 
Q 24.171875 66.40625 20.328125 58.90625 
Q 16.5 51.421875 16.5 36.375 
Q 16.5 21.390625 20.328125 13.890625 
Q 24.171875 6.390625 31.78125 6.390625 
Q 39.453125 6.390625 43.28125 13.890625 
Q 47.125 21.390625 47.125 36.375 
Q 47.125 51.421875 43.28125 58.90625 
Q 39.453125 66.40625 31.78125 66.40625 
z
M 31.78125 74.21875 
Q 44.046875 74.21875 50.515625 64.515625 
Q 56.984375 54.828125 56.984375 36.375 
Q 56.984375 17.96875 50.515625 8.265625 
Q 44.046875 -1.421875 31.78125 -1.421875 
Q 19.53125 -1.421875 13.0625 8.265625 
Q 6.59375 17.96875 6.59375 36.375 
Q 6.59375 54.828125 13.0625 64.515625 
Q 19.53125 74.21875 31.78125 74.21875 
z
" id="DejaVuSans-30"/>
      <path d="M 10.6875 12.40625 
L 21 12.40625 
L 21 0 
L 10.6875 0 
z
" id="DejaVuSans-2e"/>
      <path d="M 33.015625 40.375 
Q 26.375 40.375 22.484375 35.828125 
Q 18.609375 31.296875 18.609375 23.390625 
Q 18.609375 15.53125 22.484375 10.953125 
Q 26.375 6.390625 33.015625 6.390625 
Q 39.65625 6.390625 43.53125 10.953125 
Q 47.40625 15.53125 47.40625 23.390625 
Q 47.40625 31.296875 43.53125 35.828125 
Q 39.65625 40.375 33.015625 40.375 
z
M 52.59375 71.296875 
L 52.59375 62.3125 
Q 48.875 64.0625 45.09375 64.984375 
Q 41.3125 65.921875 37.59375 65.921875 
Q 27.828125 65.921875 22.671875 59.328125 
Q 17.53125 52.734375 16.796875 39.40625 
Q 19.671875 43.65625 24.015625 45.921875 
Q 28.375 48.1875 33.59375 48.1875 
Q 44.578125 48.1875 50.953125 41.515625 
Q 57.328125 34.859375 57.328125 23.390625 
Q 57.328125 12.15625 50.6875 5.359375 
Q 44.046875 -1.421875 33.015625 -1.421875 
Q 20.359375 -1.421875 13.671875 8.265625 
Q 6.984375 17.96875 6.984375 36.375 
Q 6.984375 53.65625 15.1875 63.9375 
Q 23.390625 74.21875 37.203125 74.21875 
Q 40.921875 74.21875 44.703125 73.484375 
Q 48.484375 72.75 52.59375 71.296875 
z
" id="DejaVuSans-36"/>
     </defs>
     <g transform="translate(107.046837 282.407666)scale(0.1 -0.1)">
      <use xlink:href="#DejaVuSans-30"/>
      <use x="63.623047" xlink:href="#DejaVuSans-2e"/>
      <use x="95.410156" xlink:href="#DejaVuSans-36"/>
     </g>
    </g>
   </g>
   <g id="xtick_2">
    <g id="line2d_3">
     <path d="M 132.047877 279.752443 
L 127.702416 280.147922 
" style="fill:none;stroke:#000000;stroke-linecap:square;stroke-width:0.8;"/>
    </g>
    <g id="text_3">
     <!-- 0.8 -->
     <defs>
      <path d="M 31.78125 34.625 
Q 24.75 34.625 20.71875 30.859375 
Q 16.703125 27.09375 16.703125 20.515625 
Q 16.703125 13.921875 20.71875 10.15625 
Q 24.75 6.390625 31.78125 6.390625 
Q 38.8125 6.390625 42.859375 10.171875 
Q 46.921875 13.96875 46.921875 20.515625 
Q 46.921875 27.09375 42.890625 30.859375 
Q 38.875 34.625 31.78125 34.625 
z
M 21.921875 38.8125 
Q 15.578125 40.375 12.03125 44.71875 
Q 8.5 49.078125 8.5 55.328125 
Q 8.5 64.0625 14.71875 69.140625 
Q 20.953125 74.21875 31.78125 74.21875 
Q 42.671875 74.21875 48.875 69.140625 
Q 55.078125 64.0625 55.078125 55.328125 
Q 55.078125 49.078125 51.53125 44.71875 
Q 48 40.375 41.703125 38.8125 
Q 48.828125 37.15625 52.796875 32.3125 
Q 56.78125 27.484375 56.78125 20.515625 
Q 56.78125 9.90625 50.3125 4.234375 
Q 43.84375 -1.421875 31.78125 -1.421875 
Q 19.734375 -1.421875 13.25 4.234375 
Q 6.78125 9.90625 6.78125 20.515625 
Q 6.78125 27.484375 10.78125 32.3125 
Q 14.796875 37.15625 21.921875 38.8125 
z
M 18.3125 54.390625 
Q 18.3125 48.734375 21.84375 45.5625 
Q 25.390625 42.390625 31.78125 42.390625 
Q 38.140625 42.390625 41.71875 45.5625 
Q 45.3125 48.734375 45.3125 54.390625 
Q 45.3125 60.0625 41.71875 63.234375 
Q 38.140625 66.40625 31.78125 66.40625 
Q 25.390625 66.40625 21.84375 63.234375 
Q 18.3125 60.0625 18.3125 54.390625 
z
" id="DejaVuSans-38"/>
     </defs>
     <g transform="translate(110.901162 298.603266)scale(0.1 -0.1)">
      <use xlink:href="#DejaVuSans-30"/>
      <use x="63.623047" xlink:href="#DejaVuSans-2e"/>
      <use x="95.410156" xlink:href="#DejaVuSans-38"/>
     </g>
    </g>
   </g>
   <g id="xtick_3">
    <g id="line2d_4">
     <path d="M 136.22925 296.306638 
L 131.819138 296.714256 
" style="fill:none;stroke:#000000;stroke-linecap:square;stroke-width:0.8;"/>
    </g>
    <g id="text_4">
     <!-- 1.0 -->
     <defs>
      <path d="M 12.40625 8.296875 
L 28.515625 8.296875 
L 28.515625 63.921875 
L 10.984375 60.40625 
L 10.984375 69.390625 
L 28.421875 72.90625 
L 38.28125 72.90625 
L 38.28125 8.296875 
L 54.390625 8.296875 
L 54.390625 0 
L 12.40625 0 
z
" id="DejaVuSans-31"/>
     </defs>
     <g transform="translate(114.872605 315.290988)scale(0.1 -0.1)">
      <use xlink:href="#DejaVuSans-31"/>
      <use x="63.623047" xlink:href="#DejaVuSans-2e"/>
      <use x="95.410156" xlink:href="#DejaVuSans-30"/>
     </g>
    </g>
   </g>
   <g id="xtick_4">
    <g id="line2d_5">
     <path d="M 140.539936 313.372788 
L 136.063222 313.793112 
" style="fill:none;stroke:#000000;stroke-linecap:square;stroke-width:0.8;"/>
    </g>
    <g id="text_5">
     <!-- 1.2 -->
     <defs>
      <path d="M 19.1875 8.296875 
L 53.609375 8.296875 
L 53.609375 0 
L 7.328125 0 
L 7.328125 8.296875 
Q 12.9375 14.109375 22.625 23.890625 
Q 32.328125 33.6875 34.8125 36.53125 
Q 39.546875 41.84375 41.421875 45.53125 
Q 43.3125 49.21875 43.3125 52.78125 
Q 43.3125 58.59375 39.234375 62.25 
Q 35.15625 65.921875 28.609375 65.921875 
Q 23.96875 65.921875 18.8125 64.3125 
Q 13.671875 62.703125 7.8125 59.421875 
L 7.8125 69.390625 
Q 13.765625 71.78125 18.9375 73 
Q 24.125 74.21875 28.421875 74.21875 
Q 39.75 74.21875 46.484375 68.546875 
Q 53.21875 62.890625 53.21875 53.421875 
Q 53.21875 48.921875 51.53125 44.890625 
Q 49.859375 40.875 45.40625 35.40625 
Q 44.1875 33.984375 37.640625 27.21875 
Q 31.109375 20.453125 19.1875 8.296875 
z
" id="DejaVuSans-32"/>
     </defs>
     <g transform="translate(118.966587 332.493608)scale(0.1 -0.1)">
      <use xlink:href="#DejaVuSans-31"/>
      <use x="63.623047" xlink:href="#DejaVuSans-2e"/>
      <use x="95.410156" xlink:href="#DejaVuSans-32"/>
     </g>
    </g>
   </g>
   <g id="xtick_5">
    <g id="line2d_6">
     <path d="M 144.986028 330.975014 
L 140.44067 331.408647 
" style="fill:none;stroke:#000000;stroke-linecap:square;stroke-width:0.8;"/>
    </g>
    <g id="text_6">
     <!-- 1.4 -->
     <defs>
      <path d="M 37.796875 64.3125 
L 12.890625 25.390625 
L 37.796875 25.390625 
z
M 35.203125 72.90625 
L 47.609375 72.90625 
L 47.609375 25.390625 
L 58.015625 25.390625 
L 58.015625 17.1875 
L 47.609375 17.1875 
L 47.609375 0 
L 37.796875 0 
L 37.796875 17.1875 
L 4.890625 17.1875 
L 4.890625 26.703125 
z
" id="DejaVuSans-34"/>
     </defs>
     <g transform="translate(123.188868 350.235332)scale(0.1 -0.1)">
      <use xlink:href="#DejaVuSans-31"/>
      <use x="63.623047" xlink:href="#DejaVuSans-2e"/>
      <use x="95.410156" xlink:href="#DejaVuSans-34"/>
     </g>
    </g>
   </g>
  </g>
  <g id="axis3d_2">
   <g id="line2d_7">
    <path d="M 336.280448 328.521251 
L 147.409086 346.793928 
" style="fill:none;stroke:#000000;stroke-linecap:square;stroke-width:0.8;"/>
   </g>
   <g id="text_7">
    <!-- dx -->
    <defs>
     <path d="M 45.40625 46.390625 
L 45.40625 75.984375 
L 54.390625 75.984375 
L 54.390625 0 
L 45.40625 0 
L 45.40625 8.203125 
Q 42.578125 3.328125 38.25 0.953125 
Q 33.9375 -1.421875 27.875 -1.421875 
Q 17.96875 -1.421875 11.734375 6.484375 
Q 5.515625 14.40625 5.515625 27.296875 
Q 5.515625 40.1875 11.734375 48.09375 
Q 17.96875 56 27.875 56 
Q 33.9375 56 38.25 53.625 
Q 42.578125 51.265625 45.40625 46.390625 
z
M 14.796875 27.296875 
Q 14.796875 17.390625 18.875 11.75 
Q 22.953125 6.109375 30.078125 6.109375 
Q 37.203125 6.109375 41.296875 11.75 
Q 45.40625 17.390625 45.40625 27.296875 
Q 45.40625 37.203125 41.296875 42.84375 
Q 37.203125 48.484375 30.078125 48.484375 
Q 22.953125 48.484375 18.875 42.84375 
Q 14.796875 37.203125 14.796875 27.296875 
z
" id="DejaVuSans-64"/>
     <path d="M 54.890625 54.6875 
L 35.109375 28.078125 
L 55.90625 0 
L 45.3125 0 
L 29.390625 21.484375 
L 13.484375 0 
L 2.875 0 
L 24.125 28.609375 
L 4.6875 54.6875 
L 15.28125 54.6875 
L 29.78125 35.203125 
L 44.28125 54.6875 
z
" id="DejaVuSans-78"/>
    </defs>
    <g transform="translate(241.425916 378.153588)scale(0.1 -0.1)">
     <use xlink:href="#DejaVuSans-64"/>
     <use x="63.476562" xlink:href="#DejaVuSans-78"/>
    </g>
   </g>
   <g id="Line3DCollection_2">
    <path d="M 145.782865 92.860772 
L 149.70217 247.952893 
L 176.299863 343.998842 
" style="fill:none;stroke:#b0b0b0;stroke-width:0.8;"/>
    <path d="M 177.903771 90.437226 
L 180.246194 245.250405 
L 209.541666 340.782807 
" style="fill:none;stroke:#b0b0b0;stroke-width:0.8;"/>
    <path d="M 209.852193 88.026694 
L 210.634183 242.561723 
L 242.598282 337.58469 
" style="fill:none;stroke:#b0b0b0;stroke-width:0.8;"/>
    <path d="M 241.629518 85.629072 
L 240.867328 239.886741 
L 275.471255 334.404338 
" style="fill:none;stroke:#b0b0b0;stroke-width:0.8;"/>
    <path d="M 273.237116 83.244256 
L 270.946812 237.225355 
L 308.162111 331.241607 
" style="fill:none;stroke:#b0b0b0;stroke-width:0.8;"/>
   </g>
   <g id="xtick_6">
    <g id="line2d_8">
     <path d="M 176.067885 343.161154 
L 176.764834 345.677881 
" style="fill:none;stroke:#000000;stroke-linecap:square;stroke-width:0.8;"/>
    </g>
    <g id="text_8">
     <!-- −0.4 -->
     <defs>
      <path d="M 10.59375 35.5 
L 73.1875 35.5 
L 73.1875 27.203125 
L 10.59375 27.203125 
z
" id="DejaVuSans-2212"/>
     </defs>
     <g transform="translate(166.279467 369.052021)scale(0.1 -0.1)">
      <use xlink:href="#DejaVuSans-2212"/>
      <use x="83.789062" xlink:href="#DejaVuSans-30"/>
      <use x="147.412109" xlink:href="#DejaVuSans-2e"/>
      <use x="179.199219" xlink:href="#DejaVuSans-34"/>
     </g>
    </g>
   </g>
   <g id="xtick_7">
    <g id="line2d_9">
     <path d="M 209.286217 339.949791 
L 210.053677 342.452474 
" style="fill:none;stroke:#000000;stroke-linecap:square;stroke-width:0.8;"/>
    </g>
    <g id="text_9">
     <!-- −0.2 -->
     <g transform="translate(199.598936 365.779021)scale(0.1 -0.1)">
      <use xlink:href="#DejaVuSans-2212"/>
      <use x="83.789062" xlink:href="#DejaVuSans-30"/>
      <use x="147.412109" xlink:href="#DejaVuSans-2e"/>
      <use x="179.199219" xlink:href="#DejaVuSans-32"/>
     </g>
    </g>
   </g>
   <g id="xtick_8">
    <g id="line2d_10">
     <path d="M 242.319628 336.756306 
L 243.156802 339.24506 
" style="fill:none;stroke:#000000;stroke-linecap:square;stroke-width:0.8;"/>
    </g>
    <g id="text_10">
     <!-- 0.0 -->
     <g transform="translate(236.922165 362.5243)scale(0.1 -0.1)">
      <use xlink:href="#DejaVuSans-30"/>
      <use x="63.623047" xlink:href="#DejaVuSans-2e"/>
      <use x="95.410156" xlink:href="#DejaVuSans-30"/>
     </g>
    </g>
   </g>
   <g id="xtick_9">
    <g id="line2d_11">
     <path d="M 275.169657 333.580549 
L 276.07576 336.055491 
" style="fill:none;stroke:#000000;stroke-linecap:square;stroke-width:0.8;"/>
    </g>
    <g id="text_11">
     <!-- 0.2 -->
     <g transform="translate(269.87102 359.287706)scale(0.1 -0.1)">
      <use xlink:href="#DejaVuSans-30"/>
      <use x="63.623047" xlink:href="#DejaVuSans-2e"/>
      <use x="95.410156" xlink:href="#DejaVuSans-32"/>
     </g>
    </g>
   </g>
   <g id="xtick_10">
    <g id="line2d_12">
     <path d="M 307.837826 330.422373 
L 308.812083 332.883618 
" style="fill:none;stroke:#000000;stroke-linecap:square;stroke-width:0.8;"/>
    </g>
    <g id="text_12">
     <!-- 0.4 -->
     <g transform="translate(302.636882 356.069087)scale(0.1 -0.1)">
      <use xlink:href="#DejaVuSans-30"/>
      <use x="63.623047" xlink:href="#DejaVuSans-2e"/>
      <use x="95.410156" xlink:href="#DejaVuSans-34"/>
     </g>
    </g>
   </g>
  </g>
  <g id="axis3d_3">
   <g id="line2d_13">
    <path d="M 336.280448 328.521251 
L 342.41219 165.407425 
" style="fill:none;stroke:#000000;stroke-linecap:square;stroke-width:0.8;"/>
   </g>
   <g id="text_13">
    <!-- objective function -->
    <defs>
     <path d="M 30.609375 48.390625 
Q 23.390625 48.390625 19.1875 42.75 
Q 14.984375 37.109375 14.984375 27.296875 
Q 14.984375 17.484375 19.15625 11.84375 
Q 23.34375 6.203125 30.609375 6.203125 
Q 37.796875 6.203125 41.984375 11.859375 
Q 46.1875 17.53125 46.1875 27.296875 
Q 46.1875 37.015625 41.984375 42.703125 
Q 37.796875 48.390625 30.609375 48.390625 
z
M 30.609375 56 
Q 42.328125 56 49.015625 48.375 
Q 55.71875 40.765625 55.71875 27.296875 
Q 55.71875 13.875 49.015625 6.21875 
Q 42.328125 -1.421875 30.609375 -1.421875 
Q 18.84375 -1.421875 12.171875 6.21875 
Q 5.515625 13.875 5.515625 27.296875 
Q 5.515625 40.765625 12.171875 48.375 
Q 18.84375 56 30.609375 56 
z
" id="DejaVuSans-6f"/>
     <path d="M 48.6875 27.296875 
Q 48.6875 37.203125 44.609375 42.84375 
Q 40.53125 48.484375 33.40625 48.484375 
Q 26.265625 48.484375 22.1875 42.84375 
Q 18.109375 37.203125 18.109375 27.296875 
Q 18.109375 17.390625 22.1875 11.75 
Q 26.265625 6.109375 33.40625 6.109375 
Q 40.53125 6.109375 44.609375 11.75 
Q 48.6875 17.390625 48.6875 27.296875 
z
M 18.109375 46.390625 
Q 20.953125 51.265625 25.265625 53.625 
Q 29.59375 56 35.59375 56 
Q 45.5625 56 51.78125 48.09375 
Q 58.015625 40.1875 58.015625 27.296875 
Q 58.015625 14.40625 51.78125 6.484375 
Q 45.5625 -1.421875 35.59375 -1.421875 
Q 29.59375 -1.421875 25.265625 0.953125 
Q 20.953125 3.328125 18.109375 8.203125 
L 18.109375 0 
L 9.078125 0 
L 9.078125 75.984375 
L 18.109375 75.984375 
z
" id="DejaVuSans-62"/>
     <path d="M 9.421875 54.6875 
L 18.40625 54.6875 
L 18.40625 -0.984375 
Q 18.40625 -11.421875 14.421875 -16.109375 
Q 10.453125 -20.796875 1.609375 -20.796875 
L -1.8125 -20.796875 
L -1.8125 -13.1875 
L 0.59375 -13.1875 
Q 5.71875 -13.1875 7.5625 -10.8125 
Q 9.421875 -8.453125 9.421875 -0.984375 
z
M 9.421875 75.984375 
L 18.40625 75.984375 
L 18.40625 64.59375 
L 9.421875 64.59375 
z
" id="DejaVuSans-6a"/>
     <path d="M 56.203125 29.59375 
L 56.203125 25.203125 
L 14.890625 25.203125 
Q 15.484375 15.921875 20.484375 11.0625 
Q 25.484375 6.203125 34.421875 6.203125 
Q 39.59375 6.203125 44.453125 7.46875 
Q 49.3125 8.734375 54.109375 11.28125 
L 54.109375 2.78125 
Q 49.265625 0.734375 44.1875 -0.34375 
Q 39.109375 -1.421875 33.890625 -1.421875 
Q 20.796875 -1.421875 13.15625 6.1875 
Q 5.515625 13.8125 5.515625 26.8125 
Q 5.515625 40.234375 12.765625 48.109375 
Q 20.015625 56 32.328125 56 
Q 43.359375 56 49.78125 48.890625 
Q 56.203125 41.796875 56.203125 29.59375 
z
M 47.21875 32.234375 
Q 47.125 39.59375 43.09375 43.984375 
Q 39.0625 48.390625 32.421875 48.390625 
Q 24.90625 48.390625 20.390625 44.140625 
Q 15.875 39.890625 15.1875 32.171875 
z
" id="DejaVuSans-65"/>
     <path d="M 48.78125 52.59375 
L 48.78125 44.1875 
Q 44.96875 46.296875 41.140625 47.34375 
Q 37.3125 48.390625 33.40625 48.390625 
Q 24.65625 48.390625 19.8125 42.84375 
Q 14.984375 37.3125 14.984375 27.296875 
Q 14.984375 17.28125 19.8125 11.734375 
Q 24.65625 6.203125 33.40625 6.203125 
Q 37.3125 6.203125 41.140625 7.25 
Q 44.96875 8.296875 48.78125 10.40625 
L 48.78125 2.09375 
Q 45.015625 0.34375 40.984375 -0.53125 
Q 36.96875 -1.421875 32.421875 -1.421875 
Q 20.0625 -1.421875 12.78125 6.34375 
Q 5.515625 14.109375 5.515625 27.296875 
Q 5.515625 40.671875 12.859375 48.328125 
Q 20.21875 56 33.015625 56 
Q 37.15625 56 41.109375 55.140625 
Q 45.0625 54.296875 48.78125 52.59375 
z
" id="DejaVuSans-63"/>
     <path d="M 18.3125 70.21875 
L 18.3125 54.6875 
L 36.8125 54.6875 
L 36.8125 47.703125 
L 18.3125 47.703125 
L 18.3125 18.015625 
Q 18.3125 11.328125 20.140625 9.421875 
Q 21.96875 7.515625 27.59375 7.515625 
L 36.8125 7.515625 
L 36.8125 0 
L 27.59375 0 
Q 17.1875 0 13.234375 3.875 
Q 9.28125 7.765625 9.28125 18.015625 
L 9.28125 47.703125 
L 2.6875 47.703125 
L 2.6875 54.6875 
L 9.28125 54.6875 
L 9.28125 70.21875 
z
" id="DejaVuSans-74"/>
     <path d="M 9.421875 54.6875 
L 18.40625 54.6875 
L 18.40625 0 
L 9.421875 0 
z
M 9.421875 75.984375 
L 18.40625 75.984375 
L 18.40625 64.59375 
L 9.421875 64.59375 
z
" id="DejaVuSans-69"/>
     <path d="M 2.984375 54.6875 
L 12.5 54.6875 
L 29.59375 8.796875 
L 46.6875 54.6875 
L 56.203125 54.6875 
L 35.6875 0 
L 23.484375 0 
z
" id="DejaVuSans-76"/>
     <path id="DejaVuSans-20"/>
     <path d="M 37.109375 75.984375 
L 37.109375 68.5 
L 28.515625 68.5 
Q 23.6875 68.5 21.796875 66.546875 
Q 19.921875 64.59375 19.921875 59.515625 
L 19.921875 54.6875 
L 34.71875 54.6875 
L 34.71875 47.703125 
L 19.921875 47.703125 
L 19.921875 0 
L 10.890625 0 
L 10.890625 47.703125 
L 2.296875 47.703125 
L 2.296875 54.6875 
L 10.890625 54.6875 
L 10.890625 58.5 
Q 10.890625 67.625 15.140625 71.796875 
Q 19.390625 75.984375 28.609375 75.984375 
z
" id="DejaVuSans-66"/>
     <path d="M 8.5 21.578125 
L 8.5 54.6875 
L 17.484375 54.6875 
L 17.484375 21.921875 
Q 17.484375 14.15625 20.5 10.265625 
Q 23.53125 6.390625 29.59375 6.390625 
Q 36.859375 6.390625 41.078125 11.03125 
Q 45.3125 15.671875 45.3125 23.6875 
L 45.3125 54.6875 
L 54.296875 54.6875 
L 54.296875 0 
L 45.3125 0 
L 45.3125 8.40625 
Q 42.046875 3.421875 37.71875 1 
Q 33.40625 -1.421875 27.6875 -1.421875 
Q 18.265625 -1.421875 13.375 4.4375 
Q 8.5 10.296875 8.5 21.578125 
z
M 31.109375 56 
z
" id="DejaVuSans-75"/>
     <path d="M 54.890625 33.015625 
L 54.890625 0 
L 45.90625 0 
L 45.90625 32.71875 
Q 45.90625 40.484375 42.875 44.328125 
Q 39.84375 48.1875 33.796875 48.1875 
Q 26.515625 48.1875 22.3125 43.546875 
Q 18.109375 38.921875 18.109375 30.90625 
L 18.109375 0 
L 9.078125 0 
L 9.078125 54.6875 
L 18.109375 54.6875 
L 18.109375 46.1875 
Q 21.34375 51.125 25.703125 53.5625 
Q 30.078125 56 35.796875 56 
Q 45.21875 56 50.046875 50.171875 
Q 54.890625 44.34375 54.890625 33.015625 
z
" id="DejaVuSans-6e"/>
    </defs>
    <g transform="translate(374.891232 305.873401)rotate(-87.847162)scale(0.1 -0.1)">
     <use xlink:href="#DejaVuSans-6f"/>
     <use x="61.181641" xlink:href="#DejaVuSans-62"/>
     <use x="124.658203" xlink:href="#DejaVuSans-6a"/>
     <use x="152.441406" xlink:href="#DejaVuSans-65"/>
     <use x="213.964844" xlink:href="#DejaVuSans-63"/>
     <use x="268.945312" xlink:href="#DejaVuSans-74"/>
     <use x="308.154297" xlink:href="#DejaVuSans-69"/>
     <use x="335.9375" xlink:href="#DejaVuSans-76"/>
     <use x="395.117188" xlink:href="#DejaVuSans-65"/>
     <use x="456.640625" xlink:href="#DejaVuSans-20"/>
     <use x="488.427734" xlink:href="#DejaVuSans-66"/>
     <use x="523.632812" xlink:href="#DejaVuSans-75"/>
     <use x="587.011719" xlink:href="#DejaVuSans-6e"/>
     <use x="650.390625" xlink:href="#DejaVuSans-63"/>
     <use x="705.371094" xlink:href="#DejaVuSans-74"/>
     <use x="744.580078" xlink:href="#DejaVuSans-69"/>
     <use x="772.363281" xlink:href="#DejaVuSans-6f"/>
     <use x="833.544922" xlink:href="#DejaVuSans-6e"/>
    </g>
   </g>
   <g id="Line3DCollection_3">
    <path d="M 336.703064 317.27902 
L 297.07916 224.293751 
L 122.8013 239.556478 
" style="fill:none;stroke:#b0b0b0;stroke-width:0.8;"/>
    <path d="M 337.475584 296.728793 
L 297.534074 204.858983 
L 122.132188 219.931353 
" style="fill:none;stroke:#b0b0b0;stroke-width:0.8;"/>
    <path d="M 338.258954 275.889938 
L 297.994841 185.174111 
L 121.454336 200.04989 
" style="fill:none;stroke:#b0b0b0;stroke-width:0.8;"/>
    <path d="M 339.053404 254.756331 
L 298.461577 165.234278 
L 120.767572 179.907034 
" style="fill:none;stroke:#b0b0b0;stroke-width:0.8;"/>
    <path d="M 339.859171 233.321674 
L 298.934397 145.034496 
L 120.071719 159.497596 
" style="fill:none;stroke:#b0b0b0;stroke-width:0.8;"/>
    <path d="M 340.676499 211.579487 
L 299.413421 124.56965 
L 119.366595 138.816248 
" style="fill:none;stroke:#b0b0b0;stroke-width:0.8;"/>
    <path d="M 341.505638 189.523105 
L 299.898773 103.834488 
L 118.652014 117.85752 
" style="fill:none;stroke:#b0b0b0;stroke-width:0.8;"/>
   </g>
   <g id="xtick_11">
    <g id="line2d_14">
     <path d="M 336.357751 316.468675 
L 337.395186 318.90322 
" style="fill:none;stroke:#000000;stroke-linecap:square;stroke-width:0.8;"/>
    </g>
    <g id="text_14">
     <!-- 2 -->
     <g transform="translate(348.950484 330.483561)scale(0.1 -0.1)">
      <use xlink:href="#DejaVuSans-32"/>
     </g>
    </g>
   </g>
   <g id="xtick_12">
    <g id="line2d_15">
     <path d="M 337.127304 295.927712 
L 338.173663 298.334451 
" style="fill:none;stroke:#000000;stroke-linecap:square;stroke-width:0.8;"/>
    </g>
    <g id="text_15">
     <!-- 4 -->
     <g transform="translate(349.835015 309.869469)scale(0.1 -0.1)">
      <use xlink:href="#DejaVuSans-34"/>
     </g>
    </g>
   </g>
   <g id="xtick_13">
    <g id="line2d_16">
     <path d="M 337.907658 275.098461 
L 338.96309 277.47637 
" style="fill:none;stroke:#000000;stroke-linecap:square;stroke-width:0.8;"/>
    </g>
    <g id="text_16">
     <!-- 6 -->
     <g transform="translate(350.732031 288.964389)scale(0.1 -0.1)">
      <use xlink:href="#DejaVuSans-36"/>
     </g>
    </g>
   </g>
   <g id="xtick_14">
    <g id="line2d_17">
     <path d="M 338.699041 253.974811 
L 339.763699 256.32283 
" style="fill:none;stroke:#000000;stroke-linecap:square;stroke-width:0.8;"/>
    </g>
    <g id="text_17">
     <!-- 8 -->
     <g transform="translate(351.6418 267.762114)scale(0.1 -0.1)">
      <use xlink:href="#DejaVuSans-38"/>
     </g>
    </g>
   </g>
   <g id="xtick_15">
    <g id="line2d_18">
     <path d="M 339.501689 232.550475 
L 340.57573 234.867507 
" style="fill:none;stroke:#000000;stroke-linecap:square;stroke-width:0.8;"/>
    </g>
    <g id="text_18">
     <!-- 10 -->
     <g transform="translate(349.383344 246.256262)scale(0.1 -0.1)">
      <use xlink:href="#DejaVuSans-31"/>
      <use x="63.623047" xlink:href="#DejaVuSans-30"/>
     </g>
    </g>
   </g>
   <g id="xtick_16">
    <g id="line2d_19">
     <path d="M 340.315844 210.818988 
L 341.399428 213.103899 
" style="fill:none;stroke:#000000;stroke-linecap:square;stroke-width:0.8;"/>
    </g>
    <g id="text_19">
     <!-- 12 -->
     <g transform="translate(350.319447 224.440266)scale(0.1 -0.1)">
      <use xlink:href="#DejaVuSans-31"/>
      <use x="63.623047" xlink:href="#DejaVuSans-32"/>
     </g>
    </g>
   </g>
   <g id="xtick_17">
    <g id="line2d_20">
     <path d="M 341.141756 188.773696 
L 342.235048 191.025312 
" style="fill:none;stroke:#000000;stroke-linecap:square;stroke-width:0.8;"/>
    </g>
    <g id="text_20">
     <!-- 14 -->
     <g transform="translate(351.269148 202.307368)scale(0.1 -0.1)">
      <use xlink:href="#DejaVuSans-31"/>
      <use x="63.623047" xlink:href="#DejaVuSans-34"/>
     </g>
    </g>
   </g>
  </g>
  <g id="axes_1">
   <g id="Poly3DCollection_1">
    <path clip-path="url(#pade37fdb4a)" d="M 208.450543 240.06372 
L 209.81281 245.549957 
L 217.87592 243.693605 
L 216.487254 238.323775 
L 208.450543 240.06372 
z
" style="fill:#15507a;"/>
    <path clip-path="url(#pade37fdb4a)" d="M 209.81281 245.549957 
L 211.18324 250.853548 
L 219.273615 248.880293 
L 217.87592 243.693605 
L 209.81281 245.549957 
z
" style="fill:#165580;"/>
    <path clip-path="url(#pade37fdb4a)" d="M 216.487254 238.323775 
L 217.87592 243.693605 
L 225.93427 207.483302 
L 224.504158 205.589273 
L 216.487254 238.323775 
z
" style="fill:#1c6aa1;"/>
    <path clip-path="url(#pade37fdb4a)" d="M 281.086996 196.612603 
L 282.778038 198.022272 
L 290.783727 200.657364 
L 289.064799 198.921827 
L 281.086996 196.612603 
z
" style="fill:#15517a;"/>
    <path clip-path="url(#pade37fdb4a)" d="M 272.970693 201.585411 
L 274.615218 203.46964 
L 282.778038 198.022272 
L 281.086996 196.612603 
L 272.970693 201.585411 
z
" style="fill:#1e74b0;"/>
    <path clip-path="url(#pade37fdb4a)" d="M 264.929011 201.604605 
L 266.539374 203.419434 
L 274.615218 203.46964 
L 272.970693 201.585411 
L 264.929011 201.604605 
z
" style="fill:#1a6599;"/>
    <path clip-path="url(#pade37fdb4a)" d="M 211.18324 250.853548 
L 212.562218 255.973754 
L 220.680742 253.883048 
L 219.273615 248.880293 
L 211.18324 250.853548 
z
" style="fill:#175a88;"/>
    <path clip-path="url(#pade37fdb4a)" d="M 200.134211 209.325757 
L 201.456338 211.414311 
L 209.81281 245.549957 
L 208.450543 240.06372 
L 200.134211 209.325757 
z
" style="fill:#103c5a;"/>
    <path clip-path="url(#pade37fdb4a)" d="M 217.87592 243.693605 
L 219.273615 248.880293 
L 227.377622 209.169213 
L 225.93427 207.483302 
L 217.87592 243.693605 
z
" style="fill:#1c6aa1;"/>
    <path clip-path="url(#pade37fdb4a)" d="M 240.696532 205.863392 
L 242.196839 207.930369 
L 250.328462 205.095681 
L 248.790156 203.244093 
L 240.696532 205.863392 
z
" style="fill:#1f77b4;"/>
    <path clip-path="url(#pade37fdb4a)" d="M 256.919475 197.008179 
L 258.502966 198.246047 
L 266.539374 203.419434 
L 264.929011 201.604605 
L 256.919475 197.008179 
z
" style="fill:#13496e;"/>
    <path clip-path="url(#pade37fdb4a)" d="M 248.790156 203.244093 
L 250.328462 205.095681 
L 258.502966 198.246047 
L 256.919475 197.008179 
L 248.790156 203.244093 
z
" style="fill:#1e73ae;"/>
    <path clip-path="url(#pade37fdb4a)" d="M 212.562218 255.973754 
L 213.950141 260.909744 
L 222.097712 258.700988 
L 220.680742 253.883048 
L 212.562218 255.973754 
z
" style="fill:#195f8f;"/>
    <path clip-path="url(#pade37fdb4a)" d="M 282.778038 198.022272 
L 284.489347 199.220098 
L 292.523372 202.184629 
L 290.783727 200.657364 
L 282.778038 198.022272 
z
" style="fill:#15507a;"/>
    <path clip-path="url(#pade37fdb4a)" d="M 274.615218 203.46964 
L 276.278461 205.146534 
L 284.489347 199.220098 
L 282.778038 198.022272 
L 274.615218 203.46964 
z
" style="fill:#1e74b0;"/>
    <path clip-path="url(#pade37fdb4a)" d="M 232.631287 195.10546 
L 234.105021 195.917701 
L 242.196839 207.930369 
L 240.696532 205.863392 
L 232.631287 195.10546 
z
" style="fill:#114263;"/>
    <path clip-path="url(#pade37fdb4a)" d="M 201.456338 211.414311 
L 202.788762 213.296308 
L 211.18324 250.853548 
L 209.81281 245.549957 
L 201.456338 211.414311 
z
" style="fill:#103c5a;"/>
    <path clip-path="url(#pade37fdb4a)" d="M 266.539374 203.419434 
L 268.167641 205.026079 
L 276.278461 205.146534 
L 274.615218 203.46964 
L 266.539374 203.419434 
z
" style="fill:#1a6598;"/>
    <path clip-path="url(#pade37fdb4a)" d="M 224.504158 205.589273 
L 225.93427 207.483302 
L 234.105021 195.917701 
L 232.631287 195.10546 
L 224.504158 205.589273 
z
" style="fill:#1d70aa;"/>
    <path clip-path="url(#pade37fdb4a)" d="M 219.273615 248.880293 
L 220.680742 253.883048 
L 228.834722 210.644453 
L 227.377622 209.169213 
L 219.273615 248.880293 
z
" style="fill:#1c6ba1;"/>
    <path clip-path="url(#pade37fdb4a)" d="M 242.196839 207.930369 
L 243.712034 209.791075 
L 251.882808 206.739122 
L 250.328462 205.095681 
L 242.196839 207.930369 
z
" style="fill:#1f77b4;"/>
    <path clip-path="url(#pade37fdb4a)" d="M 258.502966 198.246047 
L 260.104152 199.269735 
L 268.167641 205.026079 
L 266.539374 203.419434 
L 258.502966 198.246047 
z
" style="fill:#13486d;"/>
    <path clip-path="url(#pade37fdb4a)" d="M 250.328462 205.095681 
L 251.882808 206.739122 
L 260.104152 199.269735 
L 258.502966 198.246047 
L 250.328462 205.095681 
z
" style="fill:#1e73ae;"/>
    <path clip-path="url(#pade37fdb4a)" d="M 175.636366 209.798414 
L 176.84816 211.72355 
L 185.067445 211.771352 
L 183.818296 209.776902 
L 175.636366 209.798414 
z
" style="fill:#1a6598;"/>
    <path clip-path="url(#pade37fdb4a)" d="M 213.950141 260.909744 
L 215.347412 265.660592 
L 223.524949 263.333136 
L 222.097712 258.700988 
L 213.950141 260.909744 
z
" style="fill:#1a6497;"/>
    <path clip-path="url(#pade37fdb4a)" d="M 191.861531 198.609301 
L 193.139016 199.44727 
L 201.456338 211.414311 
L 200.134211 209.325757 
L 191.861531 198.609301 
z
" style="fill:#114263;"/>
    <path clip-path="url(#pade37fdb4a)" d="M 183.818296 209.776902 
L 185.067445 211.771352 
L 193.139016 199.44727 
L 191.861531 198.609301 
L 183.818296 209.776902 
z
" style="fill:#1d70a9;"/>
    <path clip-path="url(#pade37fdb4a)" d="M 202.788762 213.296308 
L 204.131924 214.969292 
L 212.562218 255.973754 
L 211.18324 250.853548 
L 202.788762 213.296308 
z
" style="fill:#103c5a;"/>
    <path clip-path="url(#pade37fdb4a)" d="M 284.489347 199.220098 
L 286.221596 200.203285 
L 294.284412 203.501022 
L 292.523372 202.184629 
L 284.489347 199.220098 
z
" style="fill:#155079;"/>
    <path clip-path="url(#pade37fdb4a)" d="M 167.365465 205.951046 
L 168.532841 207.381419 
L 176.84816 211.72355 
L 175.636366 209.798414 
L 167.365465 205.951046 
z
" style="fill:#134a70;"/>
    <path clip-path="url(#pade37fdb4a)" d="M 276.278461 205.146534 
L 277.961052 206.613565 
L 286.221596 200.203285 
L 284.489347 199.220098 
L 276.278461 205.146534 
z
" style="fill:#1e74b0;"/>
    <path clip-path="url(#pade37fdb4a)" d="M 234.105021 195.917701 
L 235.594053 196.510777 
L 243.712034 209.791075 
L 242.196839 207.930369 
L 234.105021 195.917701 
z
" style="fill:#114163;"/>
    <path clip-path="url(#pade37fdb4a)" d="M 268.167641 205.026079 
L 269.814425 206.421966 
L 277.961052 206.613565 
L 276.278461 205.146534 
L 268.167641 205.026079 
z
" style="fill:#1a6598;"/>
    <path clip-path="url(#pade37fdb4a)" d="M 225.93427 207.483302 
L 227.377622 209.169213 
L 235.594053 196.510777 
L 234.105021 195.917701 
L 225.93427 207.483302 
z
" style="fill:#1d70aa;"/>
    <path clip-path="url(#pade37fdb4a)" d="M 220.680742 253.883048 
L 222.097712 258.700988 
L 230.306094 211.90633 
L 228.834722 210.644453 
L 220.680742 253.883048 
z
" style="fill:#1c6ba2;"/>
    <path clip-path="url(#pade37fdb4a)" d="M 159.246272 210.687421 
L 160.383479 212.566315 
L 168.532841 207.381419 
L 167.365465 205.951046 
L 159.246272 210.687421 
z
" style="fill:#1e75b1;"/>
    <path clip-path="url(#pade37fdb4a)" d="M 151.025423 210.855311 
L 152.124309 212.680735 
L 160.383479 212.566315 
L 159.246272 210.687421 
L 151.025423 210.855311 
z
" style="fill:#1b679c;"/>
    <path clip-path="url(#pade37fdb4a)" d="M 243.712034 209.791075 
L 245.242659 211.443063 
L 253.453763 208.171852 
L 251.882808 206.739122 
L 243.712034 209.791075 
z
" style="fill:#1f77b4;"/>
    <path clip-path="url(#pade37fdb4a)" d="M 142.714497 208.237193 
L 143.767311 209.702724 
L 152.124309 212.680735 
L 151.025423 210.855311 
L 142.714497 208.237193 
z
" style="fill:#154f78;"/>
    <path clip-path="url(#pade37fdb4a)" d="M 260.104152 199.269735 
L 261.72365 200.076328 
L 269.814425 206.421966 
L 268.167641 205.026079 
L 260.104152 199.269735 
z
" style="fill:#13486d;"/>
    <path clip-path="url(#pade37fdb4a)" d="M 215.347412 265.660592 
L 216.754448 270.225279 
L 224.962885 267.778416 
L 223.524949 263.333136 
L 215.347412 265.660592 
z
" style="fill:#1b689d;"/>
    <path clip-path="url(#pade37fdb4a)" d="M 134.602043 213.229271 
L 135.62897 215.171674 
L 143.767311 209.702724 
L 142.714497 208.237193 
L 134.602043 213.229271 
z
" style="fill:#1e74b0;"/>
    <path clip-path="url(#pade37fdb4a)" d="M 251.882808 206.739122 
L 253.453763 208.171852 
L 261.72365 200.076328 
L 260.104152 199.269735 
L 251.882808 206.739122 
z
" style="fill:#1e73ae;"/>
    <path clip-path="url(#pade37fdb4a)" d="M 176.84816 211.72355 
L 178.067579 213.4404 
L 186.325108 213.558204 
L 185.067445 211.771352 
L 176.84816 211.72355 
z
" style="fill:#1a6498;"/>
    <path clip-path="url(#pade37fdb4a)" d="M 193.139016 199.44727 
L 194.42684 200.065833 
L 202.788762 213.296308 
L 201.456338 211.414311 
L 193.139016 199.44727 
z
" style="fill:#114163;"/>
    <path clip-path="url(#pade37fdb4a)" d="M 185.067445 211.771352 
L 186.325108 213.558204 
L 194.42684 200.065833 
L 193.139016 199.44727 
L 185.067445 211.771352 
z
" style="fill:#1d70a9;"/>
    <path clip-path="url(#pade37fdb4a)" d="M 204.131924 214.969292 
L 205.486275 216.43067 
L 213.950141 260.909744 
L 212.562218 255.973754 
L 204.131924 214.969292 
z
" style="fill:#103c5a;"/>
    <path clip-path="url(#pade37fdb4a)" d="M 222.097712 258.700988 
L 223.524949 263.333136 
L 231.792277 212.951999 
L 230.306094 211.90633 
L 222.097712 258.700988 
z
" style="fill:#1c6ba2;"/>
    <path clip-path="url(#pade37fdb4a)" d="M 168.532841 207.381419 
L 169.707199 208.598506 
L 178.067579 213.4404 
L 176.84816 211.72355 
L 168.532841 207.381419 
z
" style="fill:#134a70;"/>
    <path clip-path="url(#pade37fdb4a)" d="M 286.221596 200.203285 
L 287.975477 200.968886 
L 296.067545 204.603797 
L 294.284412 203.501022 
L 286.221596 200.203285 
z
" style="fill:#155079;"/>
    <path clip-path="url(#pade37fdb4a)" d="M 277.961052 206.613565 
L 279.663641 207.868062 
L 287.975477 200.968886 
L 286.221596 200.203285 
L 277.961052 206.613565 
z
" style="fill:#1e74b0;"/>
    <path clip-path="url(#pade37fdb4a)" d="M 269.814425 206.421966 
L 271.480359 207.604377 
L 279.663641 207.868062 
L 277.961052 206.613565 
L 269.814425 206.421966 
z
" style="fill:#1a6498;"/>
    <path clip-path="url(#pade37fdb4a)" d="M 235.594053 196.510777 
L 237.098945 196.881503 
L 245.242659 211.443063 
L 243.712034 209.791075 
L 235.594053 196.510777 
z
" style="fill:#114162;"/>
    <path clip-path="url(#pade37fdb4a)" d="M 160.383479 212.566315 
L 161.526451 214.236418 
L 169.707199 208.598506 
L 168.532841 207.381419 
L 160.383479 212.566315 
z
" style="fill:#1e75b1;"/>
    <path clip-path="url(#pade37fdb4a)" d="M 227.377622 209.169213 
L 228.834722 210.644453 
L 237.098945 196.881503 
L 235.594053 196.510777 
L 227.377622 209.169213 
z
" style="fill:#1d70aa;"/>
    <path clip-path="url(#pade37fdb4a)" d="M 152.124309 212.680735 
L 153.228036 214.296849 
L 161.526451 214.236418 
L 160.383479 212.566315 
L 152.124309 212.680735 
z
" style="fill:#1b679b;"/>
    <path clip-path="url(#pade37fdb4a)" d="M 216.754448 270.225279 
L 218.171674 274.602686 
L 226.411965 272.035656 
L 224.962885 267.778416 
L 216.754448 270.225279 
z
" style="fill:#1c6ca3;"/>
    <path clip-path="url(#pade37fdb4a)" d="M 245.242659 211.443063 
L 246.789273 212.883748 
L 255.041918 209.391167 
L 253.453763 208.171852 
L 245.242659 211.443063 
z
" style="fill:#1f77b4;"/>
    <path clip-path="url(#pade37fdb4a)" d="M 143.767311 209.702724 
L 144.824165 210.955312 
L 153.228036 214.296849 
L 152.124309 212.680735 
L 143.767311 209.702724 
z
" style="fill:#154f77;"/>
    <path clip-path="url(#pade37fdb4a)" d="M 135.62897 215.171674 
L 136.65878 216.906017 
L 144.824165 210.955312 
L 143.767311 209.702724 
L 135.62897 215.171674 
z
" style="fill:#1e74b0;"/>
    <path clip-path="url(#pade37fdb4a)" d="M 261.72365 200.076328 
L 263.362094 200.662757 
L 271.480359 207.604377 
L 269.814425 206.421966 
L 261.72365 200.076328 
z
" style="fill:#13486c;"/>
    <path clip-path="url(#pade37fdb4a)" d="M 253.453763 208.171852 
L 255.041918 209.391167 
L 263.362094 200.662757 
L 261.72365 200.076328 
L 253.453763 208.171852 
z
" style="fill:#1e73ae;"/>
    <path clip-path="url(#pade37fdb4a)" d="M 178.067579 213.4404 
L 179.295005 214.946407 
L 187.591686 215.134941 
L 186.325108 213.558204 
L 178.067579 213.4404 
z
" style="fill:#1a6498;"/>
    <path clip-path="url(#pade37fdb4a)" d="M 205.486275 216.43067 
L 206.852284 217.677703 
L 215.347412 265.660592 
L 213.950141 260.909744 
L 205.486275 216.43067 
z
" style="fill:#103c5a;"/>
    <path clip-path="url(#pade37fdb4a)" d="M 194.42684 200.065833 
L 195.725445 200.461798 
L 204.131924 214.969292 
L 202.788762 213.296308 
L 194.42684 200.065833 
z
" style="fill:#114163;"/>
    <path clip-path="url(#pade37fdb4a)" d="M 186.325108 213.558204 
L 187.591686 215.134941 
L 195.725445 200.461798 
L 194.42684 200.065833 
L 186.325108 213.558204 
z
" style="fill:#1d70a9;"/>
    <path clip-path="url(#pade37fdb4a)" d="M 223.524949 263.333136 
L 224.962885 267.778416 
L 233.293829 213.778464 
L 231.792277 212.951999 
L 223.524949 263.333136 
z
" style="fill:#1c6ba2;"/>
    <path clip-path="url(#pade37fdb4a)" d="M 169.707199 208.598506 
L 170.888906 209.599459 
L 179.295005 214.946407 
L 178.067579 213.4404 
L 169.707199 208.598506 
z
" style="fill:#134a6f;"/>
    <path clip-path="url(#pade37fdb4a)" d="M 287.975477 200.968886 
L 289.751711 201.513798 
L 297.873494 205.490061 
L 296.067545 204.603797 
L 287.975477 200.968886 
z
" style="fill:#155078;"/>
    <path clip-path="url(#pade37fdb4a)" d="M 279.663641 207.868062 
L 281.386901 208.907208 
L 289.751711 201.513798 
L 287.975477 200.968886 
L 279.663641 207.868062 
z
" style="fill:#1e74b0;"/>
    <path clip-path="url(#pade37fdb4a)" d="M 271.480359 207.604377 
L 273.166096 208.57045 
L 281.386901 208.907208 
L 279.663641 207.868062 
L 271.480359 207.604377 
z
" style="fill:#1a6498;"/>
    <path clip-path="url(#pade37fdb4a)" d="M 161.526451 214.236418 
L 162.675525 215.695142 
L 170.888906 209.599459 
L 169.707199 208.598506 
L 161.526451 214.236418 
z
" style="fill:#1e75b1;"/>
    <path clip-path="url(#pade37fdb4a)" d="M 237.098945 196.881503 
L 238.620281 197.026528 
L 246.789273 212.883748 
L 245.242659 211.443063 
L 237.098945 196.881503 
z
" style="fill:#114162;"/>
    <path clip-path="url(#pade37fdb4a)" d="M 228.834722 210.644453 
L 230.306094 211.90633 
L 238.620281 197.026528 
L 237.098945 196.881503 
L 228.834722 210.644453 
z
" style="fill:#1d70aa;"/>
    <path clip-path="url(#pade37fdb4a)" d="M 153.228036 214.296849 
L 154.33692 215.70103 
L 162.675525 215.695142 
L 161.526451 214.236418 
L 153.228036 214.296849 
z
" style="fill:#1b669b;"/>
    <path clip-path="url(#pade37fdb4a)" d="M 218.171674 274.602686 
L 219.599527 278.791593 
L 227.872646 276.103577 
L 226.411965 272.035656 
L 218.171674 274.602686 
z
" style="fill:#1d6fa7;"/>
    <path clip-path="url(#pade37fdb4a)" d="M 246.789273 212.883748 
L 248.352456 214.110401 
L 256.64788 210.394213 
L 255.041918 209.391167 
L 246.789273 212.883748 
z
" style="fill:#1f77b3;"/>
    <path clip-path="url(#pade37fdb4a)" d="M 144.824165 210.955312 
L 145.885356 211.992119 
L 154.33692 215.70103 
L 153.228036 214.296849 
L 144.824165 210.955312 
z
" style="fill:#144f77;"/>
    <path clip-path="url(#pade37fdb4a)" d="M 136.65878 216.906017 
L 137.691743 218.429737 
L 145.885356 211.992119 
L 144.824165 210.955312 
L 136.65878 216.906017 
z
" style="fill:#1e74b0;"/>
    <path clip-path="url(#pade37fdb4a)" d="M 263.362094 200.662757 
L 265.020143 201.025793 
L 273.166096 208.57045 
L 271.480359 207.604377 
L 263.362094 200.662757 
z
" style="fill:#13476c;"/>
    <path clip-path="url(#pade37fdb4a)" d="M 255.041918 209.391167 
L 256.64788 210.394213 
L 265.020143 201.025793 
L 263.362094 200.662757 
L 255.041918 209.391167 
z
" style="fill:#1e73ae;"/>
    <path clip-path="url(#pade37fdb4a)" d="M 179.295005 214.946407 
L 180.530828 216.238869 
L 188.867591 216.498908 
L 187.591686 215.134941 
L 179.295005 214.946407 
z
" style="fill:#1a6498;"/>
    <path clip-path="url(#pade37fdb4a)" d="M 206.852284 217.677703 
L 208.230431 218.707503 
L 216.754448 270.225279 
L 215.347412 265.660592 
L 206.852284 217.677703 
z
" style="fill:#103c5a;"/>
    <path clip-path="url(#pade37fdb4a)" d="M 224.962885 267.778416 
L 226.411965 272.035656 
L 234.811324 214.382568 
L 233.293829 213.778464 
L 224.962885 267.778416 
z
" style="fill:#1c6ba2;"/>
    <path clip-path="url(#pade37fdb4a)" d="M 187.591686 215.134941 
L 188.867591 216.498908 
L 197.035294 200.631805 
L 195.725445 200.461798 
L 187.591686 215.134941 
z
" style="fill:#1d70a9;"/>
    <path clip-path="url(#pade37fdb4a)" d="M 195.725445 200.461798 
L 197.035294 200.631805 
L 205.486275 216.43067 
L 204.131924 214.969292 
L 195.725445 200.461798 
z
" style="fill:#114162;"/>
    <path clip-path="url(#pade37fdb4a)" d="M 219.599527 278.791593 
L 221.038456 282.790675 
L 229.345396 279.980799 
L 227.872646 276.103577 
L 219.599527 278.791593 
z
" style="fill:#1d71ab;"/>
    <path clip-path="url(#pade37fdb4a)" d="M 170.888906 209.599459 
L 172.078337 210.381275 
L 180.530828 216.238869 
L 179.295005 214.946407 
L 170.888906 209.599459 
z
" style="fill:#13496f;"/>
    <path clip-path="url(#pade37fdb4a)" d="M 281.386901 208.907208 
L 283.131526 209.728034 
L 291.551038 201.834756 
L 289.751711 201.513798 
L 281.386901 208.907208 
z
" style="fill:#1e74b0;"/>
    <path clip-path="url(#pade37fdb4a)" d="M 273.166096 208.57045 
L 274.872312 209.317164 
L 283.131526 209.728034 
L 281.386901 208.907208 
L 273.166096 208.57045 
z
" style="fill:#1a6497;"/>
    <path clip-path="url(#pade37fdb4a)" d="M 289.751711 201.513798 
L 291.551038 201.834756 
L 299.703004 206.156766 
L 297.873494 205.490061 
L 289.751711 201.513798 
z
" style="fill:#154f78;"/>
    <path clip-path="url(#pade37fdb4a)" d="M 162.675525 215.695142 
L 163.831047 216.939751 
L 172.078337 210.381275 
L 170.888906 209.599459 
L 162.675525 215.695142 
z
" style="fill:#1e75b0;"/>
    <path clip-path="url(#pade37fdb4a)" d="M 154.33692 215.70103 
L 155.451285 216.890508 
L 163.831047 216.939751 
L 162.675525 215.695142 
L 154.33692 215.70103 
z
" style="fill:#1b669b;"/>
    <path clip-path="url(#pade37fdb4a)" d="M 238.620281 197.026528 
L 240.158663 196.942328 
L 248.352456 214.110401 
L 246.789273 212.883748 
L 238.620281 197.026528 
z
" style="fill:#114162;"/>
    <path clip-path="url(#pade37fdb4a)" d="M 230.306094 211.90633 
L 231.792277 212.951999 
L 240.158663 196.942328 
L 238.620281 197.026528 
L 230.306094 211.90633 
z
" style="fill:#1d70aa;"/>
    <path clip-path="url(#pade37fdb4a)" d="M 248.352456 214.110401 
L 249.932802 215.120144 
L 258.272276 211.177982 
L 256.64788 210.394213 
L 248.352456 214.110401 
z
" style="fill:#1f77b3;"/>
    <path clip-path="url(#pade37fdb4a)" d="M 145.885356 211.992119 
L 146.951188 212.810155 
L 155.451285 216.890508 
L 154.33692 215.70103 
L 145.885356 211.992119 
z
" style="fill:#144e76;"/>
    <path clip-path="url(#pade37fdb4a)" d="M 137.691743 218.429737 
L 138.728138 219.740132 
L 146.951188 212.810155 
L 145.885356 211.992119 
L 137.691743 218.429737 
z
" style="fill:#1e74b0;"/>
    <path clip-path="url(#pade37fdb4a)" d="M 180.530828 216.238869 
L 181.775449 217.314938 
L 190.153245 217.6473 
L 188.867591 216.498908 
L 180.530828 216.238869 
z
" style="fill:#1a6497;"/>
    <path clip-path="url(#pade37fdb4a)" d="M 265.020143 201.025793 
L 266.698476 201.162039 
L 274.872312 209.317164 
L 273.166096 208.57045 
L 265.020143 201.025793 
z
" style="fill:#13476c;"/>
    <path clip-path="url(#pade37fdb4a)" d="M 208.230431 218.707503 
L 209.621214 219.517024 
L 218.171674 274.602686 
L 216.754448 270.225279 
L 208.230431 218.707503 
z
" style="fill:#103c5a;"/>
    <path clip-path="url(#pade37fdb4a)" d="M 256.64788 210.394213 
L 258.272276 211.177982 
L 266.698476 201.162039 
L 265.020143 201.025793 
L 256.64788 210.394213 
z
" style="fill:#1e73ae;"/>
    <path clip-path="url(#pade37fdb4a)" d="M 226.411965 272.035656 
L 227.872646 276.103577 
L 236.345358 214.760989 
L 234.811324 214.382568 
L 226.411965 272.035656 
z
" style="fill:#1c6ba2;"/>
    <path clip-path="url(#pade37fdb4a)" d="M 221.038456 282.790675 
L 222.488922 286.5985 
L 230.830698 283.665829 
L 229.345396 279.980799 
L 221.038456 282.790675 
z
" style="fill:#1e73ad;"/>
    <path clip-path="url(#pade37fdb4a)" d="M 188.867591 216.498908 
L 190.153245 217.6473 
L 198.356859 200.57232 
L 197.035294 200.631805 
L 188.867591 216.498908 
z
" style="fill:#1d70a9;"/>
    <path clip-path="url(#pade37fdb4a)" d="M 197.035294 200.631805 
L 198.356859 200.57232 
L 206.852284 217.677703 
L 205.486275 216.43067 
L 197.035294 200.631805 
z
" style="fill:#114162;"/>
    <path clip-path="url(#pade37fdb4a)" d="M 172.078337 210.381275 
L 173.275878 210.940792 
L 181.775449 217.314938 
L 180.530828 216.238869 
L 172.078337 210.381275 
z
" style="fill:#13496f;"/>
    <path clip-path="url(#pade37fdb4a)" d="M 163.831047 216.939751 
L 164.993373 217.96736 
L 173.275878 210.940792 
L 172.078337 210.381275 
L 163.831047 216.939751 
z
" style="fill:#1e75b0;"/>
    <path clip-path="url(#pade37fdb4a)" d="M 274.872312 209.317164 
L 276.599704 209.84134 
L 284.898233 210.327413 
L 283.131526 209.728034 
L 274.872312 209.317164 
z
" style="fill:#1a6497;"/>
    <path clip-path="url(#pade37fdb4a)" d="M 155.451285 216.890508 
L 156.571464 217.86236 
L 164.993373 217.96736 
L 163.831047 216.939751 
L 155.451285 216.890508 
z
" style="fill:#1b669b;"/>
    <path clip-path="url(#pade37fdb4a)" d="M 283.131526 209.728034 
L 284.898233 210.327413 
L 293.374228 201.928326 
L 291.551038 201.834756 
L 283.131526 209.728034 
z
" style="fill:#1e74b0;"/>
    <path clip-path="url(#pade37fdb4a)" d="M 291.551038 201.834756 
L 293.374228 201.928326 
L 301.55685 206.600703 
L 299.703004 206.156766 
L 291.551038 201.834756 
z
" style="fill:#154f78;"/>
    <path clip-path="url(#pade37fdb4a)" d="M 240.158663 196.942328 
L 241.714715 196.625204 
L 249.932802 215.120144 
L 248.352456 214.110401 
L 240.158663 196.942328 
z
" style="fill:#114162;"/>
    <path clip-path="url(#pade37fdb4a)" d="M 231.792277 212.951999 
L 233.293829 213.778464 
L 241.714715 196.625204 
L 240.158663 196.942328 
L 231.792277 212.951999 
z
" style="fill:#1d70aa;"/>
    <path clip-path="url(#pade37fdb4a)" d="M 249.932802 215.120144 
L 251.530929 215.909941 
L 259.915757 211.739307 
L 258.272276 211.177982 
L 249.932802 215.120144 
z
" style="fill:#1f76b3;"/>
    <path clip-path="url(#pade37fdb4a)" d="M 146.951188 212.810155 
L 148.021971 213.406271 
L 156.571464 217.86236 
L 155.451285 216.890508 
L 146.951188 212.810155 
z
" style="fill:#144e76;"/>
    <path clip-path="url(#pade37fdb4a)" d="M 138.728138 219.740132 
L 139.76825 220.834345 
L 148.021971 213.406271 
L 146.951188 212.810155 
L 138.728138 219.740132 
z
" style="fill:#1e74b0;"/>
    <path clip-path="url(#pade37fdb4a)" d="M 209.621214 219.517024 
L 211.025144 220.103057 
L 219.599527 278.791593 
L 218.171674 274.602686 
L 209.621214 219.517024 
z
" style="fill:#103c5a;"/>
    <path clip-path="url(#pade37fdb4a)" d="M 227.872646 276.103577 
L 229.345396 279.980799 
L 237.896544 214.910229 
L 236.345358 214.760989 
L 227.872646 276.103577 
z
" style="fill:#1c6ba2;"/>
    <path clip-path="url(#pade37fdb4a)" d="M 181.775449 217.314938 
L 183.029284 218.171609 
L 191.449087 218.57716 
L 190.153245 217.6473 
L 181.775449 217.314938 
z
" style="fill:#1a6497;"/>
    <path clip-path="url(#pade37fdb4a)" d="M 266.698476 201.162039 
L 268.397797 201.067921 
L 276.599704 209.84134 
L 274.872312 209.317164 
L 266.698476 201.162039 
z
" style="fill:#13476c;"/>
    <path clip-path="url(#pade37fdb4a)" d="M 222.488922 286.5985 
L 223.951399 290.213528 
L 232.329047 287.157065 
L 230.830698 283.665829 
L 222.488922 286.5985 
z
" style="fill:#1e74af;"/>
    <path clip-path="url(#pade37fdb4a)" d="M 258.272276 211.177982 
L 259.915757 211.739307 
L 268.397797 201.067921 
L 266.698476 201.162039 
L 258.272276 211.177982 
z
" style="fill:#1e73ae;"/>
    <path clip-path="url(#pade37fdb4a)" d="M 190.153245 217.6473 
L 191.449087 218.57716 
L 199.690631 200.279634 
L 198.356859 200.57232 
L 190.153245 217.6473 
z
" style="fill:#1d70a9;"/>
    <path clip-path="url(#pade37fdb4a)" d="M 198.356859 200.57232 
L 199.690631 200.279634 
L 208.230431 218.707503 
L 206.852284 217.677703 
L 198.356859 200.57232 
z
" style="fill:#114162;"/>
    <path clip-path="url(#pade37fdb4a)" d="M 173.275878 210.940792 
L 174.481928 211.274682 
L 183.029284 218.171609 
L 181.775449 217.314938 
L 173.275878 210.940792 
z
" style="fill:#13496e;"/>
    <path clip-path="url(#pade37fdb4a)" d="M 164.993373 217.96736 
L 166.162871 218.774927 
L 174.481928 211.274682 
L 173.275878 210.940792 
L 164.993373 217.96736 
z
" style="fill:#1e75b0;"/>
    <path clip-path="url(#pade37fdb4a)" d="M 156.571464 217.86236 
L 157.6978 218.61351 
L 166.162871 218.774927 
L 164.993373 217.96736 
L 156.571464 217.86236 
z
" style="fill:#1b669a;"/>
    <path clip-path="url(#pade37fdb4a)" d="M 276.599704 209.84134 
L 278.348996 210.139633 
L 286.687765 210.702053 
L 284.898233 210.327413 
L 276.599704 209.84134 
z
" style="fill:#1a6497;"/>
    <path clip-path="url(#pade37fdb4a)" d="M 284.898233 210.327413 
L 286.687765 210.702053 
L 295.222075 201.790899 
L 293.374228 201.928326 
L 284.898233 210.327413 
z
" style="fill:#1e74b0;"/>
    <path clip-path="url(#pade37fdb4a)" d="M 293.374228 201.928326 
L 295.222075 201.790899 
L 303.43583 206.818498 
L 301.55685 206.600703 
L 293.374228 201.928326 
z
" style="fill:#154f78;"/>
    <path clip-path="url(#pade37fdb4a)" d="M 241.714715 196.625204 
L 243.28908 196.071265 
L 251.530929 215.909941 
L 249.932802 215.120144 
L 241.714715 196.625204 
z
" style="fill:#114062;"/>
    <path clip-path="url(#pade37fdb4a)" d="M 233.293829 213.778464 
L 234.811324 214.382568 
L 243.28908 196.071265 
L 241.714715 196.625204 
L 233.293829 213.778464 
z
" style="fill:#1d70a9;"/>
    <path clip-path="url(#pade37fdb4a)" d="M 251.530929 215.909941 
L 253.147473 216.476598 
L 261.578994 212.074854 
L 259.915757 211.739307 
L 251.530929 215.909941 
z
" style="fill:#1f76b3;"/>
    <path clip-path="url(#pade37fdb4a)" d="M 211.025144 220.103057 
L 212.442751 220.462224 
L 221.038456 282.790675 
L 219.599527 278.791593 
L 211.025144 220.103057 
z
" style="fill:#103c5a;"/>
    <path clip-path="url(#pade37fdb4a)" d="M 148.021971 213.406271 
L 149.098028 213.77715 
L 157.6978 218.61351 
L 156.571464 217.86236 
L 148.021971 213.406271 
z
" style="fill:#144e76;"/>
    <path clip-path="url(#pade37fdb4a)" d="M 223.951399 290.213528 
L 225.426374 293.634101 
L 233.840955 290.452787 
L 232.329047 287.157065 
L 223.951399 290.213528 
z
" style="fill:#1e75b1;"/>
    <path clip-path="url(#pade37fdb4a)" d="M 139.76825 220.834345 
L 140.812369 221.709369 
L 149.098028 213.77715 
L 148.021971 213.406271 
L 139.76825 220.834345 
z
" style="fill:#1e74b0;"/>
    <path clip-path="url(#pade37fdb4a)" d="M 229.345396 279.980799 
L 230.830698 283.665829 
L 239.465518 214.826611 
L 237.896544 214.910229 
L 229.345396 279.980799 
z
" style="fill:#1c6ba3;"/>
    <path clip-path="url(#pade37fdb4a)" d="M 183.029284 218.171609 
L 184.292759 218.805717 
L 192.755566 219.285373 
L 191.449087 218.57716 
L 183.029284 218.171609 
z
" style="fill:#1a6497;"/>
    <path clip-path="url(#pade37fdb4a)" d="M 259.915757 211.739307 
L 261.578994 212.074854 
L 270.118834 200.739687 
L 268.397797 201.067921 
L 259.915757 211.739307 
z
" style="fill:#1e73ae;"/>
    <path clip-path="url(#pade37fdb4a)" d="M 268.397797 201.067921 
L 270.118834 200.739687 
L 278.348996 210.139633 
L 276.599704 209.84134 
L 268.397797 201.067921 
z
" style="fill:#12476b;"/>
    <path clip-path="url(#pade37fdb4a)" d="M 191.449087 218.57716 
L 192.755566 219.285373 
L 201.037115 199.749845 
L 199.690631 200.279634 
L 191.449087 218.57716 
z
" style="fill:#1d70a9;"/>
    <path clip-path="url(#pade37fdb4a)" d="M 199.690631 200.279634 
L 201.037115 199.749845 
L 209.621214 219.517024 
L 208.230431 218.707503 
L 199.690631 200.279634 
z
" style="fill:#114162;"/>
    <path clip-path="url(#pade37fdb4a)" d="M 174.481928 211.274682 
L 175.696899 211.379444 
L 184.292759 218.805717 
L 183.029284 218.171609 
L 174.481928 211.274682 
z
" style="fill:#13496e;"/>
    <path clip-path="url(#pade37fdb4a)" d="M 157.6978 218.61351 
L 158.830645 219.140713 
L 167.339917 219.359249 
L 166.162871 218.774927 
L 157.6978 218.61351 
z
" style="fill:#1b669a;"/>
    <path clip-path="url(#pade37fdb4a)" d="M 166.162871 218.774927 
L 167.339917 219.359249 
L 175.696899 211.379444 
L 174.481928 211.274682 
L 166.162871 218.774927 
z
" style="fill:#1e74b0;"/>
    <path clip-path="url(#pade37fdb4a)" d="M 278.348996 210.139633 
L 280.120934 210.208524 
L 288.500891 210.84849 
L 286.687765 210.702053 
L 278.348996 210.139633 
z
" style="fill:#1a6497;"/>
    <path clip-path="url(#pade37fdb4a)" d="M 286.687765 210.702053 
L 288.500891 210.84849 
L 297.095404 201.418681 
L 295.222075 201.790899 
L 286.687765 210.702053 
z
" style="fill:#1e74af;"/>
    <path clip-path="url(#pade37fdb4a)" d="M 295.222075 201.790899 
L 297.095404 201.418681 
L 305.340771 206.806601 
L 303.43583 206.818498 
L 295.222075 201.790899 
z
" style="fill:#154f77;"/>
    <path clip-path="url(#pade37fdb4a)" d="M 234.811324 214.382568 
L 236.345358 214.760989 
L 244.882427 195.27643 
L 243.28908 196.071265 
L 234.811324 214.382568 
z
" style="fill:#1d70a9;"/>
    <path clip-path="url(#pade37fdb4a)" d="M 243.28908 196.071265 
L 244.882427 195.27643 
L 253.147473 216.476598 
L 251.530929 215.909941 
L 243.28908 196.071265 
z
" style="fill:#114061;"/>
    <path clip-path="url(#pade37fdb4a)" d="M 225.426374 293.634101 
L 226.914349 296.858446 
L 235.366947 293.551156 
L 233.840955 290.452787 
L 225.426374 293.634101 
z
" style="fill:#1f75b1;"/>
    <path clip-path="url(#pade37fdb4a)" d="M 212.442751 220.462224 
L 213.874581 220.590971 
L 222.488922 286.5985 
L 221.038456 282.790675 
L 212.442751 220.462224 
z
" style="fill:#103c5a;"/>
    <path clip-path="url(#pade37fdb4a)" d="M 230.830698 283.665829 
L 232.329047 287.157065 
L 241.052939 214.50627 
L 239.465518 214.826611 
L 230.830698 283.665829 
z
" style="fill:#1c6ca3;"/>
    <path clip-path="url(#pade37fdb4a)" d="M 253.147473 216.476598 
L 254.783092 216.816749 
L 263.26268 212.181116 
L 261.578994 212.074854 
L 253.147473 216.476598 
z
" style="fill:#1f76b3;"/>
    <path clip-path="url(#pade37fdb4a)" d="M 149.098028 213.77715 
L 150.179688 213.919303 
L 158.830645 219.140713 
L 157.6978 218.61351 
L 149.098028 213.77715 
z
" style="fill:#144e76;"/>
    <path clip-path="url(#pade37fdb4a)" d="M 140.812369 221.709369 
L 141.860797 222.362033 
L 150.179688 213.919303 
L 149.098028 213.77715 
L 140.812369 221.709369 
z
" style="fill:#1e74b0;"/>
    <path clip-path="url(#pade37fdb4a)" d="M 184.292759 218.805717 
L 185.566314 219.213928 
L 194.073147 219.768656 
L 192.755566 219.285373 
L 184.292759 218.805717 
z
" style="fill:#1a6497;"/>
    <path clip-path="url(#pade37fdb4a)" d="M 261.578994 212.074854 
L 263.26268 212.181116 
L 271.86234 200.173393 
L 270.118834 200.739687 
L 261.578994 212.074854 
z
" style="fill:#1e73ae;"/>
    <path clip-path="url(#pade37fdb4a)" d="M 270.118834 200.739687 
L 271.86234 200.173393 
L 280.120934 210.208524 
L 278.348996 210.139633 
L 270.118834 200.739687 
z
" style="fill:#12476b;"/>
    <path clip-path="url(#pade37fdb4a)" d="M 192.755566 219.285373 
L 194.073147 219.768656 
L 202.396835 198.978859 
L 201.037115 199.749845 
L 192.755566 219.285373 
z
" style="fill:#1d70a9;"/>
    <path clip-path="url(#pade37fdb4a)" d="M 201.037115 199.749845 
L 202.396835 198.978859 
L 211.025144 220.103057 
L 209.621214 219.517024 
L 201.037115 199.749845 
z
" style="fill:#114061;"/>
    <path clip-path="url(#pade37fdb4a)" d="M 175.696899 211.379444 
L 176.921212 211.251396 
L 185.566314 219.213928 
L 184.292759 218.805717 
L 175.696899 211.379444 
z
" style="fill:#13496e;"/>
    <path clip-path="url(#pade37fdb4a)" d="M 158.830645 219.140713 
L 159.970363 219.440558 
L 168.5249 219.716953 
L 167.339917 219.359249 
L 158.830645 219.140713 
z
" style="fill:#1b669a;"/>
    <path clip-path="url(#pade37fdb4a)" d="M 167.339917 219.359249 
L 168.5249 219.716953 
L 176.921212 211.251396 
L 175.696899 211.379444 
L 167.339917 219.359249 
z
" style="fill:#1e74b0;"/>
    <path clip-path="url(#pade37fdb4a)" d="M 280.120934 210.208524 
L 281.916292 210.044313 
L 290.338407 210.763083 
L 288.500891 210.84849 
L 280.120934 210.208524 
z
" style="fill:#1a6497;"/>
    <path clip-path="url(#pade37fdb4a)" d="M 226.914349 296.858446 
L 228.41584 299.884668 
L 236.907565 296.450212 
L 235.366947 293.551156 
L 226.914349 296.858446 
z
" style="fill:#1f76b2;"/>
    <path clip-path="url(#pade37fdb4a)" d="M 288.500891 210.84849 
L 290.338407 210.763083 
L 298.995069 200.807688 
L 297.095404 201.418681 
L 288.500891 210.84849 
z
" style="fill:#1e74af;"/>
    <path clip-path="url(#pade37fdb4a)" d="M 297.095404 201.418681 
L 298.995069 200.807688 
L 307.272533 206.561279 
L 305.340771 206.806601 
L 297.095404 201.418681 
z
" style="fill:#154f77;"/>
    <path clip-path="url(#pade37fdb4a)" d="M 236.345358 214.760989 
L 237.896544 214.910229 
L 246.495445 194.236412 
L 244.882427 195.27643 
L 236.345358 214.760989 
z
" style="fill:#1d70a9;"/>
    <path clip-path="url(#pade37fdb4a)" d="M 244.882427 195.27643 
L 246.495445 194.236412 
L 254.783092 216.816749 
L 253.147473 216.476598 
L 244.882427 195.27643 
z
" style="fill:#114061;"/>
    <path clip-path="url(#pade37fdb4a)" d="M 232.329047 287.157065 
L 233.840955 290.452787 
L 242.659487 213.945142 
L 241.052939 214.50627 
L 232.329047 287.157065 
z
" style="fill:#1c6ca3;"/>
    <path clip-path="url(#pade37fdb4a)" d="M 213.874581 220.590971 
L 215.3212 220.485559 
L 223.951399 290.213528 
L 222.488922 286.5985 
L 213.874581 220.590971 
z
" style="fill:#103c5a;"/>
    <path clip-path="url(#pade37fdb4a)" d="M 254.783092 216.816749 
L 256.438467 216.926855 
L 264.967534 212.054404 
L 263.26268 212.181116 
L 254.783092 216.816749 
z
" style="fill:#1f76b3;"/>
    <path clip-path="url(#pade37fdb4a)" d="M 141.860797 222.362033 
L 142.913842 222.788999 
L 151.267291 213.829064 
L 150.179688 213.919303 
L 141.860797 222.362033 
z
" style="fill:#1e74b0;"/>
    <path clip-path="url(#pade37fdb4a)" d="M 150.179688 213.919303 
L 151.267291 213.829064 
L 159.970363 219.440558 
L 158.830645 219.140713 
L 150.179688 213.919303 
z
" style="fill:#144e75;"/>
    <path clip-path="url(#pade37fdb4a)" d="M 185.566314 219.213928 
L 186.850404 219.392736 
L 195.402308 220.023555 
L 194.073147 219.768656 
L 185.566314 219.213928 
z
" style="fill:#1a6497;"/>
    <path clip-path="url(#pade37fdb4a)" d="M 263.26268 212.181116 
L 264.967534 212.054404 
L 273.629096 199.364899 
L 271.86234 200.173393 
L 263.26268 212.181116 
z
" style="fill:#1e73ae;"/>
    <path clip-path="url(#pade37fdb4a)" d="M 271.86234 200.173393 
L 273.629096 199.364899 
L 281.916292 210.044313 
L 280.120934 210.208524 
L 271.86234 200.173393 
z
" style="fill:#12476b;"/>
    <path clip-path="url(#pade37fdb4a)" d="M 194.073147 219.768656 
L 195.402308 220.023555 
L 203.770332 197.962376 
L 202.396835 198.978859 
L 194.073147 219.768656 
z
" style="fill:#1d70a9;"/>
    <path clip-path="url(#pade37fdb4a)" d="M 202.396835 198.978859 
L 203.770332 197.962376 
L 212.442751 220.462224 
L 211.025144 220.103057 
L 202.396835 198.978859 
z
" style="fill:#114061;"/>
    <path clip-path="url(#pade37fdb4a)" d="M 228.41584 299.884668 
L 229.93138 302.710745 
L 238.463365 299.147862 
L 236.907565 296.450212 
L 228.41584 299.884668 
z
" style="fill:#1f76b3;"/>
    <path clip-path="url(#pade37fdb4a)" d="M 176.921212 211.251396 
L 178.155306 210.88667 
L 186.850404 219.392736 
L 185.566314 219.213928 
L 176.921212 211.251396 
z
" style="fill:#13496e;"/>
    <path clip-path="url(#pade37fdb4a)" d="M 159.970363 219.440558 
L 161.117325 219.509453 
L 169.718221 219.844492 
L 168.5249 219.716953 
L 159.970363 219.440558 
z
" style="fill:#1b669a;"/>
    <path clip-path="url(#pade37fdb4a)" d="M 168.5249 219.716953 
L 169.718221 219.844492 
L 178.155306 210.88667 
L 176.921212 211.251396 
L 168.5249 219.716953 
z
" style="fill:#1e74b0;"/>
    <path clip-path="url(#pade37fdb4a)" d="M 281.916292 210.044313 
L 283.735873 209.643111 
L 292.201137 210.442005 
L 290.338407 210.763083 
L 281.916292 210.044313 
z
" style="fill:#1a6497;"/>
    <path clip-path="url(#pade37fdb4a)" d="M 233.840955 290.452787 
L 235.366947 293.551156 
L 244.285868 213.13896 
L 242.659487 213.945142 
L 233.840955 290.452787 
z
" style="fill:#1c6ca3;"/>
    <path clip-path="url(#pade37fdb4a)" d="M 290.338407 210.763083 
L 292.201137 210.442005 
L 300.921953 199.953735 
L 298.995069 200.807688 
L 290.338407 210.763083 
z
" style="fill:#1e74af;"/>
    <path clip-path="url(#pade37fdb4a)" d="M 215.3212 220.485559 
L 216.783191 220.14206 
L 225.426374 293.634101 
L 223.951399 290.213528 
L 215.3212 220.485559 
z
" style="fill:#103c5a;"/>
    <path clip-path="url(#pade37fdb4a)" d="M 298.995069 200.807688 
L 300.921953 199.953735 
L 309.232003 206.078614 
L 307.272533 206.561279 
L 298.995069 200.807688 
z
" style="fill:#144f77;"/>
    <path clip-path="url(#pade37fdb4a)" d="M 237.896544 214.910229 
L 239.465518 214.826611 
L 248.128852 192.946712 
L 246.495445 194.236412 
L 237.896544 214.910229 
z
" style="fill:#1d70a9;"/>
    <path clip-path="url(#pade37fdb4a)" d="M 246.495445 194.236412 
L 248.128852 192.946712 
L 256.438467 216.926855 
L 254.783092 216.816749 
L 246.495445 194.236412 
z
" style="fill:#114061;"/>
    <path clip-path="url(#pade37fdb4a)" d="M 256.438467 216.926855 
L 258.114303 216.803192 
L 266.6943 211.690842 
L 264.967534 212.054404 
L 256.438467 216.926855 
z
" style="fill:#1f76b3;"/>
    <path clip-path="url(#pade37fdb4a)" d="M 142.913842 222.788999 
L 143.971819 222.986754 
L 152.361185 213.502574 
L 151.267291 213.829064 
L 142.913842 222.788999 
z
" style="fill:#1e74b0;"/>
    <path clip-path="url(#pade37fdb4a)" d="M 151.267291 213.829064 
L 152.361185 213.502574 
L 161.117325 219.509453 
L 159.970363 219.440558 
L 151.267291 213.829064 
z
" style="fill:#144d75;"/>
    <path clip-path="url(#pade37fdb4a)" d="M 186.850404 219.392736 
L 188.145496 219.338452 
L 196.743545 220.046437 
L 195.402308 220.023555 
L 186.850404 219.392736 
z
" style="fill:#1a6497;"/>
    <path clip-path="url(#pade37fdb4a)" d="M 264.967534 212.054404 
L 266.6943 211.690842 
L 275.419913 198.309855 
L 273.629096 199.364899 
L 264.967534 212.054404 
z
" style="fill:#1e73ae;"/>
    <path clip-path="url(#pade37fdb4a)" d="M 273.629096 199.364899 
L 275.419913 198.309855 
L 283.735873 209.643111 
L 281.916292 210.044313 
L 273.629096 199.364899 
z
" style="fill:#12476b;"/>
    <path clip-path="url(#pade37fdb4a)" d="M 229.93138 302.710745 
L 231.461518 305.334526 
L 240.034926 301.641886 
L 238.463365 299.147862 
L 229.93138 302.710745 
z
" style="fill:#1f76b3;"/>
    <path clip-path="url(#pade37fdb4a)" d="M 195.402308 220.023555 
L 196.743545 220.046437 
L 205.158166 196.695882 
L 203.770332 197.962376 
L 195.402308 220.023555 
z
" style="fill:#1d70a9;"/>
    <path clip-path="url(#pade37fdb4a)" d="M 203.770332 197.962376 
L 205.158166 196.695882 
L 213.874581 220.590971 
L 212.442751 220.462224 
L 203.770332 197.962376 
z
" style="fill:#114061;"/>
    <path clip-path="url(#pade37fdb4a)" d="M 178.155306 210.88667 
L 179.399633 210.281199 
L 188.145496 219.338452 
L 186.850404 219.392736 
L 178.155306 210.88667 
z
" style="fill:#13486e;"/>
    <path clip-path="url(#pade37fdb4a)" d="M 161.117325 219.509453 
L 162.271919 219.343623 
L 170.920292 219.738131 
L 169.718221 219.844492 
L 161.117325 219.509453 
z
" style="fill:#1b669a;"/>
    <path clip-path="url(#pade37fdb4a)" d="M 169.718221 219.844492 
L 170.920292 219.738131 
L 179.399633 210.281199 
L 178.155306 210.88667 
L 169.718221 219.844492 
z
" style="fill:#1e74b0;"/>
    <path clip-path="url(#pade37fdb4a)" d="M 235.366947 293.551156 
L 236.907565 296.450212 
L 245.932813 212.083242 
L 244.285868 213.13896 
L 235.366947 293.551156 
z
" style="fill:#1c6ca3;"/>
    <path clip-path="url(#pade37fdb4a)" d="M 216.783191 220.14206 
L 218.26116 219.556342 
L 226.914349 296.858446 
L 225.426374 293.634101 
L 216.783191 220.14206 
z
" style="fill:#103c5a;"/>
    <path clip-path="url(#pade37fdb4a)" d="M 283.735873 209.643111 
L 285.580506 209.000832 
L 294.089935 209.881233 
L 292.201137 210.442005 
L 283.735873 209.643111 
z
" style="fill:#1a6497;"/>
    <path clip-path="url(#pade37fdb4a)" d="M 292.201137 210.442005 
L 294.089935 209.881233 
L 302.876976 198.852429 
L 300.921953 199.953735 
L 292.201137 210.442005 
z
" style="fill:#1e74af;"/>
    <path clip-path="url(#pade37fdb4a)" d="M 300.921953 199.953735 
L 302.876976 198.852429 
L 311.220102 205.354486 
L 309.232003 206.078614 
L 300.921953 199.953735 
z
" style="fill:#144f77;"/>
    <path clip-path="url(#pade37fdb4a)" d="M 239.465518 214.826611 
L 241.052939 214.50627 
L 249.783389 191.402611 
L 248.128852 192.946712 
L 239.465518 214.826611 
z
" style="fill:#1d70a9;"/>
    <path clip-path="url(#pade37fdb4a)" d="M 248.128852 192.946712 
L 249.783389 191.402611 
L 258.114303 216.803192 
L 256.438467 216.926855 
L 248.128852 192.946712 
z
" style="fill:#114061;"/>
    <path clip-path="url(#pade37fdb4a)" d="M 258.114303 216.803192 
L 259.811329 216.441849 
L 268.44375 211.086357 
L 266.6943 211.690842 
L 258.114303 216.803192 
z
" style="fill:#1f76b3;"/>
    <path clip-path="url(#pade37fdb4a)" d="M 143.971819 222.986754 
L 145.035055 222.951603 
L 153.461733 212.935783 
L 152.361185 213.502574 
L 143.971819 222.986754 
z
" style="fill:#1e74b0;"/>
    <path clip-path="url(#pade37fdb4a)" d="M 152.361185 213.502574 
L 153.461733 212.935783 
L 162.271919 219.343623 
L 161.117325 219.509453 
L 152.361185 213.502574 
z
" style="fill:#144d75;"/>
    <path clip-path="url(#pade37fdb4a)" d="M 188.145496 219.338452 
L 189.452076 219.047197 
L 198.097369 219.833481 
L 196.743545 220.046437 
L 188.145496 219.338452 
z
" style="fill:#1a6497;"/>
    <path clip-path="url(#pade37fdb4a)" d="M 231.461518 305.334526 
L 233.006817 307.753724 
L 241.622839 303.929922 
L 240.034926 301.641886 
L 231.461518 305.334526 
z
" style="fill:#1f76b3;"/>
    <path clip-path="url(#pade37fdb4a)" d="M 266.6943 211.690842 
L 268.44375 211.086357 
L 277.235629 197.0037 
L 275.419913 198.309855 
L 266.6943 211.690842 
z
" style="fill:#1e73ad;"/>
    <path clip-path="url(#pade37fdb4a)" d="M 275.419913 198.309855 
L 277.235629 197.0037 
L 285.580506 209.000832 
L 283.735873 209.643111 
L 275.419913 198.309855 
z
" style="fill:#12476b;"/>
    <path clip-path="url(#pade37fdb4a)" d="M 196.743545 220.046437 
L 198.097369 219.833481 
L 206.560916 195.174641 
L 205.158166 196.695882 
L 196.743545 220.046437 
z
" style="fill:#1d70a9;"/>
    <path clip-path="url(#pade37fdb4a)" d="M 205.158166 196.695882 
L 206.560916 195.174641 
L 215.3212 220.485559 
L 213.874581 220.590971 
L 205.158166 196.695882 
z
" style="fill:#114061;"/>
    <path clip-path="url(#pade37fdb4a)" d="M 179.399633 210.281199 
L 180.654657 209.430712 
L 189.452076 219.047197 
L 188.145496 219.338452 
L 179.399633 210.281199 
z
" style="fill:#13486d;"/>
    <path clip-path="url(#pade37fdb4a)" d="M 236.907565 296.450212 
L 238.463365 299.147862 
L 247.601081 210.77328 
L 245.932813 212.083242 
L 236.907565 296.450212 
z
" style="fill:#1c6ca3;"/>
    <path clip-path="url(#pade37fdb4a)" d="M 162.271919 219.343623 
L 163.43454 218.939098 
L 172.131539 219.393948 
L 170.920292 219.738131 
L 162.271919 219.343623 
z
" style="fill:#1b669a;"/>
    <path clip-path="url(#pade37fdb4a)" d="M 170.920292 219.738131 
L 172.131539 219.393948 
L 180.654657 209.430712 
L 179.399633 210.281199 
L 170.920292 219.738131 
z
" style="fill:#1e74b0;"/>
    <path clip-path="url(#pade37fdb4a)" d="M 218.26116 219.556342 
L 219.755732 218.724065 
L 228.41584 299.884668 
L 226.914349 296.858446 
L 218.26116 219.556342 
z
" style="fill:#103c5a;"/>
    <path clip-path="url(#pade37fdb4a)" d="M 285.580506 209.000832 
L 287.451054 208.113185 
L 296.005688 209.076543 
L 294.089935 209.881233 
L 285.580506 209.000832 
z
" style="fill:#1a6497;"/>
    <path clip-path="url(#pade37fdb4a)" d="M 294.089935 209.881233 
L 296.005688 209.076543 
L 304.86109 197.49916 
L 302.876976 198.852429 
L 294.089935 209.881233 
z
" style="fill:#1e74af;"/>
    <path clip-path="url(#pade37fdb4a)" d="M 302.876976 198.852429 
L 304.86109 197.49916 
L 313.237786 204.384572 
L 311.220102 205.354486 
L 302.876976 198.852429 
z
" style="fill:#144e77;"/>
    <path clip-path="url(#pade37fdb4a)" d="M 241.052939 214.50627 
L 242.659487 213.945142 
L 251.459826 189.599154 
L 249.783389 191.402611 
L 241.052939 214.50627 
z
" style="fill:#1d70a9;"/>
    <path clip-path="url(#pade37fdb4a)" d="M 249.783389 191.402611 
L 251.459826 189.599154 
L 259.811329 216.441849 
L 258.114303 216.803192 
L 249.783389 191.402611 
z
" style="fill:#114061;"/>
    <path clip-path="url(#pade37fdb4a)" d="M 259.811329 216.441849 
L 261.530303 215.838712 
L 270.216682 210.23667 
L 268.44375 211.086357 
L 259.811329 216.441849 
z
" style="fill:#1f76b3;"/>
    <path clip-path="url(#pade37fdb4a)" d="M 145.035055 222.951603 
L 146.103885 222.67966 
L 154.569305 212.124433 
L 153.461733 212.935783 
L 145.035055 222.951603 
z
" style="fill:#1e74af;"/>
    <path clip-path="url(#pade37fdb4a)" d="M 153.461733 212.935783 
L 154.569305 212.124433 
L 163.43454 218.939098 
L 162.271919 219.343623 
L 153.461733 212.935783 
z
" style="fill:#144d75;"/>
    <path clip-path="url(#pade37fdb4a)" d="M 189.452076 219.047197 
L 190.770642 218.514896 
L 199.464308 219.380671 
L 198.097369 219.833481 
L 189.452076 219.047197 
z
" style="fill:#1a6497;"/>
    <path clip-path="url(#pade37fdb4a)" d="M 233.006817 307.753724 
L 234.567864 309.965913 
L 243.227719 306.009468 
L 241.622839 303.929922 
L 233.006817 307.753724 
z
" style="fill:#1f76b3;"/>
    <path clip-path="url(#pade37fdb4a)" d="M 268.44375 211.086357 
L 270.216682 210.23667 
L 279.077116 195.441641 
L 277.235629 197.0037 
L 268.44375 211.086357 
z
" style="fill:#1e73ad;"/>
    <path clip-path="url(#pade37fdb4a)" d="M 277.235629 197.0037 
L 279.077116 195.441641 
L 287.451054 208.113185 
L 285.580506 209.000832 
L 277.235629 197.0037 
z
" style="fill:#12466b;"/>
    <path clip-path="url(#pade37fdb4a)" d="M 198.097369 219.833481 
L 199.464308 219.380671 
L 207.979184 193.393683 
L 206.560916 195.174641 
L 198.097369 219.833481 
z
" style="fill:#1d70a9;"/>
    <path clip-path="url(#pade37fdb4a)" d="M 238.463365 299.147862 
L 240.034926 301.641886 
L 249.291457 209.204133 
L 247.601081 210.77328 
L 238.463365 299.147862 
z
" style="fill:#1c6ca3;"/>
    <path clip-path="url(#pade37fdb4a)" d="M 206.560916 195.174641 
L 207.979184 193.393683 
L 216.783191 220.14206 
L 215.3212 220.485559 
L 206.560916 195.174641 
z
" style="fill:#114061;"/>
    <path clip-path="url(#pade37fdb4a)" d="M 180.654657 209.430712 
L 181.920863 208.330724 
L 190.770642 218.514896 
L 189.452076 219.047197 
L 180.654657 209.430712 
z
" style="fill:#13486d;"/>
    <path clip-path="url(#pade37fdb4a)" d="M 163.43454 218.939098 
L 164.605599 218.291708 
L 173.352403 218.807819 
L 172.131539 219.393948 
L 163.43454 218.939098 
z
" style="fill:#1a669a;"/>
    <path clip-path="url(#pade37fdb4a)" d="M 219.755732 218.724065 
L 221.267558 217.640671 
L 229.93138 302.710745 
L 228.41584 299.884668 
L 219.755732 218.724065 
z
" style="fill:#103c5a;"/>
    <path clip-path="url(#pade37fdb4a)" d="M 172.131539 219.393948 
L 173.352403 218.807819 
L 181.920863 208.330724 
L 180.654657 209.430712 
L 172.131539 219.393948 
z
" style="fill:#1e74b0;"/>
    <path clip-path="url(#pade37fdb4a)" d="M 287.451054 208.113185 
L 289.348409 206.975665 
L 297.949314 208.023498 
L 296.005688 209.076543 
L 287.451054 208.113185 
z
" style="fill:#1a6497;"/>
    <path clip-path="url(#pade37fdb4a)" d="M 296.005688 209.076543 
L 297.949314 208.023498 
L 306.875283 195.889087 
L 304.86109 197.49916 
L 296.005688 209.076543 
z
" style="fill:#1e74af;"/>
    <path clip-path="url(#pade37fdb4a)" d="M 304.86109 197.49916 
L 306.875283 195.889087 
L 315.286048 203.164332 
L 313.237786 204.384572 
L 304.86109 197.49916 
z
" style="fill:#144e76;"/>
    <path clip-path="url(#pade37fdb4a)" d="M 242.659487 213.945142 
L 244.285868 213.13896 
L 253.158963 187.531146 
L 251.459826 189.599154 
L 242.659487 213.945142 
z
" style="fill:#1d70a9;"/>
    <path clip-path="url(#pade37fdb4a)" d="M 251.459826 189.599154 
L 253.158963 187.531146 
L 261.530303 215.838712 
L 259.811329 216.441849 
L 251.459826 189.599154 
z
" style="fill:#114061;"/>
    <path clip-path="url(#pade37fdb4a)" d="M 261.530303 215.838712 
L 263.272007 214.989462 
L 272.013925 209.137287 
L 270.216682 210.23667 
L 261.530303 215.838712 
z
" style="fill:#1f76b3;"/>
    <path clip-path="url(#pade37fdb4a)" d="M 146.103885 222.67966 
L 147.178655 222.166842 
L 155.684285 211.064054 
L 154.569305 212.124433 
L 146.103885 222.67966 
z
" style="fill:#1e74af;"/>
    <path clip-path="url(#pade37fdb4a)" d="M 234.567864 309.965913 
L 236.14526 311.96852 
L 244.850199 307.877872 
L 243.227719 306.009468 
L 234.567864 309.965913 
z
" style="fill:#1f76b3;"/>
    <path clip-path="url(#pade37fdb4a)" d="M 154.569305 212.124433 
L 155.684285 211.064054 
L 164.605599 218.291708 
L 163.43454 218.939098 
L 154.569305 212.124433 
z
" style="fill:#144d75;"/>
    <path clip-path="url(#pade37fdb4a)" d="M 190.770642 218.514896 
L 192.101714 217.737265 
L 200.844909 218.683785 
L 199.464308 219.380671 
L 190.770642 218.514896 
z
" style="fill:#1a6497;"/>
    <path clip-path="url(#pade37fdb4a)" d="M 270.216682 210.23667 
L 272.013925 209.137287 
L 280.945279 193.618654 
L 279.077116 195.441641 
L 270.216682 210.23667 
z
" style="fill:#1e73ad;"/>
    <path clip-path="url(#pade37fdb4a)" d="M 279.077116 195.441641 
L 280.945279 193.618654 
L 289.348409 206.975665 
L 287.451054 208.113185 
L 279.077116 195.441641 
z
" style="fill:#12466a;"/>
    <path clip-path="url(#pade37fdb4a)" d="M 240.034926 301.641886 
L 241.622839 303.929922 
L 251.00476 207.370611 
L 249.291457 209.204133 
L 240.034926 301.641886 
z
" style="fill:#1c6ca3;"/>
    <path clip-path="url(#pade37fdb4a)" d="M 199.464308 219.380671 
L 200.844909 218.683785 
L 209.413592 191.347792 
L 207.979184 193.393683 
L 199.464308 219.380671 
z
" style="fill:#1d70a9;"/>
    <path clip-path="url(#pade37fdb4a)" d="M 221.267558 217.640671 
L 222.797308 216.301371 
L 231.461518 305.334526 
L 229.93138 302.710745 
L 221.267558 217.640671 
z
" style="fill:#103c5a;"/>
    <path clip-path="url(#pade37fdb4a)" d="M 207.979184 193.393683 
L 209.413592 191.347792 
L 218.26116 219.556342 
L 216.783191 220.14206 
L 207.979184 193.393683 
z
" style="fill:#114061;"/>
    <path clip-path="url(#pade37fdb4a)" d="M 164.605599 218.291708 
L 165.785519 217.397071 
L 174.583338 217.975412 
L 173.352403 218.807819 
L 164.605599 218.291708 
z
" style="fill:#1a669a;"/>
    <path clip-path="url(#pade37fdb4a)" d="M 181.920863 208.330724 
L 183.198748 206.976528 
L 192.101714 217.737265 
L 190.770642 218.514896 
L 181.920863 208.330724 
z
" style="fill:#13486d;"/>
    <path clip-path="url(#pade37fdb4a)" d="M 173.352403 218.807819 
L 174.583338 217.975412 
L 183.198748 206.976528 
L 181.920863 208.330724 
L 173.352403 218.807819 
z
" style="fill:#1e74b0;"/>
    <path clip-path="url(#pade37fdb4a)" d="M 289.348409 206.975665 
L 291.2735 205.58354 
L 299.921767 206.717439 
L 297.949314 208.023498 
L 289.348409 206.975665 
z
" style="fill:#1a6397;"/>
    <path clip-path="url(#pade37fdb4a)" d="M 297.949314 208.023498 
L 299.921767 206.717439 
L 308.920582 194.017134 
L 306.875283 195.889087 
L 297.949314 208.023498 
z
" style="fill:#1e74af;"/>
    <path clip-path="url(#pade37fdb4a)" d="M 244.285868 213.13896 
L 245.932813 212.083242 
L 254.881629 185.193135 
L 253.158963 187.531146 
L 244.285868 213.13896 
z
" style="fill:#1d70a9;"/>
    <path clip-path="url(#pade37fdb4a)" d="M 306.875283 195.889087 
L 308.920582 194.017134 
L 317.365916 201.689001 
L 315.286048 203.164332 
L 306.875283 195.889087 
z
" style="fill:#144e76;"/>
    <path clip-path="url(#pade37fdb4a)" d="M 147.178655 222.166842 
L 148.259722 221.408859 
L 156.80707 209.749952 
L 155.684285 211.064054 
L 147.178655 222.166842 
z
" style="fill:#1e74af;"/>
    <path clip-path="url(#pade37fdb4a)" d="M 253.158963 187.531146 
L 254.881629 185.193135 
L 263.272007 214.989462 
L 261.530303 215.838712 
L 253.158963 187.531146 
z
" style="fill:#114061;"/>
    <path clip-path="url(#pade37fdb4a)" d="M 263.272007 214.989462 
L 265.037255 213.889561 
L 273.836339 207.783491 
L 272.013925 209.137287 
L 263.272007 214.989462 
z
" style="fill:#1f76b3;"/>
    <path clip-path="url(#pade37fdb4a)" d="M 155.684285 211.064054 
L 156.80707 209.749952 
L 165.785519 217.397071 
L 164.605599 218.291708 
L 155.684285 211.064054 
z
" style="fill:#144d74;"/>
    <path clip-path="url(#pade37fdb4a)" d="M 192.101714 217.737265 
L 193.445825 216.709805 
L 202.239738 217.73839 
L 200.844909 218.683785 
L 192.101714 217.737265 
z
" style="fill:#1a6497;"/>
    <path clip-path="url(#pade37fdb4a)" d="M 272.013925 209.137287 
L 273.836339 207.783491 
L 282.841056 191.529465 
L 280.945279 193.618654 
L 272.013925 209.137287 
z
" style="fill:#1e73ad;"/>
    <path clip-path="url(#pade37fdb4a)" d="M 241.622839 303.929922 
L 243.227719 306.009468 
L 252.741838 205.267268 
L 251.00476 207.370611 
L 241.622839 303.929922 
z
" style="fill:#1c6ca3;"/>
    <path clip-path="url(#pade37fdb4a)" d="M 280.945279 193.618654 
L 282.841056 191.529465 
L 291.2735 205.58354 
L 289.348409 206.975665 
L 280.945279 193.618654 
z
" style="fill:#12466a;"/>
    <path clip-path="url(#pade37fdb4a)" d="M 200.844909 218.683785 
L 202.239738 217.73839 
L 210.864787 189.031496 
L 209.413592 191.347792 
L 200.844909 218.683785 
z
" style="fill:#1d70a9;"/>
    <path clip-path="url(#pade37fdb4a)" d="M 222.797308 216.301371 
L 224.345682 214.70114 
L 233.006817 307.753724 
L 231.461518 305.334526 
L 222.797308 216.301371 
z
" style="fill:#103c5a;"/>
    <path clip-path="url(#pade37fdb4a)" d="M 165.785519 217.397071 
L 166.974738 216.250584 
L 175.824815 216.892176 
L 174.583338 217.975412 
L 165.785519 217.397071 
z
" style="fill:#1a669a;"/>
    <path clip-path="url(#pade37fdb4a)" d="M 209.413592 191.347792 
L 210.864787 189.031496 
L 219.755732 218.724065 
L 218.26116 219.556342 
L 209.413592 191.347792 
z
" style="fill:#114061;"/>
    <path clip-path="url(#pade37fdb4a)" d="M 183.198748 206.976528 
L 184.488829 205.363178 
L 193.445825 216.709805 
L 192.101714 217.737265 
L 183.198748 206.976528 
z
" style="fill:#13486d;"/>
    <path clip-path="url(#pade37fdb4a)" d="M 174.583338 217.975412 
L 175.824815 216.892176 
L 184.488829 205.363178 
L 183.198748 206.976528 
L 174.583338 217.975412 
z
" style="fill:#1e74b0;"/>
    <path clip-path="url(#pade37fdb4a)" d="M 291.2735 205.58354 
L 293.227288 203.931845 
L 301.924037 205.153477 
L 299.921767 206.717439 
L 291.2735 205.58354 
z
" style="fill:#1a6396;"/>
    <path clip-path="url(#pade37fdb4a)" d="M 299.921767 206.717439 
L 301.924037 205.153477 
L 310.998055 191.877971 
L 308.920582 194.017134 
L 299.921767 206.717439 
z
" style="fill:#1e74af;"/>
    <path clip-path="url(#pade37fdb4a)" d="M 245.932813 212.083242 
L 247.601081 210.77328 
L 256.628687 182.579403 
L 254.881629 185.193135 
L 245.932813 212.083242 
z
" style="fill:#1d70a9;"/>
    <path clip-path="url(#pade37fdb4a)" d="M 308.920582 194.017134 
L 310.998055 191.877971 
L 319.47846 199.953576 
L 317.365916 201.689001 
L 308.920582 194.017134 
z
" style="fill:#144e76;"/>
    <path clip-path="url(#pade37fdb4a)" d="M 148.259722 221.408859 
L 149.347453 220.401201 
L 157.938068 208.177199 
L 156.80707 209.749952 
L 148.259722 221.408859 
z
" style="fill:#1e74af;"/>
    <path clip-path="url(#pade37fdb4a)" d="M 265.037255 213.889561 
L 266.82689 212.534243 
L 275.684816 206.170329 
L 273.836339 207.783491 
L 265.037255 213.889561 
z
" style="fill:#1f76b3;"/>
    <path clip-path="url(#pade37fdb4a)" d="M 254.881629 185.193135 
L 256.628687 182.579403 
L 265.037255 213.889561 
L 263.272007 214.989462 
L 254.881629 185.193135 
z
" style="fill:#114061;"/>
    <path clip-path="url(#pade37fdb4a)" d="M 156.80707 209.749952 
L 157.938068 208.177199 
L 166.974738 216.250584 
L 165.785519 217.397071 
L 156.80707 209.749952 
z
" style="fill:#144d74;"/>
    <path clip-path="url(#pade37fdb4a)" d="M 193.445825 216.709805 
L 194.803531 215.427791 
L 203.64938 216.53983 
L 202.239738 217.73839 
L 193.445825 216.709805 
z
" style="fill:#1a6396;"/>
    <path clip-path="url(#pade37fdb4a)" d="M 243.227719 306.009468 
L 244.850199 307.877872 
L 254.503571 202.888389 
L 252.741838 205.267268 
L 243.227719 306.009468 
z
" style="fill:#1c6ca3;"/>
    <path clip-path="url(#pade37fdb4a)" d="M 273.836339 207.783491 
L 275.684816 206.170329 
L 284.765423 189.168539 
L 282.841056 191.529465 
L 273.836339 207.783491 
z
" style="fill:#1e73ad;"/>
    <path clip-path="url(#pade37fdb4a)" d="M 224.345682 214.70114 
L 225.913402 212.834698 
L 234.567864 309.965913 
L 233.006817 307.753724 
L 224.345682 214.70114 
z
" style="fill:#103c5a;"/>
    <path clip-path="url(#pade37fdb4a)" d="M 282.841056 191.529465 
L 284.765423 189.168539 
L 293.227288 203.931845 
L 291.2735 205.58354 
L 282.841056 191.529465 
z
" style="fill:#12466a;"/>
    <path clip-path="url(#pade37fdb4a)" d="M 202.239738 217.73839 
L 203.64938 216.53983 
L 212.333439 186.439055 
L 210.864787 189.031496 
L 202.239738 217.73839 
z
" style="fill:#1d70a9;"/>
    <path clip-path="url(#pade37fdb4a)" d="M 166.974738 216.250584 
L 168.173708 214.847415 
L 177.077319 215.553332 
L 175.824815 216.892176 
L 166.974738 216.250584 
z
" style="fill:#1a669a;"/>
    <path clip-path="url(#pade37fdb4a)" d="M 184.488829 205.363178 
L 185.791642 203.485488 
L 194.803531 215.427791 
L 193.445825 216.709805 
L 184.488829 205.363178 
z
" style="fill:#13486d;"/>
    <path clip-path="url(#pade37fdb4a)" d="M 210.864787 189.031496 
L 212.333439 186.439055 
L 221.267558 217.640671 
L 219.755732 218.724065 
L 210.864787 189.031496 
z
" style="fill:#114061;"/>
    <path clip-path="url(#pade37fdb4a)" d="M 175.824815 216.892176 
L 177.077319 215.553332 
L 185.791642 203.485488 
L 184.488829 205.363178 
L 175.824815 216.892176 
z
" style="fill:#1e74b0;"/>
    <path clip-path="url(#pade37fdb4a)" d="M 293.227288 203.931845 
L 295.210774 202.015366 
L 303.957154 203.326478 
L 301.924037 205.153477 
L 293.227288 203.931845 
z
" style="fill:#1a6396;"/>
    <path clip-path="url(#pade37fdb4a)" d="M 301.924037 205.153477 
L 303.957154 203.326478 
L 313.108811 189.466009 
L 310.998055 191.877971 
L 301.924037 205.153477 
z
" style="fill:#1e74af;"/>
    <path clip-path="url(#pade37fdb4a)" d="M 149.347453 220.401201 
L 150.442227 219.139136 
L 159.077704 206.340622 
L 157.938068 208.177199 
L 149.347453 220.401201 
z
" style="fill:#1e74af;"/>
    <path clip-path="url(#pade37fdb4a)" d="M 247.601081 210.77328 
L 249.291457 209.204133 
L 258.401032 179.68395 
L 256.628687 182.579403 
L 247.601081 210.77328 
z
" style="fill:#1d70a9;"/>
    <path clip-path="url(#pade37fdb4a)" d="M 310.998055 191.877971 
L 313.108811 189.466009 
L 321.624792 197.95281 
L 319.47846 199.953576 
L 310.998055 191.877971 
z
" style="fill:#144e76;"/>
    <path clip-path="url(#pade37fdb4a)" d="M 266.82689 212.534243 
L 268.641787 210.918507 
L 277.560283 204.292601 
L 275.684816 206.170329 
L 266.82689 212.534243 
z
" style="fill:#1f76b3;"/>
    <path clip-path="url(#pade37fdb4a)" d="M 157.938068 208.177199 
L 159.077704 206.340622 
L 168.173708 214.847415 
L 166.974738 216.250584 
L 157.938068 208.177199 
z
" style="fill:#144d74;"/>
    <path clip-path="url(#pade37fdb4a)" d="M 256.628687 182.579403 
L 258.401032 179.68395 
L 266.82689 212.534243 
L 265.037255 213.889561 
L 256.628687 182.579403 
z
" style="fill:#114061;"/>
    <path clip-path="url(#pade37fdb4a)" d="M 194.803531 215.427791 
L 196.175406 213.886263 
L 205.074444 215.083212 
L 203.64938 216.53983 
L 194.803531 215.427791 
z
" style="fill:#1a6396;"/>
    <path clip-path="url(#pade37fdb4a)" d="M 225.913402 212.834698 
L 227.501221 210.696503 
L 236.14526 311.96852 
L 234.567864 309.965913 
L 225.913402 212.834698 
z
" style="fill:#103c5a;"/>
    <path clip-path="url(#pade37fdb4a)" d="M 275.684816 206.170329 
L 277.560283 204.292601 
L 286.719397 186.530072 
L 284.765423 189.168539 
L 275.684816 206.170329 
z
" style="fill:#1e73ad;"/>
    <path clip-path="url(#pade37fdb4a)" d="M 284.765423 189.168539 
L 286.719397 186.530072 
L 295.210774 202.015366 
L 293.227288 203.931845 
L 284.765423 189.168539 
z
" style="fill:#12466a;"/>
    <path clip-path="url(#pade37fdb4a)" d="M 203.64938 216.53983 
L 205.074444 215.083212 
L 213.820244 183.564447 
L 212.333439 186.439055 
L 203.64938 216.53983 
z
" style="fill:#1d70a9;"/>
    <path clip-path="url(#pade37fdb4a)" d="M 168.173708 214.847415 
L 169.382897 213.182489 
L 178.341354 213.953862 
L 177.077319 215.553332 
L 168.173708 214.847415 
z
" style="fill:#1a669a;"/>
    <path clip-path="url(#pade37fdb4a)" d="M 185.791642 203.485488 
L 187.107741 201.338009 
L 196.175406 213.886263 
L 194.803531 215.427791 
L 185.791642 203.485488 
z
" style="fill:#13486d;"/>
    <path clip-path="url(#pade37fdb4a)" d="M 212.333439 186.439055 
L 213.820244 183.564447 
L 222.797308 216.301371 
L 221.267558 217.640671 
L 212.333439 186.439055 
z
" style="fill:#114061;"/>
    <path clip-path="url(#pade37fdb4a)" d="M 177.077319 215.553332 
L 178.341354 213.953862 
L 187.107741 201.338009 
L 185.791642 203.485488 
L 177.077319 215.553332 
z
" style="fill:#1e74b0;"/>
    <path clip-path="url(#pade37fdb4a)" d="M 295.210774 202.015366 
L 297.224999 199.828635 
L 306.022185 201.231056 
L 303.957154 203.326478 
L 295.210774 202.015366 
z
" style="fill:#1a6396;"/>
    <path clip-path="url(#pade37fdb4a)" d="M 303.957154 203.326478 
L 306.022185 201.231056 
L 315.254004 186.775381 
L 313.108811 189.466009 
L 303.957154 203.326478 
z
" style="fill:#1e74af;"/>
    <path clip-path="url(#pade37fdb4a)" d="M 150.442227 219.139136 
L 151.544437 217.617692 
L 160.226415 204.234791 
L 159.077704 206.340622 
L 150.442227 219.139136 
z
" style="fill:#1e74af;"/>
    <path clip-path="url(#pade37fdb4a)" d="M 249.291457 209.204133 
L 251.00476 207.370611 
L 260.199596 176.500483 
L 258.401032 179.68395 
L 249.291457 209.204133 
z
" style="fill:#1d70a9;"/>
    <path clip-path="url(#pade37fdb4a)" d="M 268.641787 210.918507 
L 270.482856 209.037099 
L 279.463704 202.144851 
L 277.560283 204.292601 
L 268.641787 210.918507 
z
" style="fill:#1f76b3;"/>
    <path clip-path="url(#pade37fdb4a)" d="M 313.108811 189.466009 
L 315.254004 186.775381 
L 323.806067 195.681194 
L 321.624792 197.95281 
L 313.108811 189.466009 
z
" style="fill:#144e76;"/>
    <path clip-path="url(#pade37fdb4a)" d="M 159.077704 206.340622 
L 160.226415 204.234791 
L 169.382897 213.182489 
L 168.173708 214.847415 
L 159.077704 206.340622 
z
" style="fill:#144d74;"/>
    <path clip-path="url(#pade37fdb4a)" d="M 196.175406 213.886263 
L 197.562044 212.080009 
L 206.515557 213.363404 
L 205.074444 215.083212 
L 196.175406 213.886263 
z
" style="fill:#1a6396;"/>
    <path clip-path="url(#pade37fdb4a)" d="M 258.401032 179.68395 
L 260.199596 176.500483 
L 268.641787 210.918507 
L 266.82689 212.534243 
L 258.401032 179.68395 
z
" style="fill:#114060;"/>
    <path clip-path="url(#pade37fdb4a)" d="M 277.560283 204.292601 
L 279.463704 202.144851 
L 288.704031 183.607971 
L 286.719397 186.530072 
L 277.560283 204.292601 
z
" style="fill:#1e73ad;"/>
    <path clip-path="url(#pade37fdb4a)" d="M 286.719397 186.530072 
L 288.704031 183.607971 
L 297.224999 199.828635 
L 295.210774 202.015366 
L 286.719397 186.530072 
z
" style="fill:#12466a;"/>
    <path clip-path="url(#pade37fdb4a)" d="M 205.074444 215.083212 
L 206.515557 213.363404 
L 215.325927 180.401351 
L 213.820244 183.564447 
L 205.074444 215.083212 
z
" style="fill:#1d70a9;"/>
    <path clip-path="url(#pade37fdb4a)" d="M 169.382897 213.182489 
L 170.602791 211.250479 
L 179.617442 212.088497 
L 178.341354 213.953862 
L 169.382897 213.182489 
z
" style="fill:#1a669a;"/>
    <path clip-path="url(#pade37fdb4a)" d="M 187.107741 201.338009 
L 188.437701 198.915027 
L 197.562044 212.080009 
L 196.175406 213.886263 
L 187.107741 201.338009 
z
" style="fill:#13486d;"/>
    <path clip-path="url(#pade37fdb4a)" d="M 178.341354 213.953862 
L 179.617442 212.088497 
L 188.437701 198.915027 
L 187.107741 201.338009 
L 178.341354 213.953862 
z
" style="fill:#1e74b0;"/>
    <path clip-path="url(#pade37fdb4a)" d="M 213.820244 183.564447 
L 215.325927 180.401351 
L 224.345682 214.70114 
L 222.797308 216.301371 
L 213.820244 183.564447 
z
" style="fill:#114061;"/>
    <path clip-path="url(#pade37fdb4a)" d="M 297.224999 199.828635 
L 299.271042 197.365908 
L 308.120243 198.861555 
L 306.022185 201.231056 
L 297.224999 199.828635 
z
" style="fill:#1a6396;"/>
    <path clip-path="url(#pade37fdb4a)" d="M 306.022185 201.231056 
L 308.120243 198.861555 
L 317.434835 183.799933 
L 315.254004 186.775381 
L 306.022185 201.231056 
z
" style="fill:#1e74af;"/>
    <path clip-path="url(#pade37fdb4a)" d="M 151.544437 217.617692 
L 152.654489 215.831648 
L 161.384656 201.854006 
L 160.226415 204.234791 
L 151.544437 217.617692 
z
" style="fill:#1e74af;"/>
    <path clip-path="url(#pade37fdb4a)" d="M 270.482856 209.037099 
L 272.351042 206.884507 
L 281.396079 199.72135 
L 279.463704 202.144851 
L 270.482856 209.037099 
z
" style="fill:#1f76b2;"/>
    <path clip-path="url(#pade37fdb4a)" d="M 251.00476 207.370611 
L 252.741838 205.267268 
L 262.025349 173.022399 
L 260.199596 176.500483 
L 251.00476 207.370611 
z
" style="fill:#1d70a9;"/>
    <path clip-path="url(#pade37fdb4a)" d="M 160.226415 204.234791 
L 161.384656 201.854006 
L 170.602791 211.250479 
L 169.382897 213.182489 
L 160.226415 204.234791 
z
" style="fill:#144d74;"/>
    <path clip-path="url(#pade37fdb4a)" d="M 197.562044 212.080009 
L 198.964064 210.003562 
L 207.973374 211.375012 
L 206.515557 213.363404 
L 197.562044 212.080009 
z
" style="fill:#1a6396;"/>
    <path clip-path="url(#pade37fdb4a)" d="M 315.254004 186.775381 
L 317.434835 183.799933 
L 326.023487 193.132949 
L 323.806067 195.681194 
L 315.254004 186.775381 
z
" style="fill:#144e76;"/>
    <path clip-path="url(#pade37fdb4a)" d="M 260.199596 176.500483 
L 262.025349 173.022399 
L 270.482856 209.037099 
L 268.641787 210.918507 
L 260.199596 176.500483 
z
" style="fill:#114060;"/>
    <path clip-path="url(#pade37fdb4a)" d="M 279.463704 202.144851 
L 281.396079 199.72135 
L 290.720424 180.395844 
L 288.704031 183.607971 
L 279.463704 202.144851 
z
" style="fill:#1e73ad;"/>
    <path clip-path="url(#pade37fdb4a)" d="M 288.704031 183.607971 
L 290.720424 180.395844 
L 299.271042 197.365908 
L 297.224999 199.828635 
L 288.704031 183.607971 
z
" style="fill:#12466a;"/>
    <path clip-path="url(#pade37fdb4a)" d="M 206.515557 213.363404 
L 207.973374 211.375012 
L 216.851239 176.943137 
L 215.325927 180.401351 
L 206.515557 213.363404 
z
" style="fill:#1d70a9;"/>
    <path clip-path="url(#pade37fdb4a)" d="M 170.602791 211.250479 
L 171.833891 209.04579 
L 180.906124 209.951705 
L 179.617442 212.088497 
L 170.602791 211.250479 
z
" style="fill:#1a659a;"/>
    <path clip-path="url(#pade37fdb4a)" d="M 188.437701 198.915027 
L 189.782119 196.210542 
L 198.964064 210.003562 
L 197.562044 212.080009 
L 188.437701 198.915027 
z
" style="fill:#13486d;"/>
    <path clip-path="url(#pade37fdb4a)" d="M 179.617442 212.088497 
L 180.906124 209.951705 
L 189.782119 196.210542 
L 188.437701 198.915027 
L 179.617442 212.088497 
z
" style="fill:#1e74b0;"/>
    <path clip-path="url(#pade37fdb4a)" d="M 215.325927 180.401351 
L 216.851239 176.943137 
L 225.913402 212.834698 
L 224.345682 214.70114 
L 215.325927 180.401351 
z
" style="fill:#114060;"/>
    <path clip-path="url(#pade37fdb4a)" d="M 152.654489 215.831648 
L 153.772802 213.775523 
L 162.552897 199.192286 
L 161.384656 201.854006 
L 152.654489 215.831648 
z
" style="fill:#1e74af;"/>
    <path clip-path="url(#pade37fdb4a)" d="M 161.384656 201.854006 
L 162.552897 199.192286 
L 171.833891 209.04579 
L 170.602791 211.250479 
L 161.384656 201.854006 
z
" style="fill:#144d74;"/>
    <path clip-path="url(#pade37fdb4a)" d="M 252.741838 205.267268 
L 254.503571 202.888389 
L 263.879301 169.24277 
L 262.025349 173.022399 
L 252.741838 205.267268 
z
" style="fill:#1d70a9;"/>
    <path clip-path="url(#pade37fdb4a)" d="M 198.964064 210.003562 
L 200.382106 207.65118 
L 209.448572 209.112378 
L 207.973374 211.375012 
L 198.964064 210.003562 
z
" style="fill:#1a6396;"/>
    <path clip-path="url(#pade37fdb4a)" d="M 262.025349 173.022399 
L 263.879301 169.24277 
L 272.351042 206.884507 
L 270.482856 209.037099 
L 262.025349 173.022399 
z
" style="fill:#114060;"/>
    <path clip-path="url(#pade37fdb4a)" d="M 207.973374 211.375012 
L 209.448572 209.112378 
L 218.396963 173.182847 
L 216.851239 176.943137 
L 207.973374 211.375012 
z
" style="fill:#1d70a9;"/>
    <path clip-path="url(#pade37fdb4a)" d="M 171.833891 209.04579 
L 173.076719 206.562553 
L 182.20796 207.537681 
L 180.906124 209.951705 
L 171.833891 209.04579 
z
" style="fill:#1a6599;"/>
    <path clip-path="url(#pade37fdb4a)" d="M 189.782119 196.210542 
L 191.141616 193.218257 
L 200.382106 207.65118 
L 198.964064 210.003562 
L 189.782119 196.210542 
z
" style="fill:#13486d;"/>
    <path clip-path="url(#pade37fdb4a)" d="M 180.906124 209.951705 
L 182.20796 207.537681 
L 191.141616 193.218257 
L 189.782119 196.210542 
L 180.906124 209.951705 
z
" style="fill:#1e74b0;"/>
    <path clip-path="url(#pade37fdb4a)" d="M 216.851239 176.943137 
L 218.396963 173.182847 
L 227.501221 210.696503 
L 225.913402 212.834698 
L 216.851239 176.943137 
z
" style="fill:#114060;"/>
    <path clip-path="url(#pade37fdb4a)" d="M 153.772802 213.775523 
L 154.89981 211.443564 
L 163.731626 196.243351 
L 162.552897 199.192286 
L 153.772802 213.775523 
z
" style="fill:#1e74af;"/>
    <path clip-path="url(#pade37fdb4a)" d="M 162.552897 199.192286 
L 163.731626 196.243351 
L 173.076719 206.562553 
L 171.833891 209.04579 
L 162.552897 199.192286 
z
" style="fill:#144d74;"/>
   </g>
  </g>
 </g>
 <defs>
  <clipPath id="pade37fdb4a">
   <rect height="326.16" width="334.8" x="54" y="51.84"/>
  </clipPath>
 </defs>
</svg>
