<?xml version="1.0" encoding="utf-8" standalone="no"?>
<!DOCTYPE svg PUBLIC "-//W3C//DTD SVG 1.1//EN"
  "http://www.w3.org/Graphics/SVG/1.1/DTD/svg11.dtd">
<!-- Created with matplotlib (http://matplotlib.org/) -->
<svg height="432pt" version="1.1" viewBox="0 0 432 432" width="432pt" xmlns="http://www.w3.org/2000/svg" xmlns:xlink="http://www.w3.org/1999/xlink">
 <defs>
  <style type="text/css">
*{stroke-linecap:butt;stroke-linejoin:round;}
  </style>
 </defs>
 <g id="figure_1">
  <g id="patch_1">
   <path d="M 0 432 
L 432 432 
L 432 0 
L 0 0 
z
" style="fill:#ffffff;"/>
  </g>
  <g id="patch_2">
   <path d="M 54 378 
L 388.8 378 
L 388.8 51.84 
L 54 51.84 
z
" style="fill:#ffffff;"/>
  </g>
  <g id="pane3d_1">
   <g id="patch_3">
    <path d="M 98.382914 305.930135 
L 194.204425 225.963093 
L 192.609099 73.159201 
L 91.44491 145.007943 
" style="fill:#f2f2f2;opacity:0.5;stroke:#f2f2f2;stroke-linejoin:miter;"/>
   </g>
  </g>
  <g id="pane3d_2">
   <g id="patch_4">
    <path d="M 194.204425 225.963093 
L 349.426265 270.66983 
L 355.920561 113.258198 
L 192.609099 73.159201 
" style="fill:#e6e6e6;opacity:0.5;stroke:#e6e6e6;stroke-linejoin:miter;"/>
   </g>
  </g>
  <g id="pane3d_3">
   <g id="patch_5">
    <path d="M 98.382914 305.930135 
L 261.697263 357.998414 
L 349.426265 270.66983 
L 194.204425 225.963093 
" style="fill:#ececec;opacity:0.5;stroke:#ececec;stroke-linejoin:miter;"/>
   </g>
  </g>
  <g id="axis3d_1">
   <g id="line2d_1">
    <path d="M 98.382914 305.930135 
L 261.697263 357.998414 
" style="fill:none;stroke:#000000;stroke-linecap:square;stroke-width:0.8;"/>
   </g>
   <g id="text_1">
    <!-- amp -->
    <defs>
     <path d="M 34.28125 27.484375 
Q 23.390625 27.484375 19.1875 25 
Q 14.984375 22.515625 14.984375 16.5 
Q 14.984375 11.71875 18.140625 8.90625 
Q 21.296875 6.109375 26.703125 6.109375 
Q 34.1875 6.109375 38.703125 11.40625 
Q 43.21875 16.703125 43.21875 25.484375 
L 43.21875 27.484375 
z
M 52.203125 31.203125 
L 52.203125 0 
L 43.21875 0 
L 43.21875 8.296875 
Q 40.140625 3.328125 35.546875 0.953125 
Q 30.953125 -1.421875 24.3125 -1.421875 
Q 15.921875 -1.421875 10.953125 3.296875 
Q 6 8.015625 6 15.921875 
Q 6 25.140625 12.171875 29.828125 
Q 18.359375 34.515625 30.609375 34.515625 
L 43.21875 34.515625 
L 43.21875 35.40625 
Q 43.21875 41.609375 39.140625 45 
Q 35.0625 48.390625 27.6875 48.390625 
Q 23 48.390625 18.546875 47.265625 
Q 14.109375 46.140625 10.015625 43.890625 
L 10.015625 52.203125 
Q 14.9375 54.109375 19.578125 55.046875 
Q 24.21875 56 28.609375 56 
Q 40.484375 56 46.34375 49.84375 
Q 52.203125 43.703125 52.203125 31.203125 
z
" id="DejaVuSans-61"/>
     <path d="M 52 44.1875 
Q 55.375 50.25 60.0625 53.125 
Q 64.75 56 71.09375 56 
Q 79.640625 56 84.28125 50.015625 
Q 88.921875 44.046875 88.921875 33.015625 
L 88.921875 0 
L 79.890625 0 
L 79.890625 32.71875 
Q 79.890625 40.578125 77.09375 44.375 
Q 74.3125 48.1875 68.609375 48.1875 
Q 61.625 48.1875 57.5625 43.546875 
Q 53.515625 38.921875 53.515625 30.90625 
L 53.515625 0 
L 44.484375 0 
L 44.484375 32.71875 
Q 44.484375 40.625 41.703125 44.40625 
Q 38.921875 48.1875 33.109375 48.1875 
Q 26.21875 48.1875 22.15625 43.53125 
Q 18.109375 38.875 18.109375 30.90625 
L 18.109375 0 
L 9.078125 0 
L 9.078125 54.6875 
L 18.109375 54.6875 
L 18.109375 46.1875 
Q 21.1875 51.21875 25.484375 53.609375 
Q 29.78125 56 35.6875 56 
Q 41.65625 56 45.828125 52.96875 
Q 50 49.953125 52 44.1875 
z
" id="DejaVuSans-6d"/>
     <path d="M 18.109375 8.203125 
L 18.109375 -20.796875 
L 9.078125 -20.796875 
L 9.078125 54.6875 
L 18.109375 54.6875 
L 18.109375 46.390625 
Q 20.953125 51.265625 25.265625 53.625 
Q 29.59375 56 35.59375 56 
Q 45.5625 56 51.78125 48.09375 
Q 58.015625 40.1875 58.015625 27.296875 
Q 58.015625 14.40625 51.78125 6.484375 
Q 45.5625 -1.421875 35.59375 -1.421875 
Q 29.59375 -1.421875 25.265625 0.953125 
Q 20.953125 3.328125 18.109375 8.203125 
z
M 48.6875 27.296875 
Q 48.6875 37.203125 44.609375 42.84375 
Q 40.53125 48.484375 33.40625 48.484375 
Q 26.265625 48.484375 22.1875 42.84375 
Q 18.109375 37.203125 18.109375 27.296875 
Q 18.109375 17.390625 22.1875 11.75 
Q 26.265625 6.109375 33.40625 6.109375 
Q 40.53125 6.109375 44.609375 11.75 
Q 48.6875 17.390625 48.6875 27.296875 
z
" id="DejaVuSans-70"/>
    </defs>
    <g transform="translate(152.957779 369.836081)scale(0.1 -0.1)">
     <use xlink:href="#DejaVuSans-61"/>
     <use x="61.279297" xlink:href="#DejaVuSans-6d"/>
     <use x="158.691406" xlink:href="#DejaVuSans-70"/>
    </g>
   </g>
   <g id="Line3DCollection_1">
    <path d="M 122.087205 313.487594 
L 216.798796 232.470686 
L 216.336798 78.985228 
" style="fill:none;stroke:#b0b0b0;stroke-width:0.8;"/>
    <path d="M 149.908774 322.357735 
L 243.289583 240.100519 
L 244.175513 85.820661 
" style="fill:none;stroke:#b0b0b0;stroke-width:0.8;"/>
    <path d="M 178.1742 331.369387 
L 270.171995 247.843146 
L 272.446939 92.76234 
" style="fill:none;stroke:#b0b0b0;stroke-width:0.8;"/>
    <path d="M 206.894187 340.525964 
L 297.454781 255.701089 
L 301.161246 99.812763 
" style="fill:none;stroke:#b0b0b0;stroke-width:0.8;"/>
    <path d="M 236.079792 349.830989 
L 325.146954 263.676942 
L 330.32892 106.974505 
" style="fill:none;stroke:#b0b0b0;stroke-width:0.8;"/>
   </g>
   <g id="xtick_1">
    <g id="line2d_2">
     <path d="M 122.903422 312.789396 
L 120.451713 314.886605 
" style="fill:none;stroke:#000000;stroke-linecap:square;stroke-width:0.8;"/>
    </g>
    <g id="text_2">
     <!-- 0.6 -->
     <defs>
      <path d="M 31.78125 66.40625 
Q 24.171875 66.40625 20.328125 58.90625 
Q 16.5 51.421875 16.5 36.375 
Q 16.5 21.390625 20.328125 13.890625 
Q 24.171875 6.390625 31.78125 6.390625 
Q 39.453125 6.390625 43.28125 13.890625 
Q 47.125 21.390625 47.125 36.375 
Q 47.125 51.421875 43.28125 58.90625 
Q 39.453125 66.40625 31.78125 66.40625 
z
M 31.78125 74.21875 
Q 44.046875 74.21875 50.515625 64.515625 
Q 56.984375 54.828125 56.984375 36.375 
Q 56.984375 17.96875 50.515625 8.265625 
Q 44.046875 -1.421875 31.78125 -1.421875 
Q 19.53125 -1.421875 13.0625 8.265625 
Q 6.59375 17.96875 6.59375 36.375 
Q 6.59375 54.828125 13.0625 64.515625 
Q 19.53125 74.21875 31.78125 74.21875 
z
" id="DejaVuSans-30"/>
      <path d="M 10.6875 12.40625 
L 21 12.40625 
L 21 0 
L 10.6875 0 
z
" id="DejaVuSans-2e"/>
      <path d="M 33.015625 40.375 
Q 26.375 40.375 22.484375 35.828125 
Q 18.609375 31.296875 18.609375 23.390625 
Q 18.609375 15.53125 22.484375 10.953125 
Q 26.375 6.390625 33.015625 6.390625 
Q 39.65625 6.390625 43.53125 10.953125 
Q 47.40625 15.53125 47.40625 23.390625 
Q 47.40625 31.296875 43.53125 35.828125 
Q 39.65625 40.375 33.015625 40.375 
z
M 52.59375 71.296875 
L 52.59375 62.3125 
Q 48.875 64.0625 45.09375 64.984375 
Q 41.3125 65.921875 37.59375 65.921875 
Q 27.828125 65.921875 22.671875 59.328125 
Q 17.53125 52.734375 16.796875 39.40625 
Q 19.671875 43.65625 24.015625 45.921875 
Q 28.375 48.1875 33.59375 48.1875 
Q 44.578125 48.1875 50.953125 41.515625 
Q 57.328125 34.859375 57.328125 23.390625 
Q 57.328125 12.15625 50.6875 5.359375 
Q 44.046875 -1.421875 33.015625 -1.421875 
Q 20.359375 -1.421875 13.671875 8.265625 
Q 6.984375 17.96875 6.984375 36.375 
Q 6.984375 53.65625 15.1875 63.9375 
Q 23.390625 74.21875 37.203125 74.21875 
Q 40.921875 74.21875 44.703125 73.484375 
Q 48.484375 72.75 52.59375 71.296875 
z
" id="DejaVuSans-36"/>
     </defs>
     <g transform="translate(107.663878 337.188424)scale(0.1 -0.1)">
      <use xlink:href="#DejaVuSans-30"/>
      <use x="63.623047" xlink:href="#DejaVuSans-2e"/>
      <use x="95.410156" xlink:href="#DejaVuSans-36"/>
     </g>
    </g>
   </g>
   <g id="xtick_2">
    <g id="line2d_3">
     <path d="M 150.71398 321.648446 
L 148.295324 323.77899 
" style="fill:none;stroke:#000000;stroke-linecap:square;stroke-width:0.8;"/>
    </g>
    <g id="text_3">
     <!-- 0.8 -->
     <defs>
      <path d="M 31.78125 34.625 
Q 24.75 34.625 20.71875 30.859375 
Q 16.703125 27.09375 16.703125 20.515625 
Q 16.703125 13.921875 20.71875 10.15625 
Q 24.75 6.390625 31.78125 6.390625 
Q 38.8125 6.390625 42.859375 10.171875 
Q 46.921875 13.96875 46.921875 20.515625 
Q 46.921875 27.09375 42.890625 30.859375 
Q 38.875 34.625 31.78125 34.625 
z
M 21.921875 38.8125 
Q 15.578125 40.375 12.03125 44.71875 
Q 8.5 49.078125 8.5 55.328125 
Q 8.5 64.0625 14.71875 69.140625 
Q 20.953125 74.21875 31.78125 74.21875 
Q 42.671875 74.21875 48.875 69.140625 
Q 55.078125 64.0625 55.078125 55.328125 
Q 55.078125 49.078125 51.53125 44.71875 
Q 48 40.375 41.703125 38.8125 
Q 48.828125 37.15625 52.796875 32.3125 
Q 56.78125 27.484375 56.78125 20.515625 
Q 56.78125 9.90625 50.3125 4.234375 
Q 43.84375 -1.421875 31.78125 -1.421875 
Q 19.734375 -1.421875 13.25 4.234375 
Q 6.78125 9.90625 6.78125 20.515625 
Q 6.78125 27.484375 10.78125 32.3125 
Q 14.796875 37.15625 21.921875 38.8125 
z
M 18.3125 54.390625 
Q 18.3125 48.734375 21.84375 45.5625 
Q 25.390625 42.390625 31.78125 42.390625 
Q 38.140625 42.390625 41.71875 45.5625 
Q 45.3125 48.734375 45.3125 54.390625 
Q 45.3125 60.0625 41.71875 63.234375 
Q 38.140625 66.40625 31.78125 66.40625 
Q 25.390625 66.40625 21.84375 63.234375 
Q 18.3125 60.0625 18.3125 54.390625 
z
" id="DejaVuSans-38"/>
     </defs>
     <g transform="translate(135.482885 346.201757)scale(0.1 -0.1)">
      <use xlink:href="#DejaVuSans-30"/>
      <use x="63.623047" xlink:href="#DejaVuSans-2e"/>
      <use x="95.410156" xlink:href="#DejaVuSans-38"/>
     </g>
    </g>
   </g>
   <g id="xtick_3">
    <g id="line2d_4">
     <path d="M 178.967936 330.648741 
L 176.583706 332.813421 
" style="fill:none;stroke:#000000;stroke-linecap:square;stroke-width:0.8;"/>
    </g>
    <g id="text_4">
     <!-- 1.0 -->
     <defs>
      <path d="M 12.40625 8.296875 
L 28.515625 8.296875 
L 28.515625 63.921875 
L 10.984375 60.40625 
L 10.984375 69.390625 
L 28.421875 72.90625 
L 38.28125 72.90625 
L 38.28125 8.296875 
L 54.390625 8.296875 
L 54.390625 0 
L 12.40625 0 
z
" id="DejaVuSans-31"/>
     </defs>
     <g transform="translate(163.74649 355.35914)scale(0.1 -0.1)">
      <use xlink:href="#DejaVuSans-31"/>
      <use x="63.623047" xlink:href="#DejaVuSans-2e"/>
      <use x="95.410156" xlink:href="#DejaVuSans-30"/>
     </g>
    </g>
   </g>
   <g id="xtick_4">
    <g id="line2d_5">
     <path d="M 207.675981 339.793685 
L 205.327601 341.993329 
" style="fill:none;stroke:#000000;stroke-linecap:square;stroke-width:0.8;"/>
    </g>
    <g id="text_5">
     <!-- 1.2 -->
     <defs>
      <path d="M 19.1875 8.296875 
L 53.609375 8.296875 
L 53.609375 0 
L 7.328125 0 
L 7.328125 8.296875 
Q 12.9375 14.109375 22.625 23.890625 
Q 32.328125 33.6875 34.8125 36.53125 
Q 39.546875 41.84375 41.421875 45.53125 
Q 43.3125 49.21875 43.3125 52.78125 
Q 43.3125 58.59375 39.234375 62.25 
Q 35.15625 65.921875 28.609375 65.921875 
Q 23.96875 65.921875 18.8125 64.3125 
Q 13.671875 62.703125 7.8125 59.421875 
L 7.8125 69.390625 
Q 13.765625 71.78125 18.9375 73 
Q 24.125 74.21875 28.421875 74.21875 
Q 39.75 74.21875 46.484375 68.546875 
Q 53.21875 62.890625 53.21875 53.421875 
Q 53.21875 48.921875 51.53125 44.890625 
Q 49.859375 40.875 45.40625 35.40625 
Q 44.1875 33.984375 37.640625 27.21875 
Q 31.109375 20.453125 19.1875 8.296875 
z
" id="DejaVuSans-32"/>
     </defs>
     <g transform="translate(192.465438 364.664054)scale(0.1 -0.1)">
      <use xlink:href="#DejaVuSans-31"/>
      <use x="63.623047" xlink:href="#DejaVuSans-2e"/>
      <use x="95.410156" xlink:href="#DejaVuSans-32"/>
     </g>
    </g>
   </g>
   <g id="xtick_5">
    <g id="line2d_6">
     <path d="M 236.84915 349.086795 
L 234.538102 351.322256 
" style="fill:none;stroke:#000000;stroke-linecap:square;stroke-width:0.8;"/>
    </g>
    <g id="text_6">
     <!-- 1.4 -->
     <defs>
      <path d="M 37.796875 64.3125 
L 12.890625 25.390625 
L 37.796875 25.390625 
z
M 35.203125 72.90625 
L 47.609375 72.90625 
L 47.609375 25.390625 
L 58.015625 25.390625 
L 58.015625 17.1875 
L 47.609375 17.1875 
L 47.609375 0 
L 37.796875 0 
L 37.796875 17.1875 
L 4.890625 17.1875 
L 4.890625 26.703125 
z
" id="DejaVuSans-34"/>
     </defs>
     <g transform="translate(221.650821 374.120092)scale(0.1 -0.1)">
      <use xlink:href="#DejaVuSans-31"/>
      <use x="63.623047" xlink:href="#DejaVuSans-2e"/>
      <use x="95.410156" xlink:href="#DejaVuSans-34"/>
     </g>
    </g>
   </g>
  </g>
  <g id="axis3d_2">
   <g id="line2d_7">
    <path d="M 349.426265 270.66983 
L 261.697263 357.998414 
" style="fill:none;stroke:#000000;stroke-linecap:square;stroke-width:0.8;"/>
   </g>
   <g id="text_7">
    <!-- dx -->
    <defs>
     <path d="M 45.40625 46.390625 
L 45.40625 75.984375 
L 54.390625 75.984375 
L 54.390625 0 
L 45.40625 0 
L 45.40625 8.203125 
Q 42.578125 3.328125 38.25 0.953125 
Q 33.9375 -1.421875 27.875 -1.421875 
Q 17.96875 -1.421875 11.734375 6.484375 
Q 5.515625 14.40625 5.515625 27.296875 
Q 5.515625 40.1875 11.734375 48.09375 
Q 17.96875 56 27.875 56 
Q 33.9375 56 38.25 53.625 
Q 42.578125 51.265625 45.40625 46.390625 
z
M 14.796875 27.296875 
Q 14.796875 17.390625 18.875 11.75 
Q 22.953125 6.109375 30.078125 6.109375 
Q 37.203125 6.109375 41.296875 11.75 
Q 45.40625 17.390625 45.40625 27.296875 
Q 45.40625 37.203125 41.296875 42.84375 
Q 37.203125 48.484375 30.078125 48.484375 
Q 22.953125 48.484375 18.875 42.84375 
Q 14.796875 37.203125 14.796875 27.296875 
z
" id="DejaVuSans-64"/>
     <path d="M 54.890625 54.6875 
L 35.109375 28.078125 
L 55.90625 0 
L 45.3125 0 
L 29.390625 21.484375 
L 13.484375 0 
L 2.875 0 
L 24.125 28.609375 
L 4.6875 54.6875 
L 15.28125 54.6875 
L 29.78125 35.203125 
L 44.28125 54.6875 
z
" id="DejaVuSans-78"/>
    </defs>
    <g transform="translate(324.659369 344.925889)scale(0.1 -0.1)">
     <use xlink:href="#DejaVuSans-64"/>
     <use x="63.476562" xlink:href="#DejaVuSans-78"/>
    </g>
   </g>
   <g id="Line3DCollection_2">
    <path d="M 107.75636 133.423239 
L 113.782455 293.078576 
L 275.835982 343.924227 
" style="fill:none;stroke:#b0b0b0;stroke-width:0.8;"/>
    <path d="M 126.134562 120.370689 
L 131.156392 278.579302 
L 291.769138 328.063795 
" style="fill:none;stroke:#b0b0b0;stroke-width:0.8;"/>
    <path d="M 144.009785 107.675363 
L 148.078453 264.457138 
L 307.269264 312.634415 
" style="fill:none;stroke:#b0b0b0;stroke-width:0.8;"/>
    <path d="M 161.402399 95.322796 
L 164.566041 250.697559 
L 322.353777 297.618752 
" style="fill:none;stroke:#b0b0b0;stroke-width:0.8;"/>
    <path d="M 178.331689 83.29929 
L 180.635676 237.28678 
L 337.039171 283.000386 
" style="fill:none;stroke:#b0b0b0;stroke-width:0.8;"/>
   </g>
   <g id="xtick_6">
    <g id="line2d_8">
     <path d="M 274.480155 343.498825 
L 278.550647 344.775976 
" style="fill:none;stroke:#000000;stroke-linecap:square;stroke-width:0.8;"/>
    </g>
    <g id="text_8">
     <!-- −0.4 -->
     <defs>
      <path d="M 10.59375 35.5 
L 73.1875 35.5 
L 73.1875 27.203125 
L 10.59375 27.203125 
z
" id="DejaVuSans-2212"/>
     </defs>
     <g transform="translate(274.838706 365.479446)scale(0.1 -0.1)">
      <use xlink:href="#DejaVuSans-2212"/>
      <use x="83.789062" xlink:href="#DejaVuSans-30"/>
      <use x="147.412109" xlink:href="#DejaVuSans-2e"/>
      <use x="179.199219" xlink:href="#DejaVuSans-34"/>
     </g>
    </g>
   </g>
   <g id="xtick_7">
    <g id="line2d_9">
     <path d="M 290.426175 327.65003 
L 294.458003 328.892229 
" style="fill:none;stroke:#000000;stroke-linecap:square;stroke-width:0.8;"/>
    </g>
    <g id="text_9">
     <!-- −0.2 -->
     <g transform="translate(290.61091 349.434299)scale(0.1 -0.1)">
      <use xlink:href="#DejaVuSans-2212"/>
      <use x="83.789062" xlink:href="#DejaVuSans-30"/>
      <use x="147.412109" xlink:href="#DejaVuSans-2e"/>
      <use x="179.199219" xlink:href="#DejaVuSans-32"/>
     </g>
    </g>
   </g>
   <g id="xtick_8">
    <g id="line2d_10">
     <path d="M 305.938973 312.231818 
L 309.932719 313.44048 
" style="fill:none;stroke:#000000;stroke-linecap:square;stroke-width:0.8;"/>
    </g>
    <g id="text_10">
     <!-- 0.0 -->
     <g transform="translate(310.144502 333.825024)scale(0.1 -0.1)">
      <use xlink:href="#DejaVuSans-30"/>
      <use x="63.623047" xlink:href="#DejaVuSans-2e"/>
      <use x="95.410156" xlink:href="#DejaVuSans-30"/>
     </g>
    </g>
   </g>
   <g id="xtick_9">
    <g id="line2d_11">
     <path d="M 321.035964 297.226876 
L 324.992209 298.40334 
" style="fill:none;stroke:#000000;stroke-linecap:square;stroke-width:0.8;"/>
    </g>
    <g id="text_11">
     <!-- 0.2 -->
     <g transform="translate(325.077018 318.634096)scale(0.1 -0.1)">
      <use xlink:href="#DejaVuSans-30"/>
      <use x="63.623047" xlink:href="#DejaVuSans-2e"/>
      <use x="95.410156" xlink:href="#DejaVuSans-32"/>
     </g>
    </g>
   </g>
   <g id="xtick_10">
    <g id="line2d_12">
     <path d="M 335.733647 282.618807 
L 339.652963 283.764345 
" style="fill:none;stroke:#000000;stroke-linecap:square;stroke-width:0.8;"/>
    </g>
    <g id="text_12">
     <!-- 0.4 -->
     <g transform="translate(339.614616 303.844921)scale(0.1 -0.1)">
      <use xlink:href="#DejaVuSans-30"/>
      <use x="63.623047" xlink:href="#DejaVuSans-2e"/>
      <use x="95.410156" xlink:href="#DejaVuSans-34"/>
     </g>
    </g>
   </g>
  </g>
  <g id="axis3d_3">
   <g id="line2d_13">
    <path d="M 349.426265 270.66983 
L 355.920561 113.258198 
" style="fill:none;stroke:#000000;stroke-linecap:square;stroke-width:0.8;"/>
   </g>
   <g id="text_13">
    <!-- objective function -->
    <defs>
     <path d="M 30.609375 48.390625 
Q 23.390625 48.390625 19.1875 42.75 
Q 14.984375 37.109375 14.984375 27.296875 
Q 14.984375 17.484375 19.15625 11.84375 
Q 23.34375 6.203125 30.609375 6.203125 
Q 37.796875 6.203125 41.984375 11.859375 
Q 46.1875 17.53125 46.1875 27.296875 
Q 46.1875 37.015625 41.984375 42.703125 
Q 37.796875 48.390625 30.609375 48.390625 
z
M 30.609375 56 
Q 42.328125 56 49.015625 48.375 
Q 55.71875 40.765625 55.71875 27.296875 
Q 55.71875 13.875 49.015625 6.21875 
Q 42.328125 -1.421875 30.609375 -1.421875 
Q 18.84375 -1.421875 12.171875 6.21875 
Q 5.515625 13.875 5.515625 27.296875 
Q 5.515625 40.765625 12.171875 48.375 
Q 18.84375 56 30.609375 56 
z
" id="DejaVuSans-6f"/>
     <path d="M 48.6875 27.296875 
Q 48.6875 37.203125 44.609375 42.84375 
Q 40.53125 48.484375 33.40625 48.484375 
Q 26.265625 48.484375 22.1875 42.84375 
Q 18.109375 37.203125 18.109375 27.296875 
Q 18.109375 17.390625 22.1875 11.75 
Q 26.265625 6.109375 33.40625 6.109375 
Q 40.53125 6.109375 44.609375 11.75 
Q 48.6875 17.390625 48.6875 27.296875 
z
M 18.109375 46.390625 
Q 20.953125 51.265625 25.265625 53.625 
Q 29.59375 56 35.59375 56 
Q 45.5625 56 51.78125 48.09375 
Q 58.015625 40.1875 58.015625 27.296875 
Q 58.015625 14.40625 51.78125 6.484375 
Q 45.5625 -1.421875 35.59375 -1.421875 
Q 29.59375 -1.421875 25.265625 0.953125 
Q 20.953125 3.328125 18.109375 8.203125 
L 18.109375 0 
L 9.078125 0 
L 9.078125 75.984375 
L 18.109375 75.984375 
z
" id="DejaVuSans-62"/>
     <path d="M 9.421875 54.6875 
L 18.40625 54.6875 
L 18.40625 -0.984375 
Q 18.40625 -11.421875 14.421875 -16.109375 
Q 10.453125 -20.796875 1.609375 -20.796875 
L -1.8125 -20.796875 
L -1.8125 -13.1875 
L 0.59375 -13.1875 
Q 5.71875 -13.1875 7.5625 -10.8125 
Q 9.421875 -8.453125 9.421875 -0.984375 
z
M 9.421875 75.984375 
L 18.40625 75.984375 
L 18.40625 64.59375 
L 9.421875 64.59375 
z
" id="DejaVuSans-6a"/>
     <path d="M 56.203125 29.59375 
L 56.203125 25.203125 
L 14.890625 25.203125 
Q 15.484375 15.921875 20.484375 11.0625 
Q 25.484375 6.203125 34.421875 6.203125 
Q 39.59375 6.203125 44.453125 7.46875 
Q 49.3125 8.734375 54.109375 11.28125 
L 54.109375 2.78125 
Q 49.265625 0.734375 44.1875 -0.34375 
Q 39.109375 -1.421875 33.890625 -1.421875 
Q 20.796875 -1.421875 13.15625 6.1875 
Q 5.515625 13.8125 5.515625 26.8125 
Q 5.515625 40.234375 12.765625 48.109375 
Q 20.015625 56 32.328125 56 
Q 43.359375 56 49.78125 48.890625 
Q 56.203125 41.796875 56.203125 29.59375 
z
M 47.21875 32.234375 
Q 47.125 39.59375 43.09375 43.984375 
Q 39.0625 48.390625 32.421875 48.390625 
Q 24.90625 48.390625 20.390625 44.140625 
Q 15.875 39.890625 15.1875 32.171875 
z
" id="DejaVuSans-65"/>
     <path d="M 48.78125 52.59375 
L 48.78125 44.1875 
Q 44.96875 46.296875 41.140625 47.34375 
Q 37.3125 48.390625 33.40625 48.390625 
Q 24.65625 48.390625 19.8125 42.84375 
Q 14.984375 37.3125 14.984375 27.296875 
Q 14.984375 17.28125 19.8125 11.734375 
Q 24.65625 6.203125 33.40625 6.203125 
Q 37.3125 6.203125 41.140625 7.25 
Q 44.96875 8.296875 48.78125 10.40625 
L 48.78125 2.09375 
Q 45.015625 0.34375 40.984375 -0.53125 
Q 36.96875 -1.421875 32.421875 -1.421875 
Q 20.0625 -1.421875 12.78125 6.34375 
Q 5.515625 14.109375 5.515625 27.296875 
Q 5.515625 40.671875 12.859375 48.328125 
Q 20.21875 56 33.015625 56 
Q 37.15625 56 41.109375 55.140625 
Q 45.0625 54.296875 48.78125 52.59375 
z
" id="DejaVuSans-63"/>
     <path d="M 18.3125 70.21875 
L 18.3125 54.6875 
L 36.8125 54.6875 
L 36.8125 47.703125 
L 18.3125 47.703125 
L 18.3125 18.015625 
Q 18.3125 11.328125 20.140625 9.421875 
Q 21.96875 7.515625 27.59375 7.515625 
L 36.8125 7.515625 
L 36.8125 0 
L 27.59375 0 
Q 17.1875 0 13.234375 3.875 
Q 9.28125 7.765625 9.28125 18.015625 
L 9.28125 47.703125 
L 2.6875 47.703125 
L 2.6875 54.6875 
L 9.28125 54.6875 
L 9.28125 70.21875 
z
" id="DejaVuSans-74"/>
     <path d="M 9.421875 54.6875 
L 18.40625 54.6875 
L 18.40625 0 
L 9.421875 0 
z
M 9.421875 75.984375 
L 18.40625 75.984375 
L 18.40625 64.59375 
L 9.421875 64.59375 
z
" id="DejaVuSans-69"/>
     <path d="M 2.984375 54.6875 
L 12.5 54.6875 
L 29.59375 8.796875 
L 46.6875 54.6875 
L 56.203125 54.6875 
L 35.6875 0 
L 23.484375 0 
z
" id="DejaVuSans-76"/>
     <path id="DejaVuSans-20"/>
     <path d="M 37.109375 75.984375 
L 37.109375 68.5 
L 28.515625 68.5 
Q 23.6875 68.5 21.796875 66.546875 
Q 19.921875 64.59375 19.921875 59.515625 
L 19.921875 54.6875 
L 34.71875 54.6875 
L 34.71875 47.703125 
L 19.921875 47.703125 
L 19.921875 0 
L 10.890625 0 
L 10.890625 47.703125 
L 2.296875 47.703125 
L 2.296875 54.6875 
L 10.890625 54.6875 
L 10.890625 58.5 
Q 10.890625 67.625 15.140625 71.796875 
Q 19.390625 75.984375 28.609375 75.984375 
z
" id="DejaVuSans-66"/>
     <path d="M 8.5 21.578125 
L 8.5 54.6875 
L 17.484375 54.6875 
L 17.484375 21.921875 
Q 17.484375 14.15625 20.5 10.265625 
Q 23.53125 6.390625 29.59375 6.390625 
Q 36.859375 6.390625 41.078125 11.03125 
Q 45.3125 15.671875 45.3125 23.6875 
L 45.3125 54.6875 
L 54.296875 54.6875 
L 54.296875 0 
L 45.3125 0 
L 45.3125 8.40625 
Q 42.046875 3.421875 37.71875 1 
Q 33.40625 -1.421875 27.6875 -1.421875 
Q 18.265625 -1.421875 13.375 4.4375 
Q 8.5 10.296875 8.5 21.578125 
z
M 31.109375 56 
z
" id="DejaVuSans-75"/>
     <path d="M 54.890625 33.015625 
L 54.890625 0 
L 45.90625 0 
L 45.90625 32.71875 
Q 45.90625 40.484375 42.875 44.328125 
Q 39.84375 48.1875 33.796875 48.1875 
Q 26.515625 48.1875 22.3125 43.546875 
Q 18.109375 38.921875 18.109375 30.90625 
L 18.109375 0 
L 9.078125 0 
L 9.078125 54.6875 
L 18.109375 54.6875 
L 18.109375 46.1875 
Q 21.34375 51.125 25.703125 53.5625 
Q 30.078125 56 35.796875 56 
Q 45.21875 56 50.046875 50.171875 
Q 54.890625 44.34375 54.890625 33.015625 
z
" id="DejaVuSans-6e"/>
    </defs>
    <g transform="translate(389.525752 234.200694)rotate(-87.637501)scale(0.1 -0.1)">
     <use xlink:href="#DejaVuSans-6f"/>
     <use x="61.181641" xlink:href="#DejaVuSans-62"/>
     <use x="124.658203" xlink:href="#DejaVuSans-6a"/>
     <use x="152.441406" xlink:href="#DejaVuSans-65"/>
     <use x="213.964844" xlink:href="#DejaVuSans-63"/>
     <use x="268.945312" xlink:href="#DejaVuSans-74"/>
     <use x="308.154297" xlink:href="#DejaVuSans-69"/>
     <use x="335.9375" xlink:href="#DejaVuSans-76"/>
     <use x="395.117188" xlink:href="#DejaVuSans-65"/>
     <use x="456.640625" xlink:href="#DejaVuSans-20"/>
     <use x="488.427734" xlink:href="#DejaVuSans-66"/>
     <use x="523.632812" xlink:href="#DejaVuSans-75"/>
     <use x="587.011719" xlink:href="#DejaVuSans-6e"/>
     <use x="650.390625" xlink:href="#DejaVuSans-63"/>
     <use x="705.371094" xlink:href="#DejaVuSans-74"/>
     <use x="744.580078" xlink:href="#DejaVuSans-69"/>
     <use x="772.363281" xlink:href="#DejaVuSans-6f"/>
     <use x="833.544922" xlink:href="#DejaVuSans-6e"/>
    </g>
   </g>
   <g id="Line3DCollection_3">
    <path d="M 349.875048 259.792029 
L 194.093958 215.382274 
L 97.904236 294.827546 
" style="fill:none;stroke:#b0b0b0;stroke-width:0.8;"/>
    <path d="M 350.694948 239.918923 
L 193.892226 196.059968 
L 97.029427 274.536949 
" style="fill:none;stroke:#b0b0b0;stroke-width:0.8;"/>
    <path d="M 351.525768 219.781156 
L 193.687921 176.491181 
L 96.142579 253.967137 
" style="fill:none;stroke:#b0b0b0;stroke-width:0.8;"/>
    <path d="M 352.367726 199.373406 
L 193.480993 156.671167 
L 95.243444 233.112308 
" style="fill:none;stroke:#b0b0b0;stroke-width:0.8;"/>
    <path d="M 353.221048 178.690207 
L 193.271391 136.595057 
L 94.331763 211.966495 
" style="fill:none;stroke:#b0b0b0;stroke-width:0.8;"/>
    <path d="M 354.085966 157.725944 
L 193.059064 116.257855 
L 93.407272 190.523567 
" style="fill:none;stroke:#b0b0b0;stroke-width:0.8;"/>
    <path d="M 354.962717 136.474848 
L 192.843957 95.654434 
L 92.469699 168.777217 
" style="fill:none;stroke:#b0b0b0;stroke-width:0.8;"/>
   </g>
   <g id="xtick_11">
    <g id="line2d_14">
     <path d="M 348.575137 259.421453 
L 352.477582 260.533954 
" style="fill:none;stroke:#000000;stroke-linecap:square;stroke-width:0.8;"/>
    </g>
    <g id="text_14">
     <!-- 2 -->
     <g transform="translate(362.958785 265.128886)scale(0.1 -0.1)">
      <use xlink:href="#DejaVuSans-32"/>
     </g>
    </g>
   </g>
   <g id="xtick_12">
    <g id="line2d_15">
     <path d="M 349.386155 239.552843 
L 353.315284 240.651851 
" style="fill:none;stroke:#000000;stroke-linecap:square;stroke-width:0.8;"/>
    </g>
    <g id="text_15">
     <!-- 4 -->
     <g transform="translate(363.884295 245.283246)scale(0.1 -0.1)">
      <use xlink:href="#DejaVuSans-34"/>
     </g>
    </g>
   </g>
   <g id="xtick_13">
    <g id="line2d_16">
     <path d="M 350.20797 219.419726 
L 354.164149 220.504782 
" style="fill:none;stroke:#000000;stroke-linecap:square;stroke-width:0.8;"/>
    </g>
    <g id="text_16">
     <!-- 6 -->
     <g transform="translate(364.822104 225.173879)scale(0.1 -0.1)">
      <use xlink:href="#DejaVuSans-36"/>
     </g>
    </g>
   </g>
   <g id="xtick_14">
    <g id="line2d_17">
     <path d="M 351.040799 199.016783 
L 355.024402 200.087412 
" style="fill:none;stroke:#000000;stroke-linecap:square;stroke-width:0.8;"/>
    </g>
    <g id="text_17">
     <!-- 8 -->
     <g transform="translate(365.772459 204.795492)scale(0.1 -0.1)">
      <use xlink:href="#DejaVuSans-38"/>
     </g>
    </g>
   </g>
   <g id="xtick_15">
    <g id="line2d_18">
     <path d="M 351.884865 178.338554 
L 355.896275 179.394267 
" style="fill:none;stroke:#000000;stroke-linecap:square;stroke-width:0.8;"/>
    </g>
    <g id="text_18">
     <!-- 10 -->
     <g transform="translate(363.554364 184.142651)scale(0.1 -0.1)">
      <use xlink:href="#DejaVuSans-31"/>
      <use x="63.623047" xlink:href="#DejaVuSans-30"/>
     </g>
    </g>
   </g>
   <g id="xtick_16">
    <g id="line2d_19">
     <path d="M 352.740397 157.379429 
L 356.780005 158.41972 
" style="fill:none;stroke:#000000;stroke-linecap:square;stroke-width:0.8;"/>
    </g>
    <g id="text_19">
     <!-- 12 -->
     <g transform="translate(364.530578 163.209773)scale(0.1 -0.1)">
      <use xlink:href="#DejaVuSans-31"/>
      <use x="63.623047" xlink:href="#DejaVuSans-32"/>
     </g>
    </g>
   </g>
   <g id="xtick_17">
    <g id="line2d_20">
     <path d="M 353.60763 136.133646 
L 357.675834 137.157992 
" style="fill:none;stroke:#000000;stroke-linecap:square;stroke-width:0.8;"/>
    </g>
    <g id="text_20">
     <!-- 14 -->
     <g transform="translate(365.520119 141.991123)scale(0.1 -0.1)">
      <use xlink:href="#DejaVuSans-31"/>
      <use x="63.623047" xlink:href="#DejaVuSans-34"/>
     </g>
    </g>
   </g>
  </g>
  <g id="axes_1">
   <g id="Poly3DCollection_1">
    <path clip-path="url(#p9b1b2826a3)" d="M 193.445308 191.592459 
L 200.447183 191.07113 
L 204.636779 190.996232 
L 197.651591 191.201039 
L 193.445308 191.592459 
z
" style="fill:#15517a;"/>
    <path clip-path="url(#p9b1b2826a3)" d="M 200.447183 191.07113 
L 207.486558 190.3231 
L 211.658069 190.56781 
L 204.636779 190.996232 
L 200.447183 191.07113 
z
" style="fill:#15507a;"/>
    <path clip-path="url(#p9b1b2826a3)" d="M 189.289213 199.265722 
L 196.297945 199.215567 
L 200.447183 191.07113 
L 193.445308 191.592459 
L 189.289213 199.265722 
z
" style="fill:#1e74b0;"/>
    <path clip-path="url(#p9b1b2826a3)" d="M 207.486558 190.3231 
L 214.565297 189.346263 
L 218.717288 189.913845 
L 211.658069 190.56781 
L 207.486558 190.3231 
z
" style="fill:#155079;"/>
    <path clip-path="url(#p9b1b2826a3)" d="M 196.297945 199.215567 
L 203.341908 198.941525 
L 207.486558 190.3231 
L 200.447183 191.07113 
L 196.297945 199.215567 
z
" style="fill:#1e74b0;"/>
    <path clip-path="url(#p9b1b2826a3)" d="M 185.050447 202.02182 
L 192.072681 201.907621 
L 196.297945 199.215567 
L 189.289213 199.265722 
L 185.050447 202.02182 
z
" style="fill:#1a6599;"/>
    <path clip-path="url(#p9b1b2826a3)" d="M 203.341908 198.941525 
L 210.422936 198.441716 
L 214.565297 189.346263 
L 207.486558 190.3231 
L 203.341908 198.941525 
z
" style="fill:#1e74b0;"/>
    <path clip-path="url(#p9b1b2826a3)" d="M 214.565297 189.346263 
L 221.685301 188.138389 
L 225.816299 189.032285 
L 218.717288 189.913845 
L 214.565297 189.346263 
z
" style="fill:#155079;"/>
    <path clip-path="url(#p9b1b2826a3)" d="M 192.072681 201.907621 
L 199.130366 201.568465 
L 203.341908 198.941525 
L 196.297945 199.215567 
L 192.072681 201.907621 
z
" style="fill:#1a6598;"/>
    <path clip-path="url(#p9b1b2826a3)" d="M 180.712614 200.172558 
L 187.752557 199.492084 
L 192.072681 201.907621 
L 185.050447 202.02182 
L 180.712614 200.172558 
z
" style="fill:#13496e;"/>
    <path clip-path="url(#p9b1b2826a3)" d="M 210.422936 198.441716 
L 217.542897 197.714137 
L 221.685301 188.138389 
L 214.565297 189.346263 
L 210.422936 198.441716 
z
" style="fill:#1e74b0;"/>
    <path clip-path="url(#p9b1b2826a3)" d="M 199.130366 201.568465 
L 206.225349 201.002426 
L 210.422936 198.441716 
L 203.341908 198.941525 
L 199.130366 201.568465 
z
" style="fill:#1a6598;"/>
    <path clip-path="url(#p9b1b2826a3)" d="M 221.685301 188.138389 
L 228.848513 186.697117 
L 232.957003 187.920956 
L 225.816299 189.032285 
L 221.685301 188.138389 
z
" style="fill:#155078;"/>
    <path clip-path="url(#p9b1b2826a3)" d="M 187.752557 199.492084 
L 194.830509 198.581776 
L 199.130366 201.568465 
L 192.072681 201.907621 
L 187.752557 199.492084 
z
" style="fill:#13486d;"/>
    <path clip-path="url(#p9b1b2826a3)" d="M 176.506131 209.201653 
L 183.55353 209.132871 
L 187.752557 199.492084 
L 180.712614 200.172558 
L 176.506131 209.201653 
z
" style="fill:#1e73ae;"/>
    <path clip-path="url(#p9b1b2826a3)" d="M 206.225349 201.002426 
L 213.359515 200.207454 
L 217.542897 197.714137 
L 210.422936 198.441716 
L 206.225349 201.002426 
z
" style="fill:#1a6498;"/>
    <path clip-path="url(#p9b1b2826a3)" d="M 217.542897 197.714137 
L 224.7037 196.756664 
L 228.848513 186.697117 
L 221.685301 188.138389 
L 217.542897 197.714137 
z
" style="fill:#1e74b0;"/>
    <path clip-path="url(#p9b1b2826a3)" d="M 228.848513 186.697117 
L 236.056921 185.019958 
L 240.141342 186.577559 
L 232.957003 187.920956 
L 228.848513 186.697117 
z
" style="fill:#154f78;"/>
    <path clip-path="url(#p9b1b2826a3)" d="M 172.222306 214.636485 
L 179.281164 214.786272 
L 183.55353 209.132871 
L 176.506131 209.201653 
L 172.222306 214.636485 
z
" style="fill:#1f77b4;"/>
    <path clip-path="url(#p9b1b2826a3)" d="M 194.830509 198.581776 
L 201.948375 197.439401 
L 206.225349 201.002426 
L 199.130366 201.568465 
L 194.830509 198.581776 
z
" style="fill:#13486d;"/>
    <path clip-path="url(#p9b1b2826a3)" d="M 183.55353 209.132871 
L 190.636003 208.838258 
L 194.830509 198.581776 
L 187.752557 199.492084 
L 183.55353 209.132871 
z
" style="fill:#1e73ae;"/>
    <path clip-path="url(#p9b1b2826a3)" d="M 213.359515 200.207454 
L 220.534788 199.181375 
L 224.7037 196.756664 
L 217.542897 197.714137 
L 213.359515 200.207454 
z
" style="fill:#1a6498;"/>
    <path clip-path="url(#p9b1b2826a3)" d="M 224.7037 196.756664 
L 231.907292 195.567045 
L 236.056921 185.019958 
L 228.848513 186.697117 
L 224.7037 196.756664 
z
" style="fill:#1e74b0;"/>
    <path clip-path="url(#p9b1b2826a3)" d="M 236.056921 185.019958 
L 243.312554 183.104283 
L 247.371302 184.999663 
L 240.141342 186.577559 
L 236.056921 185.019958 
z
" style="fill:#154f78;"/>
    <path clip-path="url(#p9b1b2826a3)" d="M 179.281164 214.786272 
L 186.373987 214.71114 
L 190.636003 208.838258 
L 183.55353 209.132871 
L 179.281164 214.786272 
z
" style="fill:#1f77b4;"/>
    <path clip-path="url(#p9b1b2826a3)" d="M 155.40847 260.710149 
L 162.516901 264.300778 
L 166.863485 259.461808 
L 159.772656 255.999096 
L 155.40847 260.710149 
z
" style="fill:#15507a;"/>
    <path clip-path="url(#p9b1b2826a3)" d="M 190.636003 208.838258 
L 197.755412 208.315882 
L 201.948375 197.439401 
L 194.830509 198.581776 
L 190.636003 208.838258 
z
" style="fill:#1e73ae;"/>
    <path clip-path="url(#p9b1b2826a3)" d="M 201.948375 197.439401 
L 209.108101 196.062597 
L 213.359515 200.207454 
L 206.225349 201.002426 
L 201.948375 197.439401 
z
" style="fill:#13486c;"/>
    <path clip-path="url(#p9b1b2826a3)" d="M 159.772656 255.999096 
L 166.863485 259.461808 
L 170.553632 220.020325 
L 163.468086 220.032368 
L 159.772656 255.999096 
z
" style="fill:#1c6aa1;"/>
    <path clip-path="url(#p9b1b2826a3)" d="M 162.516901 264.300778 
L 169.642612 267.680145 
L 173.972328 262.713398 
L 166.863485 259.461808 
L 162.516901 264.300778 
z
" style="fill:#165580;"/>
    <path clip-path="url(#p9b1b2826a3)" d="M 220.534788 199.181375 
L 227.753131 197.921886 
L 231.907292 195.567045 
L 224.7037 196.756664 
L 220.534788 199.181375 
z
" style="fill:#1a6497;"/>
    <path clip-path="url(#p9b1b2826a3)" d="M 231.907292 195.567045 
L 239.155663 194.142899 
L 243.312554 183.104283 
L 236.056921 185.019958 
L 231.907292 195.567045 
z
" style="fill:#1e74b0;"/>
    <path clip-path="url(#p9b1b2826a3)" d="M 243.312554 183.104283 
L 250.617493 180.947326 
L 254.648913 183.184704 
L 247.371302 184.999663 
L 243.312554 183.104283 
z
" style="fill:#154f78;"/>
    <path clip-path="url(#p9b1b2826a3)" d="M 186.373987 214.71114 
L 193.502628 214.409255 
L 197.755412 208.315882 
L 190.636003 208.838258 
L 186.373987 214.71114 
z
" style="fill:#1f77b4;"/>
    <path clip-path="url(#p9b1b2826a3)" d="M 167.657542 206.622101 
L 174.73525 205.52888 
L 179.281164 214.786272 
L 172.222306 214.636485 
L 167.657542 206.622101 
z
" style="fill:#114263;"/>
    <path clip-path="url(#p9b1b2826a3)" d="M 169.642612 267.680145 
L 176.787273 270.847997 
L 181.100851 265.753565 
L 173.972328 262.713398 
L 169.642612 267.680145 
z
" style="fill:#175a88;"/>
    <path clip-path="url(#p9b1b2826a3)" d="M 166.863485 259.461808 
L 173.972328 262.713398 
L 177.67372 219.781142 
L 170.553632 220.020325 
L 166.863485 259.461808 
z
" style="fill:#1c6aa1;"/>
    <path clip-path="url(#p9b1b2826a3)" d="M 197.755412 208.315882 
L 204.913656 207.563687 
L 209.108101 196.062597 
L 201.948375 197.439401 
L 197.755412 208.315882 
z
" style="fill:#1e73ae;"/>
    <path clip-path="url(#p9b1b2826a3)" d="M 209.108101 196.062597 
L 216.311676 194.448867 
L 220.534788 199.181375 
L 213.359515 200.207454 
L 209.108101 196.062597 
z
" style="fill:#13476c;"/>
    <path clip-path="url(#p9b1b2826a3)" d="M 227.753131 197.921886 
L 235.016553 196.426552 
L 239.155663 194.142899 
L 231.907292 195.567045 
L 227.753131 197.921886 
z
" style="fill:#1a6497;"/>
    <path clip-path="url(#p9b1b2826a3)" d="M 176.787273 270.847997 
L 183.952574 273.803986 
L 188.250741 268.581909 
L 181.100851 265.753565 
L 176.787273 270.847997 
z
" style="fill:#195f8f;"/>
    <path clip-path="url(#p9b1b2826a3)" d="M 239.155663 194.142899 
L 246.450849 192.48171 
L 250.617493 180.947326 
L 243.312554 183.104283 
L 239.155663 194.142899 
z
" style="fill:#1e74b0;"/>
    <path clip-path="url(#p9b1b2826a3)" d="M 173.972328 262.713398 
L 181.100851 265.753565 
L 184.830235 219.312876 
L 177.67372 219.781142 
L 173.972328 262.713398 
z
" style="fill:#1c6ba1;"/>
    <path clip-path="url(#p9b1b2826a3)" d="M 193.502628 214.409255 
L 200.668979 213.87866 
L 204.913656 207.563687 
L 197.755412 208.315882 
L 193.502628 214.409255 
z
" style="fill:#1f77b4;"/>
    <path clip-path="url(#p9b1b2826a3)" d="M 174.73525 205.52888 
L 181.852638 204.200654 
L 186.373987 214.71114 
L 179.281164 214.786272 
L 174.73525 205.52888 
z
" style="fill:#114163;"/>
    <path clip-path="url(#p9b1b2826a3)" d="M 250.617493 180.947326 
L 257.973864 178.546174 
L 261.976252 181.129979 
L 254.648913 183.184704 
L 250.617493 180.947326 
z
" style="fill:#154f77;"/>
    <path clip-path="url(#p9b1b2826a3)" d="M 163.468086 220.032368 
L 170.553632 220.020325 
L 174.73525 205.52888 
L 167.657542 206.622101 
L 163.468086 220.032368 
z
" style="fill:#1d70aa;"/>
    <path clip-path="url(#p9b1b2826a3)" d="M 204.913656 207.563687 
L 212.112675 206.579493 
L 216.311676 194.448867 
L 209.108101 196.062597 
L 204.913656 207.563687 
z
" style="fill:#1e73ae;"/>
    <path clip-path="url(#p9b1b2826a3)" d="M 183.952574 273.803986 
L 191.140222 276.547668 
L 195.423703 271.197935 
L 188.250741 268.581909 
L 183.952574 273.803986 
z
" style="fill:#1a6497;"/>
    <path clip-path="url(#p9b1b2826a3)" d="M 216.311676 194.448867 
L 223.561134 192.595577 
L 227.753131 197.921886 
L 220.534788 199.181375 
L 216.311676 194.448867 
z
" style="fill:#13476c;"/>
    <path clip-path="url(#p9b1b2826a3)" d="M 181.100851 265.753565 
L 188.250741 268.581909 
L 192.025101 218.613458 
L 184.830235 219.312876 
L 181.100851 265.753565 
z
" style="fill:#1c6ba2;"/>
    <path clip-path="url(#p9b1b2826a3)" d="M 235.016553 196.426552 
L 242.327107 194.692803 
L 246.450849 192.48171 
L 239.155663 194.142899 
L 235.016553 196.426552 
z
" style="fill:#1a6497;"/>
    <path clip-path="url(#p9b1b2826a3)" d="M 200.668979 213.87866 
L 207.874967 213.117274 
L 212.112675 206.579493 
L 204.913656 207.563687 
L 200.668979 213.87866 
z
" style="fill:#1f77b3;"/>
    <path clip-path="url(#p9b1b2826a3)" d="M 246.450849 192.48171 
L 253.794931 190.580824 
L 257.973864 178.546174 
L 250.617493 180.947326 
L 246.450849 192.48171 
z
" style="fill:#1e74af;"/>
    <path clip-path="url(#p9b1b2826a3)" d="M 191.140222 276.547668 
L 198.35195 279.078497 
L 202.621469 273.601049 
L 195.423703 271.197935 
L 191.140222 276.547668 
z
" style="fill:#1b689d;"/>
    <path clip-path="url(#p9b1b2826a3)" d="M 181.852638 204.200654 
L 189.011678 202.634926 
L 193.502628 214.409255 
L 186.373987 214.71114 
L 181.852638 204.200654 
z
" style="fill:#114162;"/>
    <path clip-path="url(#p9b1b2826a3)" d="M 170.553632 220.020325 
L 177.67372 219.781142 
L 181.852638 204.200654 
L 174.73525 205.52888 
L 170.553632 220.020325 
z
" style="fill:#1d70aa;"/>
    <path clip-path="url(#p9b1b2826a3)" d="M 257.973864 178.546174 
L 265.383848 175.897766 
L 269.355445 178.832643 
L 261.976252 181.129979 
L 257.973864 178.546174 
z
" style="fill:#154f77;"/>
    <path clip-path="url(#p9b1b2826a3)" d="M 212.112675 206.579493 
L 219.354448 205.360989 
L 223.561134 192.595577 
L 216.311676 194.448867 
L 212.112675 206.579493 
z
" style="fill:#1e73ae;"/>
    <path clip-path="url(#p9b1b2826a3)" d="M 188.250741 268.581909 
L 195.423703 271.197935 
L 199.260279 217.680689 
L 192.025101 218.613458 
L 188.250741 268.581909 
z
" style="fill:#1c6ba2;"/>
    <path clip-path="url(#p9b1b2826a3)" d="M 150.19383 232.491272 
L 157.31798 232.689825 
L 162.516901 264.300778 
L 155.40847 260.710149 
L 150.19383 232.491272 
z
" style="fill:#103c5a;"/>
    <path clip-path="url(#p9b1b2826a3)" d="M 223.561134 192.595577 
L 230.858555 190.499953 
L 235.016553 196.426552 
L 227.753131 197.921886 
L 223.561134 192.595577 
z
" style="fill:#13476c;"/>
    <path clip-path="url(#p9b1b2826a3)" d="M 198.35195 279.078497 
L 205.589514 281.395831 
L 209.845792 275.790557 
L 202.621469 273.601049 
L 198.35195 279.078497 
z
" style="fill:#1c6ca3;"/>
    <path clip-path="url(#p9b1b2826a3)" d="M 242.327107 194.692803 
L 249.686892 192.717928 
L 253.794931 190.580824 
L 246.450849 192.48171 
L 242.327107 194.692803 
z
" style="fill:#1a6497;"/>
    <path clip-path="url(#p9b1b2826a3)" d="M 207.874967 213.117274 
L 215.122562 212.122889 
L 219.354448 205.360989 
L 212.112675 206.579493 
L 207.874967 213.117274 
z
" style="fill:#1f77b3;"/>
    <path clip-path="url(#p9b1b2826a3)" d="M 177.67372 219.781142 
L 184.830235 219.312876 
L 189.011678 202.634926 
L 181.852638 204.200654 
L 177.67372 219.781142 
z
" style="fill:#1d70aa;"/>
    <path clip-path="url(#p9b1b2826a3)" d="M 189.011678 202.634926 
L 196.214382 200.829059 
L 200.668979 213.87866 
L 193.502628 214.409255 
L 189.011678 202.634926 
z
" style="fill:#114162;"/>
    <path clip-path="url(#p9b1b2826a3)" d="M 253.794931 190.580824 
L 261.19004 188.437445 
L 265.383848 175.897766 
L 257.973864 178.546174 
L 253.794931 190.580824 
z
" style="fill:#1e74af;"/>
    <path clip-path="url(#p9b1b2826a3)" d="M 157.31798 232.689825 
L 164.475396 232.661089 
L 169.642612 267.680145 
L 162.516901 264.300778 
L 157.31798 232.689825 
z
" style="fill:#103c5a;"/>
    <path clip-path="url(#p9b1b2826a3)" d="M 195.423703 271.197935 
L 202.621469 273.601049 
L 206.537775 216.512241 
L 199.260279 217.680689 
L 195.423703 271.197935 
z
" style="fill:#1c6ba2;"/>
    <path clip-path="url(#p9b1b2826a3)" d="M 205.589514 281.395831 
L 212.854694 283.498926 
L 217.098452 277.765663 
L 209.845792 275.790557 
L 205.589514 281.395831 
z
" style="fill:#1d6fa7;"/>
    <path clip-path="url(#p9b1b2826a3)" d="M 265.383848 175.897766 
L 272.849681 172.998887 
L 276.788672 176.289706 
L 269.355445 178.832643 
L 265.383848 175.897766 
z
" style="fill:#144f77;"/>
    <path clip-path="url(#p9b1b2826a3)" d="M 219.354448 205.360989 
L 226.641 203.905729 
L 230.858555 190.499953 
L 223.561134 192.595577 
L 219.354448 205.360989 
z
" style="fill:#1e73ae;"/>
    <path clip-path="url(#p9b1b2826a3)" d="M 230.858555 190.499953 
L 238.206069 188.159071 
L 242.327107 194.692803 
L 235.016553 196.426552 
L 230.858555 190.499953 
z
" style="fill:#12476b;"/>
    <path clip-path="url(#p9b1b2826a3)" d="M 249.686892 192.717928 
L 257.098061 190.499072 
L 261.19004 188.437445 
L 253.794931 190.580824 
L 249.686892 192.717928 
z
" style="fill:#1a6497;"/>
    <path clip-path="url(#p9b1b2826a3)" d="M 164.475396 232.661089 
L 171.667972 232.403186 
L 176.787273 270.847997 
L 169.642612 267.680145 
L 164.475396 232.661089 
z
" style="fill:#103c5a;"/>
    <path clip-path="url(#p9b1b2826a3)" d="M 215.122562 212.122889 
L 222.413773 210.893164 
L 226.641 203.905729 
L 219.354448 205.360989 
L 215.122562 212.122889 
z
" style="fill:#1f76b3;"/>
    <path clip-path="url(#p9b1b2826a3)" d="M 212.854694 283.498926 
L 220.149296 285.386934 
L 224.381256 279.52547 
L 217.098452 277.765663 
L 212.854694 283.498926 
z
" style="fill:#1d71ab;"/>
    <path clip-path="url(#p9b1b2826a3)" d="M 184.830235 219.312876 
L 192.025101 218.613458 
L 196.214382 200.829059 
L 189.011678 202.634926 
L 184.830235 219.312876 
z
" style="fill:#1d70aa;"/>
    <path clip-path="url(#p9b1b2826a3)" d="M 202.621469 273.601049 
L 209.845792 275.790557 
L 213.859637 215.105649 
L 206.537775 216.512241 
L 202.621469 273.601049 
z
" style="fill:#1c6ba2;"/>
    <path clip-path="url(#p9b1b2826a3)" d="M 196.214382 200.829059 
L 203.462811 198.780273 
L 207.874967 213.117274 
L 200.668979 213.87866 
L 196.214382 200.829059 
z
" style="fill:#114162;"/>
    <path clip-path="url(#p9b1b2826a3)" d="M 261.19004 188.437445 
L 268.638359 186.048633 
L 272.849681 172.998887 
L 265.383848 175.897766 
L 261.19004 188.437445 
z
" style="fill:#1e74af;"/>
    <path clip-path="url(#p9b1b2826a3)" d="M 226.641 203.905729 
L 233.974399 202.211132 
L 238.206069 188.159071 
L 230.858555 190.499953 
L 226.641 203.905729 
z
" style="fill:#1e73ae;"/>
    <path clip-path="url(#p9b1b2826a3)" d="M 272.849681 172.998887 
L 280.373653 169.846163 
L 284.278164 173.498024 
L 276.788672 176.289706 
L 272.849681 172.998887 
z
" style="fill:#144f77;"/>
    <path clip-path="url(#p9b1b2826a3)" d="M 220.149296 285.386934 
L 227.475158 287.058905 
L 231.69604 281.068975 
L 224.381256 279.52547 
L 220.149296 285.386934 
z
" style="fill:#1e73ad;"/>
    <path clip-path="url(#p9b1b2826a3)" d="M 238.206069 188.159071 
L 245.605859 185.56986 
L 249.686892 192.717928 
L 242.327107 194.692803 
L 238.206069 188.159071 
z
" style="fill:#12476b;"/>
    <path clip-path="url(#p9b1b2826a3)" d="M 171.667972 232.403186 
L 178.897641 231.914115 
L 183.952574 273.803986 
L 176.787273 270.847997 
L 171.667972 232.403186 
z
" style="fill:#103c5a;"/>
    <path clip-path="url(#p9b1b2826a3)" d="M 209.845792 275.790557 
L 217.098452 277.765663 
L 221.227959 213.458307 
L 213.859637 215.105649 
L 209.845792 275.790557 
z
" style="fill:#1c6ba2;"/>
    <path clip-path="url(#p9b1b2826a3)" d="M 222.413773 210.893164 
L 229.750658 209.425623 
L 233.974399 202.211132 
L 226.641 203.905729 
L 222.413773 210.893164 
z
" style="fill:#1f76b3;"/>
    <path clip-path="url(#p9b1b2826a3)" d="M 192.025101 218.613458 
L 199.260279 217.680689 
L 203.462811 198.780273 
L 196.214382 200.829059 
L 192.025101 218.613458 
z
" style="fill:#1d70aa;"/>
    <path clip-path="url(#p9b1b2826a3)" d="M 257.098061 190.499072 
L 264.562814 188.033229 
L 268.638359 186.048633 
L 261.19004 188.437445 
L 257.098061 190.499072 
z
" style="fill:#1a6497;"/>
    <path clip-path="url(#p9b1b2826a3)" d="M 203.462811 198.780273 
L 210.759073 196.485641 
L 215.122562 212.122889 
L 207.874967 213.117274 
L 203.462811 198.780273 
z
" style="fill:#114162;"/>
    <path clip-path="url(#p9b1b2826a3)" d="M 268.638359 186.048633 
L 276.142122 183.411292 
L 280.373653 169.846163 
L 272.849681 172.998887 
L 268.638359 186.048633 
z
" style="fill:#1e74af;"/>
    <path clip-path="url(#p9b1b2826a3)" d="M 227.475158 287.058905 
L 234.834145 288.513782 
L 239.044671 282.395069 
L 231.69604 281.068975 
L 227.475158 287.058905 
z
" style="fill:#1e74af;"/>
    <path clip-path="url(#p9b1b2826a3)" d="M 178.897641 231.914115 
L 186.166377 231.191745 
L 191.140222 276.547668 
L 183.952574 273.803986 
L 178.897641 231.914115 
z
" style="fill:#103c5a;"/>
    <path clip-path="url(#p9b1b2826a3)" d="M 233.974399 202.211132 
L 241.356762 200.274474 
L 245.605859 185.56986 
L 238.206069 188.159071 
L 233.974399 202.211132 
z
" style="fill:#1e73ae;"/>
    <path clip-path="url(#p9b1b2826a3)" d="M 217.098452 277.765663 
L 224.381256 279.52547 
L 228.644884 211.567467 
L 221.227959 213.458307 
L 217.098452 277.765663 
z
" style="fill:#1c6ba2;"/>
    <path clip-path="url(#p9b1b2826a3)" d="M 280.373653 169.846163 
L 287.958118 166.436054 
L 291.826212 170.454298 
L 284.278164 173.498024 
L 280.373653 169.846163 
z
" style="fill:#144e77;"/>
    <path clip-path="url(#p9b1b2826a3)" d="M 245.605859 185.56986 
L 253.060159 182.72909 
L 257.098061 190.499072 
L 249.686892 192.717928 
L 245.605859 185.56986 
z
" style="fill:#12476b;"/>
    <path clip-path="url(#p9b1b2826a3)" d="M 145.387879 224.531667 
L 152.522026 223.480028 
L 157.31798 232.689825 
L 150.19383 232.491272 
L 145.387879 224.531667 
z
" style="fill:#114263;"/>
    <path clip-path="url(#p9b1b2826a3)" d="M 229.750658 209.425623 
L 237.135318 207.717651 
L 241.356762 200.274474 
L 233.974399 202.211132 
L 229.750658 209.425623 
z
" style="fill:#1f76b3;"/>
    <path clip-path="url(#p9b1b2826a3)" d="M 199.260279 217.680689 
L 206.537775 216.512241 
L 210.759073 196.485641 
L 203.462811 198.780273 
L 199.260279 217.680689 
z
" style="fill:#1d70aa;"/>
    <path clip-path="url(#p9b1b2826a3)" d="M 234.834145 288.513782 
L 242.228155 289.750398 
L 246.429047 283.502534 
L 239.044671 282.395069 
L 234.834145 288.513782 
z
" style="fill:#1e75b1;"/>
    <path clip-path="url(#p9b1b2826a3)" d="M 264.562814 188.033229 
L 272.08341 185.317244 
L 276.142122 183.411292 
L 268.638359 186.048633 
L 264.562814 188.033229 
z
" style="fill:#1a6497;"/>
    <path clip-path="url(#p9b1b2826a3)" d="M 210.759073 196.485641 
L 218.105326 193.942082 
L 222.413773 210.893164 
L 215.122562 212.122889 
L 210.759073 196.485641 
z
" style="fill:#114062;"/>
    <path clip-path="url(#p9b1b2826a3)" d="M 186.166377 231.191745 
L 193.476191 230.233815 
L 198.35195 279.078497 
L 191.140222 276.547668 
L 186.166377 231.191745 
z
" style="fill:#103c5a;"/>
    <path clip-path="url(#p9b1b2826a3)" d="M 276.142122 183.411292 
L 283.703624 180.522174 
L 287.958118 166.436054 
L 280.373653 169.846163 
L 276.142122 183.411292 
z
" style="fill:#1e74af;"/>
    <path clip-path="url(#p9b1b2826a3)" d="M 224.381256 279.52547 
L 231.69604 281.068975 
L 236.112605 209.430232 
L 228.644884 211.567467 
L 224.381256 279.52547 
z
" style="fill:#1c6ba3;"/>
    <path clip-path="url(#p9b1b2826a3)" d="M 241.356762 200.274474 
L 248.790257 198.092885 
L 253.060159 182.72909 
L 245.605859 185.56986 
L 241.356762 200.274474 
z
" style="fill:#1e73ae;"/>
    <path clip-path="url(#p9b1b2826a3)" d="M 152.522026 223.480028 
L 159.695194 222.190854 
L 164.475396 232.661089 
L 157.31798 232.689825 
L 152.522026 223.480028 
z
" style="fill:#114163;"/>
    <path clip-path="url(#p9b1b2826a3)" d="M 141.138394 238.851103 
L 148.288331 238.966692 
L 152.522026 223.480028 
L 145.387879 224.531667 
L 141.138394 238.851103 
z
" style="fill:#1d70a9;"/>
    <path clip-path="url(#p9b1b2826a3)" d="M 242.228155 289.750398 
L 249.659119 290.767479 
L 253.851103 284.390041 
L 246.429047 283.502534 
L 242.228155 289.750398 
z
" style="fill:#1f75b1;"/>
    <path clip-path="url(#p9b1b2826a3)" d="M 287.958118 166.436054 
L 295.60549 162.764852 
L 299.435164 167.155067 
L 291.826212 170.454298 
L 287.958118 166.436054 
z
" style="fill:#144e76;"/>
    <path clip-path="url(#p9b1b2826a3)" d="M 253.060159 182.72909 
L 260.571263 179.633372 
L 264.562814 188.033229 
L 257.098061 190.499072 
L 253.060159 182.72909 
z
" style="fill:#12476b;"/>
    <path clip-path="url(#p9b1b2826a3)" d="M 237.135318 207.717651 
L 244.569903 205.766492 
L 248.790257 198.092885 
L 241.356762 200.274474 
L 237.135318 207.717651 
z
" style="fill:#1f76b3;"/>
    <path clip-path="url(#p9b1b2826a3)" d="M 206.537775 216.512241 
L 213.859637 215.105649 
L 218.105326 193.942082 
L 210.759073 196.485641 
L 206.537775 216.512241 
z
" style="fill:#1d70a9;"/>
    <path clip-path="url(#p9b1b2826a3)" d="M 193.476191 230.233815 
L 200.82914 229.037927 
L 205.589514 281.395831 
L 198.35195 279.078497 
L 193.476191 230.233815 
z
" style="fill:#103c5a;"/>
    <path clip-path="url(#p9b1b2826a3)" d="M 218.105326 193.942082 
L 225.503784 191.146361 
L 229.750658 209.425623 
L 222.413773 210.893164 
L 218.105326 193.942082 
z
" style="fill:#114061;"/>
    <path clip-path="url(#p9b1b2826a3)" d="M 272.08341 185.317244 
L 279.662163 182.347797 
L 283.703624 180.522174 
L 276.142122 183.411292 
L 272.08341 185.317244 
z
" style="fill:#1a6497;"/>
    <path clip-path="url(#p9b1b2826a3)" d="M 231.69604 281.068975 
L 239.044671 282.395069 
L 243.63337 207.043551 
L 236.112605 209.430232 
L 231.69604 281.068975 
z
" style="fill:#1c6ca3;"/>
    <path clip-path="url(#p9b1b2826a3)" d="M 136.554317 241.857399 
L 143.716813 241.90897 
L 148.288331 238.966692 
L 141.138394 238.851103 
L 136.554317 241.857399 
z
" style="fill:#1a6598;"/>
    <path clip-path="url(#p9b1b2826a3)" d="M 148.288331 238.966692 
L 155.471717 238.853355 
L 159.695194 222.190854 
L 152.522026 223.480028 
L 148.288331 238.966692 
z
" style="fill:#1d70a9;"/>
    <path clip-path="url(#p9b1b2826a3)" d="M 283.703624 180.522174 
L 291.325216 177.377867 
L 295.60549 162.764852 
L 287.958118 166.436054 
L 283.703624 180.522174 
z
" style="fill:#1e74af;"/>
    <path clip-path="url(#p9b1b2826a3)" d="M 159.695194 222.190854 
L 166.909396 220.661587 
L 171.667972 232.403186 
L 164.475396 232.661089 
L 159.695194 222.190854 
z
" style="fill:#114163;"/>
    <path clip-path="url(#p9b1b2826a3)" d="M 249.659119 290.767479 
L 257.129005 291.563637 
L 261.312807 285.056149 
L 253.851103 284.390041 
L 249.659119 290.767479 
z
" style="fill:#1f76b2;"/>
    <path clip-path="url(#p9b1b2826a3)" d="M 248.790257 198.092885 
L 256.277104 195.663346 
L 260.571263 179.633372 
L 253.060159 182.72909 
L 248.790257 198.092885 
z
" style="fill:#1e73ae;"/>
    <path clip-path="url(#p9b1b2826a3)" d="M 200.82914 229.037927 
L 208.227327 227.601543 
L 212.854694 283.498926 
L 205.589514 281.395831 
L 200.82914 229.037927 
z
" style="fill:#103c5a;"/>
    <path clip-path="url(#p9b1b2826a3)" d="M 260.571263 179.633372 
L 268.141524 176.279149 
L 272.08341 185.317244 
L 264.562814 188.033229 
L 260.571263 179.633372 
z
" style="fill:#12476b;"/>
    <path clip-path="url(#p9b1b2826a3)" d="M 213.859637 215.105649 
L 221.227959 213.458307 
L 225.503784 191.146361 
L 218.105326 193.942082 
L 213.859637 215.105649 
z
" style="fill:#1d70a9;"/>
    <path clip-path="url(#p9b1b2826a3)" d="M 295.60549 162.764852 
L 303.31825 158.828671 
L 307.107433 163.596702 
L 299.435164 167.155067 
L 295.60549 162.764852 
z
" style="fill:#144e76;"/>
    <path clip-path="url(#p9b1b2826a3)" d="M 244.569903 205.766492 
L 252.056618 203.569239 
L 256.277104 195.663346 
L 248.790257 198.092885 
L 244.569903 205.766492 
z
" style="fill:#1f76b3;"/>
    <path clip-path="url(#p9b1b2826a3)" d="M 239.044671 282.395069 
L 246.429047 283.502534 
L 251.209482 204.404217 
L 243.63337 207.043551 
L 239.044671 282.395069 
z
" style="fill:#1c6ca3;"/>
    <path clip-path="url(#p9b1b2826a3)" d="M 143.716813 241.90897 
L 150.912955 241.73068 
L 155.471717 238.853355 
L 148.288331 238.966692 
L 143.716813 241.90897 
z
" style="fill:#1a6498;"/>
    <path clip-path="url(#p9b1b2826a3)" d="M 225.503784 191.146361 
L 232.956713 188.09508 
L 237.135318 207.717651 
L 229.750658 209.425623 
L 225.503784 191.146361 
z
" style="fill:#114061;"/>
    <path clip-path="url(#p9b1b2826a3)" d="M 279.662163 182.347797 
L 287.30145 179.12141 
L 291.325216 177.377867 
L 283.703624 180.522174 
L 279.662163 182.347797 
z
" style="fill:#1a6497;"/>
    <path clip-path="url(#p9b1b2826a3)" d="M 257.129005 291.563637 
L 264.639817 292.137369 
L 268.816168 285.499301 
L 261.312807 285.056149 
L 257.129005 291.563637 
z
" style="fill:#1f76b3;"/>
    <path clip-path="url(#p9b1b2826a3)" d="M 155.471717 238.853355 
L 162.690474 238.509147 
L 166.909396 220.661587 
L 159.695194 222.190854 
L 155.471717 238.853355 
z
" style="fill:#1d70a9;"/>
    <path clip-path="url(#p9b1b2826a3)" d="M 166.909396 220.661587 
L 174.166687 218.889529 
L 178.897641 231.914115 
L 171.667972 232.403186 
L 166.909396 220.661587 
z
" style="fill:#114162;"/>
    <path clip-path="url(#p9b1b2826a3)" d="M 131.812439 240.929893 
L 138.984323 240.487573 
L 143.716813 241.90897 
L 136.554317 241.857399 
L 131.812439 240.929893 
z
" style="fill:#134a70;"/>
    <path clip-path="url(#p9b1b2826a3)" d="M 291.325216 177.377867 
L 299.009313 173.974793 
L 303.31825 158.828671 
L 295.60549 162.764852 
L 291.325216 177.377867 
z
" style="fill:#1e74af;"/>
    <path clip-path="url(#p9b1b2826a3)" d="M 208.227327 227.601543 
L 215.672902 225.921982 
L 220.149296 285.386934 
L 212.854694 283.498926 
L 208.227327 227.601543 
z
" style="fill:#103c5a;"/>
    <path clip-path="url(#p9b1b2826a3)" d="M 256.277104 195.663346 
L 263.819577 192.982682 
L 268.141524 176.279149 
L 260.571263 179.633372 
L 256.277104 195.663346 
z
" style="fill:#1e73ad;"/>
    <path clip-path="url(#p9b1b2826a3)" d="M 150.912955 241.73068 
L 158.144678 241.320537 
L 162.690474 238.509147 
L 155.471717 238.853355 
L 150.912955 241.73068 
z
" style="fill:#1a6498;"/>
    <path clip-path="url(#p9b1b2826a3)" d="M 246.429047 283.502534 
L 253.851103 284.390041 
L 258.843302 201.508855 
L 251.209482 204.404217 
L 246.429047 283.502534 
z
" style="fill:#1c6ca3;"/>
    <path clip-path="url(#p9b1b2826a3)" d="M 221.227959 213.458307 
L 228.644884 211.567467 
L 232.956713 188.09508 
L 225.503784 191.146361 
L 221.227959 213.458307 
z
" style="fill:#1d70a9;"/>
    <path clip-path="url(#p9b1b2826a3)" d="M 252.056618 203.569239 
L 259.597719 201.122833 
L 263.819577 192.982682 
L 256.277104 195.663346 
L 252.056618 203.569239 
z
" style="fill:#1f76b3;"/>
    <path clip-path="url(#p9b1b2826a3)" d="M 268.141524 176.279149 
L 275.773358 172.662692 
L 279.662163 182.347797 
L 272.08341 185.317244 
L 268.141524 176.279149 
z
" style="fill:#12466b;"/>
    <path clip-path="url(#p9b1b2826a3)" d="M 264.639817 292.137369 
L 272.193599 292.487054 
L 276.363232 285.717821 
L 268.816168 285.499301 
L 264.639817 292.137369 
z
" style="fill:#1f76b3;"/>
    <path clip-path="url(#p9b1b2826a3)" d="M 303.31825 158.828671 
L 311.098949 154.623442 
L 314.845497 159.775402 
L 307.107433 163.596702 
L 303.31825 158.828671 
z
" style="fill:#144e76;"/>
    <path clip-path="url(#p9b1b2826a3)" d="M 232.956713 188.09508 
L 240.466441 184.78467 
L 244.569903 205.766492 
L 237.135318 207.717651 
L 232.956713 188.09508 
z
" style="fill:#114061;"/>
    <path clip-path="url(#p9b1b2826a3)" d="M 162.690474 238.509147 
L 169.94656 237.931993 
L 174.166687 218.889529 
L 166.909396 220.661587 
L 162.690474 238.509147 
z
" style="fill:#1d70a9;"/>
    <path clip-path="url(#p9b1b2826a3)" d="M 287.30145 179.12141 
L 295.003708 175.63443 
L 299.009313 173.974793 
L 291.325216 177.377867 
L 287.30145 179.12141 
z
" style="fill:#1a6397;"/>
    <path clip-path="url(#p9b1b2826a3)" d="M 174.166687 218.889529 
L 181.469171 216.871833 
L 186.166377 231.191745 
L 178.897641 231.914115 
L 174.166687 218.889529 
z
" style="fill:#114162;"/>
    <path clip-path="url(#p9b1b2826a3)" d="M 138.984323 240.487573 
L 146.192066 239.811124 
L 150.912955 241.73068 
L 143.716813 241.90897 
L 138.984323 240.487573 
z
" style="fill:#134a70;"/>
    <path clip-path="url(#p9b1b2826a3)" d="M 215.672902 225.921982 
L 223.168065 223.996416 
L 227.475158 287.058905 
L 220.149296 285.386934 
L 215.672902 225.921982 
z
" style="fill:#103c5a;"/>
    <path clip-path="url(#p9b1b2826a3)" d="M 127.310199 248.804987 
L 134.497923 248.821558 
L 138.984323 240.487573 
L 131.812439 240.929893 
L 127.310199 248.804987 
z
" style="fill:#1e75b1;"/>
    <path clip-path="url(#p9b1b2826a3)" d="M 263.819577 192.982682 
L 271.420011 190.047554 
L 275.773358 172.662692 
L 268.141524 176.279149 
L 263.819577 192.982682 
z
" style="fill:#1e73ad;"/>
    <path clip-path="url(#p9b1b2826a3)" d="M 158.144678 241.320537 
L 165.413954 240.676416 
L 169.94656 237.931993 
L 162.690474 238.509147 
L 158.144678 241.320537 
z
" style="fill:#1a6498;"/>
    <path clip-path="url(#p9b1b2826a3)" d="M 299.009313 173.974793 
L 306.758395 170.309201 
L 311.098949 154.623442 
L 303.31825 158.828671 
L 299.009313 173.974793 
z
" style="fill:#1e74af;"/>
    <path clip-path="url(#p9b1b2826a3)" d="M 253.851103 284.390041 
L 261.312807 285.056149 
L 266.537255 198.353927 
L 258.843302 201.508855 
L 253.851103 284.390041 
z
" style="fill:#1c6ca3;"/>
    <path clip-path="url(#p9b1b2826a3)" d="M 272.193599 292.487054 
L 279.792438 292.610953 
L 283.95609 285.709913 
L 276.363232 285.717821 
L 272.193599 292.487054 
z
" style="fill:#1f76b3;"/>
    <path clip-path="url(#p9b1b2826a3)" d="M 228.644884 211.567467 
L 236.112605 209.430232 
L 240.466441 184.78467 
L 232.956713 188.09508 
L 228.644884 211.567467 
z
" style="fill:#1d70a9;"/>
    <path clip-path="url(#p9b1b2826a3)" d="M 259.597719 201.122833 
L 267.195518 198.424059 
L 271.420011 190.047554 
L 263.819577 192.982682 
L 259.597719 201.122833 
z
" style="fill:#1f76b3;"/>
    <path clip-path="url(#p9b1b2826a3)" d="M 275.773358 172.662692 
L 283.469246 168.780094 
L 287.30145 179.12141 
L 279.662163 182.347797 
L 275.773358 172.662692 
z
" style="fill:#12466a;"/>
    <path clip-path="url(#p9b1b2826a3)" d="M 169.94656 237.931993 
L 177.241974 237.119687 
L 181.469171 216.871833 
L 174.166687 218.889529 
L 169.94656 237.931993 
z
" style="fill:#1d70a9;"/>
    <path clip-path="url(#p9b1b2826a3)" d="M 240.466441 184.78467 
L 248.035355 181.211392 
L 252.056618 203.569239 
L 244.569903 205.766492 
L 240.466441 184.78467 
z
" style="fill:#114061;"/>
    <path clip-path="url(#p9b1b2826a3)" d="M 311.098949 154.623442 
L 318.950208 150.144907 
L 322.651901 155.687185 
L 314.845497 159.775402 
L 311.098949 154.623442 
z
" style="fill:#144e76;"/>
    <path clip-path="url(#p9b1b2826a3)" d="M 181.469171 216.871833 
L 188.819 214.6055 
L 193.476191 230.233815 
L 186.166377 231.191745 
L 181.469171 216.871833 
z
" style="fill:#114162;"/>
    <path clip-path="url(#p9b1b2826a3)" d="M 146.192066 239.811124 
L 153.437653 238.898276 
L 158.144678 241.320537 
L 150.912955 241.73068 
L 146.192066 239.811124 
z
" style="fill:#134a6f;"/>
    <path clip-path="url(#p9b1b2826a3)" d="M 223.168065 223.996416 
L 230.715069 221.821863 
L 234.834145 288.513782 
L 227.475158 287.058905 
L 223.168065 223.996416 
z
" style="fill:#103c5a;"/>
    <path clip-path="url(#p9b1b2826a3)" d="M 134.497923 248.821558 
L 141.71924 248.607041 
L 146.192066 239.811124 
L 138.984323 240.487573 
L 134.497923 248.821558 
z
" style="fill:#1e75b1;"/>
    <path clip-path="url(#p9b1b2826a3)" d="M 295.003708 175.63443 
L 302.771444 171.88303 
L 306.758395 170.309201 
L 299.009313 173.974793 
L 295.003708 175.63443 
z
" style="fill:#1a6396;"/>
    <path clip-path="url(#p9b1b2826a3)" d="M 122.627603 252.031958 
L 129.827514 252.000309 
L 134.497923 248.821558 
L 127.310199 248.804987 
L 122.627603 252.031958 
z
" style="fill:#1b679c;"/>
    <path clip-path="url(#p9b1b2826a3)" d="M 165.413954 240.676416 
L 172.722798 239.796062 
L 177.241974 237.119687 
L 169.94656 237.931993 
L 165.413954 240.676416 
z
" style="fill:#1a6497;"/>
    <path clip-path="url(#p9b1b2826a3)" d="M 279.792438 292.610953 
L 287.438461 292.5072 
L 291.596875 285.473656 
L 283.95609 285.709913 
L 279.792438 292.610953 
z
" style="fill:#1f76b3;"/>
    <path clip-path="url(#p9b1b2826a3)" d="M 261.312807 285.056149 
L 268.816168 285.499301 
L 274.29383 194.935716 
L 266.537255 198.353927 
L 261.312807 285.056149 
z
" style="fill:#1c6ca3;"/>
    <path clip-path="url(#p9b1b2826a3)" d="M 271.420011 190.047554 
L 279.080799 186.854463 
L 283.469246 168.780094 
L 275.773358 172.662692 
L 271.420011 190.047554 
z
" style="fill:#1e73ad;"/>
    <path clip-path="url(#p9b1b2826a3)" d="M 306.758395 170.309201 
L 314.575008 166.377161 
L 318.950208 150.144907 
L 311.098949 154.623442 
L 306.758395 170.309201 
z
" style="fill:#1e74af;"/>
    <path clip-path="url(#p9b1b2826a3)" d="M 236.112605 209.430232 
L 243.63337 207.043551 
L 248.035355 181.211392 
L 240.466441 184.78467 
L 236.112605 209.430232 
z
" style="fill:#1d70a9;"/>
    <path clip-path="url(#p9b1b2826a3)" d="M 267.195518 198.424059 
L 274.85239 195.469538 
L 279.080799 186.854463 
L 271.420011 190.047554 
L 267.195518 198.424059 
z
" style="fill:#1f76b3;"/>
    <path clip-path="url(#p9b1b2826a3)" d="M 177.241974 237.119687 
L 184.578757 236.069887 
L 188.819 214.6055 
L 181.469171 216.871833 
L 177.241974 237.119687 
z
" style="fill:#1d70a9;"/>
    <path clip-path="url(#p9b1b2826a3)" d="M 153.437653 238.898276 
L 160.72311 237.746619 
L 165.413954 240.676416 
L 158.144678 241.320537 
L 153.437653 238.898276 
z
" style="fill:#13496f;"/>
    <path clip-path="url(#p9b1b2826a3)" d="M 283.469246 168.780094 
L 291.231739 164.627261 
L 295.003708 175.63443 
L 287.30145 179.12141 
L 283.469246 168.780094 
z
" style="fill:#12466a;"/>
    <path clip-path="url(#p9b1b2826a3)" d="M 230.715069 221.821863 
L 238.316225 219.395182 
L 242.228155 289.750398 
L 234.834145 288.513782 
L 230.715069 221.821863 
z
" style="fill:#103c5a;"/>
    <path clip-path="url(#p9b1b2826a3)" d="M 141.71924 248.607041 
L 148.976106 248.159396 
L 153.437653 238.898276 
L 146.192066 239.811124 
L 141.71924 248.607041 
z
" style="fill:#1e75b1;"/>
    <path clip-path="url(#p9b1b2826a3)" d="M 188.819 214.6055 
L 196.21838 212.087372 
L 200.82914 229.037927 
L 193.476191 230.233815 
L 188.819 214.6055 
z
" style="fill:#114162;"/>
    <path clip-path="url(#p9b1b2826a3)" d="M 129.827514 252.000309 
L 137.061133 251.736757 
L 141.71924 248.607041 
L 134.497923 248.821558 
L 129.827514 252.000309 
z
" style="fill:#1b679b;"/>
    <path clip-path="url(#p9b1b2826a3)" d="M 248.035355 181.211392 
L 255.665909 177.371324 
L 259.597719 201.122833 
L 252.056618 203.569239 
L 248.035355 181.211392 
z
" style="fill:#114061;"/>
    <path clip-path="url(#p9b1b2826a3)" d="M 318.950208 150.144907 
L 326.874726 145.38861 
L 330.529265 151.327884 
L 322.651901 155.687185 
L 318.950208 150.144907 
z
" style="fill:#144e76;"/>
    <path clip-path="url(#p9b1b2826a3)" d="M 287.438461 292.5072 
L 295.133846 292.173806 
L 299.287769 285.007002 
L 291.596875 285.473656 
L 287.438461 292.5072 
z
" style="fill:#1f76b3;"/>
    <path clip-path="url(#p9b1b2826a3)" d="M 172.722798 239.796062 
L 180.073267 238.677081 
L 184.578757 236.069887 
L 177.241974 237.119687 
L 172.722798 239.796062 
z
" style="fill:#1a6497;"/>
    <path clip-path="url(#p9b1b2826a3)" d="M 302.771444 171.88303 
L 310.607231 167.863202 
L 314.575008 166.377161 
L 306.758395 170.309201 
L 302.771444 171.88303 
z
" style="fill:#1a6396;"/>
    <path clip-path="url(#p9b1b2826a3)" d="M 268.816168 285.499301 
L 276.363232 285.717821 
L 282.115583 191.250325 
L 274.29383 194.935716 
L 268.816168 285.499301 
z
" style="fill:#1c6ca3;"/>
    <path clip-path="url(#p9b1b2826a3)" d="M 117.806838 252.417904 
L 125.015194 252.02666 
L 129.827514 252.000309 
L 122.627603 252.031958 
L 117.806838 252.417904 
z
" style="fill:#154f78;"/>
    <path clip-path="url(#p9b1b2826a3)" d="M 279.080799 186.854463 
L 286.8044 183.399732 
L 291.231739 164.627261 
L 283.469246 168.780094 
L 279.080799 186.854463 
z
" style="fill:#1e73ad;"/>
    <path clip-path="url(#p9b1b2826a3)" d="M 184.578757 236.069887 
L 191.958995 234.780114 
L 196.21838 212.087372 
L 188.819 214.6055 
L 184.578757 236.069887 
z
" style="fill:#1d70a9;"/>
    <path clip-path="url(#p9b1b2826a3)" d="M 243.63337 207.043551 
L 251.209482 204.404217 
L 255.665909 177.371324 
L 248.035355 181.211392 
L 243.63337 207.043551 
z
" style="fill:#1d70a9;"/>
    <path clip-path="url(#p9b1b2826a3)" d="M 314.575008 166.377161 
L 322.461775 162.174556 
L 326.874726 145.38861 
L 318.950208 150.144907 
L 314.575008 166.377161 
z
" style="fill:#1e74af;"/>
    <path clip-path="url(#p9b1b2826a3)" d="M 160.72311 237.746619 
L 168.050507 236.353604 
L 172.722798 239.796062 
L 165.413954 240.676416 
L 160.72311 237.746619 
z
" style="fill:#13496f;"/>
    <path clip-path="url(#p9b1b2826a3)" d="M 238.316225 219.395182 
L 245.973898 216.713071 
L 249.659119 290.767479 
L 242.228155 289.750398 
L 238.316225 219.395182 
z
" style="fill:#103c5a;"/>
    <path clip-path="url(#p9b1b2826a3)" d="M 137.061133 251.736757 
L 144.330428 251.239223 
L 148.976106 248.159396 
L 141.71924 248.607041 
L 137.061133 251.736757 
z
" style="fill:#1b669b;"/>
    <path clip-path="url(#p9b1b2826a3)" d="M 148.976106 248.159396 
L 156.270514 247.476452 
L 160.72311 237.746619 
L 153.437653 238.898276 
L 148.976106 248.159396 
z
" style="fill:#1e75b0;"/>
    <path clip-path="url(#p9b1b2826a3)" d="M 274.85239 195.469538 
L 282.57077 192.255722 
L 286.8044 183.399732 
L 279.080799 186.854463 
L 274.85239 195.469538 
z
" style="fill:#1f76b3;"/>
    <path clip-path="url(#p9b1b2826a3)" d="M 196.21838 212.087372 
L 203.669568 209.314131 
L 208.227327 227.601543 
L 200.82914 229.037927 
L 196.21838 212.087372 
z
" style="fill:#114061;"/>
    <path clip-path="url(#p9b1b2826a3)" d="M 291.231739 164.627261 
L 299.063458 160.19991 
L 302.771444 171.88303 
L 295.003708 175.63443 
L 291.231739 164.627261 
z
" style="fill:#12466a;"/>
    <path clip-path="url(#p9b1b2826a3)" d="M 255.665909 177.371324 
L 263.360622 173.260359 
L 267.195518 198.424059 
L 259.597719 201.122833 
L 255.665909 177.371324 
z
" style="fill:#114061;"/>
    <path clip-path="url(#p9b1b2826a3)" d="M 180.073267 238.677081 
L 187.467462 237.316939 
L 191.958995 234.780114 
L 184.578757 236.069887 
L 180.073267 238.677081 
z
" style="fill:#1a6497;"/>
    <path clip-path="url(#p9b1b2826a3)" d="M 276.363232 285.717821 
L 283.95609 285.709913 
L 290.005141 187.293668 
L 282.115583 191.250325 
L 276.363232 285.717821 
z
" style="fill:#1c6ca3;"/>
    <path clip-path="url(#p9b1b2826a3)" d="M 125.015194 252.02666 
L 132.258836 251.40026 
L 137.061133 251.736757 
L 129.827514 252.000309 
L 125.015194 252.02666 
z
" style="fill:#154f77;"/>
    <path clip-path="url(#p9b1b2826a3)" d="M 326.874726 145.38861 
L 334.875282 140.349894 
L 338.480281 146.693138 
L 330.529265 151.327884 
L 326.874726 145.38861 
z
" style="fill:#144e76;"/>
    <path clip-path="url(#p9b1b2826a3)" d="M 113.234838 260.65808 
L 120.461522 260.757629 
L 125.015194 252.02666 
L 117.806838 252.417904 
L 113.234838 260.65808 
z
" style="fill:#1e74b0;"/>
    <path clip-path="url(#p9b1b2826a3)" d="M 310.607231 167.863202 
L 318.513718 163.570746 
L 322.461775 162.174556 
L 314.575008 166.377161 
L 310.607231 167.863202 
z
" style="fill:#1a6396;"/>
    <path clip-path="url(#p9b1b2826a3)" d="M 144.330428 251.239223 
L 151.637407 250.505494 
L 156.270514 247.476452 
L 148.976106 248.159396 
L 144.330428 251.239223 
z
" style="fill:#1b669b;"/>
    <path clip-path="url(#p9b1b2826a3)" d="M 191.958995 234.780114 
L 199.384819 233.247746 
L 203.669568 209.314131 
L 196.21838 212.087372 
L 191.958995 234.780114 
z
" style="fill:#1d70a9;"/>
    <path clip-path="url(#p9b1b2826a3)" d="M 168.050507 236.353604 
L 175.421962 234.716537 
L 180.073267 238.677081 
L 172.722798 239.796062 
L 168.050507 236.353604 
z
" style="fill:#13496e;"/>
    <path clip-path="url(#p9b1b2826a3)" d="M 156.270514 247.476452 
L 163.6045 246.555902 
L 168.050507 236.353604 
L 160.72311 237.746619 
L 156.270514 247.476452 
z
" style="fill:#1e75b0;"/>
    <path clip-path="url(#p9b1b2826a3)" d="M 245.973898 216.713071 
L 253.690519 213.772059 
L 257.129005 291.563637 
L 249.659119 290.767479 
L 245.973898 216.713071 
z
" style="fill:#103c5a;"/>
    <path clip-path="url(#p9b1b2826a3)" d="M 286.8044 183.399732 
L 294.593338 179.679511 
L 299.063458 160.19991 
L 291.231739 164.627261 
L 286.8044 183.399732 
z
" style="fill:#1e73ad;"/>
    <path clip-path="url(#p9b1b2826a3)" d="M 251.209482 204.404217 
L 258.843302 201.508855 
L 263.360622 173.260359 
L 255.665909 177.371324 
L 251.209482 204.404217 
z
" style="fill:#1d70a9;"/>
    <path clip-path="url(#p9b1b2826a3)" d="M 282.57077 192.255722 
L 290.353158 188.77889 
L 294.593338 179.679511 
L 286.8044 183.399732 
L 282.57077 192.255722 
z
" style="fill:#1f76b3;"/>
    <path clip-path="url(#p9b1b2826a3)" d="M 203.669568 209.314131 
L 211.174883 206.282292 
L 215.672902 225.921982 
L 208.227327 227.601543 
L 203.669568 209.314131 
z
" style="fill:#114061;"/>
    <path clip-path="url(#p9b1b2826a3)" d="M 322.461775 162.174556 
L 330.421388 157.69708 
L 334.875282 140.349894 
L 326.874726 145.38861 
L 322.461775 162.174556 
z
" style="fill:#1e74af;"/>
    <path clip-path="url(#p9b1b2826a3)" d="M 187.467462 237.316939 
L 194.907533 235.712958 
L 199.384819 233.247746 
L 191.958995 234.780114 
L 187.467462 237.316939 
z
" style="fill:#1a6497;"/>
    <path clip-path="url(#p9b1b2826a3)" d="M 132.258836 251.40026 
L 139.53977 250.536418 
L 144.330428 251.239223 
L 137.061133 251.736757 
L 132.258836 251.40026 
z
" style="fill:#144f77;"/>
    <path clip-path="url(#p9b1b2826a3)" d="M 120.461522 260.757629 
L 127.721066 260.625431 
L 132.258836 251.40026 
L 125.015194 252.02666 
L 120.461522 260.757629 
z
" style="fill:#1e74b0;"/>
    <path clip-path="url(#p9b1b2826a3)" d="M 283.95609 285.709913 
L 291.596875 285.473656 
L 297.965209 183.061465 
L 290.005141 187.293668 
L 283.95609 285.709913 
z
" style="fill:#1c6ca3;"/>
    <path clip-path="url(#p9b1b2826a3)" d="M 263.360622 173.260359 
L 271.122086 168.874196 
L 274.85239 195.469538 
L 267.195518 198.424059 
L 263.360622 173.260359 
z
" style="fill:#114061;"/>
    <path clip-path="url(#p9b1b2826a3)" d="M 299.063458 160.19991 
L 306.967104 155.493557 
L 310.607231 167.863202 
L 302.771444 171.88303 
L 299.063458 160.19991 
z
" style="fill:#12466a;"/>
    <path clip-path="url(#p9b1b2826a3)" d="M 151.637407 250.505494 
L 158.984119 249.53322 
L 163.6045 246.555902 
L 156.270514 247.476452 
L 151.637407 250.505494 
z
" style="fill:#1b669b;"/>
    <path clip-path="url(#p9b1b2826a3)" d="M 318.513718 163.570746 
L 326.493629 159.001268 
L 330.421388 157.69708 
L 322.461775 162.174556 
L 318.513718 163.570746 
z
" style="fill:#1a6396;"/>
    <path clip-path="url(#p9b1b2826a3)" d="M 163.6045 246.555902 
L 170.980144 245.3953 
L 175.421962 234.716537 
L 168.050507 236.353604 
L 163.6045 246.555902 
z
" style="fill:#1e75b0;"/>
    <path clip-path="url(#p9b1b2826a3)" d="M 175.421962 234.716537 
L 182.83964 232.832573 
L 187.467462 237.316939 
L 180.073267 238.677081 
L 175.421962 234.716537 
z
" style="fill:#13496e;"/>
    <path clip-path="url(#p9b1b2826a3)" d="M 199.384819 233.247746 
L 206.858411 231.470011 
L 211.174883 206.282292 
L 203.669568 209.314131 
L 199.384819 233.247746 
z
" style="fill:#1d70a9;"/>
    <path clip-path="url(#p9b1b2826a3)" d="M 253.690519 213.772059 
L 261.46858 210.568501 
L 264.639817 292.137369 
L 257.129005 291.563637 
L 253.690519 213.772059 
z
" style="fill:#103c5a;"/>
    <path clip-path="url(#p9b1b2826a3)" d="M 294.593338 179.679511 
L 302.45021 175.689762 
L 306.967104 155.493557 
L 299.063458 160.19991 
L 294.593338 179.679511 
z
" style="fill:#1e73ad;"/>
    <path clip-path="url(#p9b1b2826a3)" d="M 258.843302 201.508855 
L 266.537255 198.353927 
L 271.122086 168.874196 
L 263.360622 173.260359 
L 258.843302 201.508855 
z
" style="fill:#1d70a9;"/>
    <path clip-path="url(#p9b1b2826a3)" d="M 127.721066 260.625431 
L 135.015445 260.259451 
L 139.53977 250.536418 
L 132.258836 251.40026 
L 127.721066 260.625431 
z
" style="fill:#1e74b0;"/>
    <path clip-path="url(#p9b1b2826a3)" d="M 211.174883 206.282292 
L 218.736701 202.988193 
L 223.168065 223.996416 
L 215.672902 225.921982 
L 211.174883 206.282292 
z
" style="fill:#114061;"/>
    <path clip-path="url(#p9b1b2826a3)" d="M 139.53977 250.536418 
L 146.860044 249.432706 
L 151.637407 250.505494 
L 144.330428 251.239223 
L 139.53977 250.536418 
z
" style="fill:#144e76;"/>
    <path clip-path="url(#p9b1b2826a3)" d="M 194.907533 235.712958 
L 202.39568 233.862309 
L 206.858411 231.470011 
L 199.384819 233.247746 
L 194.907533 235.712958 
z
" style="fill:#1a6497;"/>
    <path clip-path="url(#p9b1b2826a3)" d="M 290.353158 188.77889 
L 298.202124 185.035139 
L 302.45021 175.689762 
L 294.593338 179.679511 
L 290.353158 188.77889 
z
" style="fill:#1f76b3;"/>
    <path clip-path="url(#p9b1b2826a3)" d="M 291.596875 285.473656 
L 299.287769 285.007002 
L 305.998567 178.549235 
L 297.965209 183.061465 
L 291.596875 285.473656 
z
" style="fill:#1c6ca3;"/>
    <path clip-path="url(#p9b1b2826a3)" d="M 271.122086 168.874196 
L 278.952967 164.208334 
L 282.57077 192.255722 
L 274.85239 195.469538 
L 271.122086 168.874196 
z
" style="fill:#114061;"/>
    <path clip-path="url(#p9b1b2826a3)" d="M 306.967104 155.493557 
L 314.945452 150.503509 
L 318.513718 163.570746 
L 310.607231 167.863202 
L 306.967104 155.493557 
z
" style="fill:#12466a;"/>
    <path clip-path="url(#p9b1b2826a3)" d="M 158.984119 249.53322 
L 166.372657 248.319912 
L 170.980144 245.3953 
L 163.6045 246.555902 
L 158.984119 249.53322 
z
" style="fill:#1b669a;"/>
    <path clip-path="url(#p9b1b2826a3)" d="M 170.980144 245.3953 
L 178.399572 243.992056 
L 182.83964 232.832573 
L 175.421962 234.716537 
L 170.980144 245.3953 
z
" style="fill:#1e74b0;"/>
    <path clip-path="url(#p9b1b2826a3)" d="M 182.83964 232.832573 
L 190.305758 230.698714 
L 194.907533 235.712958 
L 187.467462 237.316939 
L 182.83964 232.832573 
z
" style="fill:#13496e;"/>
    <path clip-path="url(#p9b1b2826a3)" d="M 261.46858 210.568501 
L 269.310642 207.098569 
L 272.193599 292.487054 
L 264.639817 292.137369 
L 261.46858 210.568501 
z
" style="fill:#103c5a;"/>
    <path clip-path="url(#p9b1b2826a3)" d="M 206.858411 231.470011 
L 214.382004 229.443989 
L 218.736701 202.988193 
L 211.174883 206.282292 
L 206.858411 231.470011 
z
" style="fill:#1d70a9;"/>
    <path clip-path="url(#p9b1b2826a3)" d="M 135.015445 260.259451 
L 142.346672 259.657519 
L 146.860044 249.432706 
L 139.53977 250.536418 
L 135.015445 260.259451 
z
" style="fill:#1e74b0;"/>
    <path clip-path="url(#p9b1b2826a3)" d="M 146.860044 249.432706 
L 154.221753 248.086554 
L 158.984119 249.53322 
L 151.637407 250.505494 
L 146.860044 249.432706 
z
" style="fill:#144e76;"/>
    <path clip-path="url(#p9b1b2826a3)" d="M 202.39568 233.862309 
L 209.934154 231.762009 
L 214.382004 229.443989 
L 206.858411 231.470011 
L 202.39568 233.862309 
z
" style="fill:#1a6497;"/>
    <path clip-path="url(#p9b1b2826a3)" d="M 218.736701 202.988193 
L 226.357462 199.427994 
L 230.715069 221.821863 
L 223.168065 223.996416 
L 218.736701 202.988193 
z
" style="fill:#114061;"/>
    <path clip-path="url(#p9b1b2826a3)" d="M 266.537255 198.353927 
L 274.29383 194.935716 
L 278.952967 164.208334 
L 271.122086 168.874196 
L 266.537255 198.353927 
z
" style="fill:#1d70a9;"/>
    <path clip-path="url(#p9b1b2826a3)" d="M 302.45021 175.689762 
L 310.377684 171.426258 
L 314.945452 150.503509 
L 306.967104 155.493557 
L 302.45021 175.689762 
z
" style="fill:#1e73ad;"/>
    <path clip-path="url(#p9b1b2826a3)" d="M 298.202124 185.035139 
L 306.12031 181.020381 
L 310.377684 171.426258 
L 302.45021 175.689762 
L 298.202124 185.035139 
z
" style="fill:#1f76b3;"/>
    <path clip-path="url(#p9b1b2826a3)" d="M 166.372657 248.319912 
L 173.805163 246.862932 
L 178.399572 243.992056 
L 170.980144 245.3953 
L 166.372657 248.319912 
z
" style="fill:#1b669a;"/>
    <path clip-path="url(#p9b1b2826a3)" d="M 178.399572 243.992056 
L 185.864957 242.343433 
L 190.305758 230.698714 
L 182.83964 232.832573 
L 178.399572 243.992056 
z
" style="fill:#1e74b0;"/>
    <path clip-path="url(#p9b1b2826a3)" d="M 278.952967 164.208334 
L 286.85601 159.25806 
L 290.353158 188.77889 
L 282.57077 192.255722 
L 278.952967 164.208334 
z
" style="fill:#114061;"/>
    <path clip-path="url(#p9b1b2826a3)" d="M 190.305758 230.698714 
L 197.822586 228.311801 
L 202.39568 233.862309 
L 194.907533 235.712958 
L 190.305758 230.698714 
z
" style="fill:#13496e;"/>
    <path clip-path="url(#p9b1b2826a3)" d="M 269.310642 207.098569 
L 277.219336 203.35825 
L 279.792438 292.610953 
L 272.193599 292.487054 
L 269.310642 207.098569 
z
" style="fill:#103c5a;"/>
    <path clip-path="url(#p9b1b2826a3)" d="M 314.945452 150.503509 
L 323.001367 145.224861 
L 326.493629 159.001268 
L 318.513718 163.570746 
L 314.945452 150.503509 
z
" style="fill:#12466a;"/>
    <path clip-path="url(#p9b1b2826a3)" d="M 214.382004 229.443989 
L 221.957885 227.1666 
L 226.357462 199.427994 
L 218.736701 202.988193 
L 214.382004 229.443989 
z
" style="fill:#1d70a9;"/>
    <path clip-path="url(#p9b1b2826a3)" d="M 142.346672 259.657519 
L 149.716803 258.817328 
L 154.221753 248.086554 
L 146.860044 249.432706 
L 142.346672 259.657519 
z
" style="fill:#1e74b0;"/>
    <path clip-path="url(#p9b1b2826a3)" d="M 154.221753 248.086554 
L 161.627035 246.495244 
L 166.372657 248.319912 
L 158.984119 249.53322 
L 154.221753 248.086554 
z
" style="fill:#144e76;"/>
    <path clip-path="url(#p9b1b2826a3)" d="M 209.934154 231.762009 
L 217.525263 229.408918 
L 221.957885 227.1666 
L 214.382004 229.443989 
L 209.934154 231.762009 
z
" style="fill:#1a6497;"/>
    <path clip-path="url(#p9b1b2826a3)" d="M 226.357462 199.427994 
L 234.039673 195.597668 
L 238.316225 219.395182 
L 230.715069 221.821863 
L 226.357462 199.427994 
z
" style="fill:#114061;"/>
    <path clip-path="url(#p9b1b2826a3)" d="M 274.29383 194.935716 
L 282.115583 191.250325 
L 286.85601 159.25806 
L 278.952967 164.208334 
L 274.29383 194.935716 
z
" style="fill:#1d70a9;"/>
    <path clip-path="url(#p9b1b2826a3)" d="M 310.377684 171.426258 
L 318.378506 166.884571 
L 323.001367 145.224861 
L 314.945452 150.503509 
L 310.377684 171.426258 
z
" style="fill:#1e73ad;"/>
    <path clip-path="url(#p9b1b2826a3)" d="M 173.805163 246.862932 
L 181.283825 245.159497 
L 185.864957 242.343433 
L 178.399572 243.992056 
L 173.805163 246.862932 
z
" style="fill:#1b669a;"/>
    <path clip-path="url(#p9b1b2826a3)" d="M 306.12031 181.020381 
L 314.110432 176.730332 
L 318.378506 166.884571 
L 310.377684 171.426258 
L 306.12031 181.020381 
z
" style="fill:#1f76b2;"/>
    <path clip-path="url(#p9b1b2826a3)" d="M 185.864957 242.343433 
L 193.378523 240.446542 
L 197.822586 228.311801 
L 190.305758 230.698714 
L 185.864957 242.343433 
z
" style="fill:#1e74b0;"/>
    <path clip-path="url(#p9b1b2826a3)" d="M 197.822586 228.311801 
L 205.392451 225.668511 
L 209.934154 231.762009 
L 202.39568 233.862309 
L 197.822586 228.311801 
z
" style="fill:#13486e;"/>
    <path clip-path="url(#p9b1b2826a3)" d="M 277.219336 203.35825 
L 285.197369 199.343337 
L 287.438461 292.5072 
L 279.792438 292.610953 
L 277.219336 203.35825 
z
" style="fill:#103c5a;"/>
    <path clip-path="url(#p9b1b2826a3)" d="M 149.716803 258.817328 
L 157.127935 257.736431 
L 161.627035 246.495244 
L 154.221753 248.086554 
L 149.716803 258.817328 
z
" style="fill:#1e74b0;"/>
    <path clip-path="url(#p9b1b2826a3)" d="M 286.85601 159.25806 
L 294.83404 154.018447 
L 298.202124 185.035139 
L 290.353158 188.77889 
L 286.85601 159.25806 
z
" style="fill:#114060;"/>
    <path clip-path="url(#p9b1b2826a3)" d="M 161.627035 246.495244 
L 169.078079 244.655906 
L 173.805163 246.862932 
L 166.372657 248.319912 
L 161.627035 246.495244 
z
" style="fill:#144e76;"/>
    <path clip-path="url(#p9b1b2826a3)" d="M 221.957885 227.1666 
L 229.5884 224.634604 
L 234.039673 195.597668 
L 226.357462 199.427994 
L 221.957885 227.1666 
z
" style="fill:#1d70a9;"/>
    <path clip-path="url(#p9b1b2826a3)" d="M 217.525263 229.408918 
L 225.171371 226.799729 
L 229.5884 224.634604 
L 221.957885 227.1666 
L 217.525263 229.408918 
z
" style="fill:#1a6497;"/>
    <path clip-path="url(#p9b1b2826a3)" d="M 234.039673 195.597668 
L 241.78591 191.492996 
L 245.973898 216.713071 
L 238.316225 219.395182 
L 234.039673 195.597668 
z
" style="fill:#114061;"/>
    <path clip-path="url(#p9b1b2826a3)" d="M 181.283825 245.159497 
L 188.810883 243.206668 
L 193.378523 240.446542 
L 185.864957 242.343433 
L 181.283825 245.159497 
z
" style="fill:#1b669a;"/>
    <path clip-path="url(#p9b1b2826a3)" d="M 282.115583 191.250325 
L 290.005141 187.293668 
L 294.83404 154.018447 
L 286.85601 159.25806 
L 282.115583 191.250325 
z
" style="fill:#1d70a9;"/>
    <path clip-path="url(#p9b1b2826a3)" d="M 193.378523 240.446542 
L 200.942549 238.298336 
L 205.392451 225.668511 
L 197.822586 228.311801 
L 193.378523 240.446542 
z
" style="fill:#1e74b0;"/>
    <path clip-path="url(#p9b1b2826a3)" d="M 157.127935 257.736431 
L 164.582214 256.412237 
L 169.078079 244.655906 
L 161.627035 246.495244 
L 157.127935 257.736431 
z
" style="fill:#1e74b0;"/>
    <path clip-path="url(#p9b1b2826a3)" d="M 205.392451 225.668511 
L 213.01774 222.765349 
L 217.525263 229.408918 
L 209.934154 231.762009 
L 205.392451 225.668511 
z
" style="fill:#13486d;"/>
    <path clip-path="url(#p9b1b2826a3)" d="M 285.197369 199.343337 
L 293.247524 195.049421 
L 295.133846 292.173806 
L 287.438461 292.5072 
L 285.197369 199.343337 
z
" style="fill:#103c5a;"/>
    <path clip-path="url(#p9b1b2826a3)" d="M 169.078079 244.655906 
L 176.577126 242.565515 
L 181.283825 245.159497 
L 173.805163 246.862932 
L 169.078079 244.655906 
z
" style="fill:#144e75;"/>
    <path clip-path="url(#p9b1b2826a3)" d="M 229.5884 224.634604 
L 237.275952 221.844593 
L 241.78591 191.492996 
L 234.039673 195.597668 
L 229.5884 224.634604 
z
" style="fill:#1d70a9;"/>
    <path clip-path="url(#p9b1b2826a3)" d="M 294.83404 154.018447 
L 302.88997 148.484342 
L 306.12031 181.020381 
L 298.202124 185.035139 
L 294.83404 154.018447 
z
" style="fill:#114060;"/>
    <path clip-path="url(#p9b1b2826a3)" d="M 225.171371 226.799729 
L 232.874904 223.930965 
L 237.275952 221.844593 
L 229.5884 224.634604 
L 225.171371 226.799729 
z
" style="fill:#1a6497;"/>
    <path clip-path="url(#p9b1b2826a3)" d="M 188.810883 243.206668 
L 196.388633 241.001346 
L 200.942549 238.298336 
L 193.378523 240.446542 
L 188.810883 243.206668 
z
" style="fill:#1b669a;"/>
    <path clip-path="url(#p9b1b2826a3)" d="M 241.78591 191.492996 
L 249.598823 187.109556 
L 253.690519 213.772059 
L 245.973898 216.713071 
L 241.78591 191.492996 
z
" style="fill:#114061;"/>
    <path clip-path="url(#p9b1b2826a3)" d="M 200.942549 238.298336 
L 208.559369 235.895607 
L 213.01774 222.765349 
L 205.392451 225.668511 
L 200.942549 238.298336 
z
" style="fill:#1e74b0;"/>
    <path clip-path="url(#p9b1b2826a3)" d="M 164.582214 256.412237 
L 172.081834 254.842004 
L 176.577126 242.565515 
L 169.078079 244.655906 
L 164.582214 256.412237 
z
" style="fill:#1e74b0;"/>
    <path clip-path="url(#p9b1b2826a3)" d="M 290.005141 187.293668 
L 297.965209 183.061465 
L 302.88997 148.484342 
L 294.83404 154.018447 
L 290.005141 187.293668 
z
" style="fill:#1d70a9;"/>
    <path clip-path="url(#p9b1b2826a3)" d="M 213.01774 222.765349 
L 220.700902 219.598645 
L 225.171371 226.799729 
L 217.525263 229.408918 
L 213.01774 222.765349 
z
" style="fill:#13486d;"/>
    <path clip-path="url(#p9b1b2826a3)" d="M 176.577126 242.565515 
L 184.126471 240.220882 
L 188.810883 243.206668 
L 181.283825 245.159497 
L 176.577126 242.565515 
z
" style="fill:#144d75;"/>
    <path clip-path="url(#p9b1b2826a3)" d="M 237.275952 221.844593 
L 245.023009 218.792986 
L 249.598823 187.109556 
L 241.78591 191.492996 
L 237.275952 221.844593 
z
" style="fill:#1d70a9;"/>
    <path clip-path="url(#p9b1b2826a3)" d="M 232.874904 223.930965 
L 240.638352 220.798976 
L 245.023009 218.792986 
L 237.275952 221.844593 
L 232.874904 223.930965 
z
" style="fill:#1a6497;"/>
    <path clip-path="url(#p9b1b2826a3)" d="M 302.88997 148.484342 
L 311.026803 142.650356 
L 314.110432 176.730332 
L 306.12031 181.020381 
L 302.88997 148.484342 
z
" style="fill:#114060;"/>
    <path clip-path="url(#p9b1b2826a3)" d="M 196.388633 241.001346 
L 204.019426 238.540269 
L 208.559369 235.895607 
L 200.942549 238.298336 
L 196.388633 241.001346 
z
" style="fill:#1b669a;"/>
    <path clip-path="url(#p9b1b2826a3)" d="M 249.598823 187.109556 
L 257.481138 182.44272 
L 261.46858 210.568501 
L 253.690519 213.772059 
L 249.598823 187.109556 
z
" style="fill:#114061;"/>
    <path clip-path="url(#p9b1b2826a3)" d="M 172.081834 254.842004 
L 179.629039 253.022839 
L 184.126471 240.220882 
L 176.577126 242.565515 
L 172.081834 254.842004 
z
" style="fill:#1e74b0;"/>
    <path clip-path="url(#p9b1b2826a3)" d="M 208.559369 235.895607 
L 216.231375 233.234978 
L 220.700902 219.598645 
L 213.01774 222.765349 
L 208.559369 235.895607 
z
" style="fill:#1e74b0;"/>
    <path clip-path="url(#p9b1b2826a3)" d="M 184.126471 240.220882 
L 191.728467 237.618651 
L 196.388633 241.001346 
L 188.810883 243.206668 
L 184.126471 240.220882 
z
" style="fill:#144d75;"/>
    <path clip-path="url(#p9b1b2826a3)" d="M 220.700902 219.598645 
L 228.444452 216.164547 
L 232.874904 223.930965 
L 225.171371 226.799729 
L 220.700902 219.598645 
z
" style="fill:#13486d;"/>
    <path clip-path="url(#p9b1b2826a3)" d="M 297.965209 183.061465 
L 305.998567 178.549235 
L 311.026803 142.650356 
L 302.88997 148.484342 
L 297.965209 183.061465 
z
" style="fill:#1d70a9;"/>
    <path clip-path="url(#p9b1b2826a3)" d="M 245.023009 218.792986 
L 252.832104 215.476023 
L 257.481138 182.44272 
L 249.598823 187.109556 
L 245.023009 218.792986 
z
" style="fill:#1d70a9;"/>
    <path clip-path="url(#p9b1b2826a3)" d="M 240.638352 220.798976 
L 248.464272 217.399926 
L 252.832104 215.476023 
L 245.023009 218.792986 
L 240.638352 220.798976 
z
" style="fill:#1a6396;"/>
    <path clip-path="url(#p9b1b2826a3)" d="M 204.019426 238.540269 
L 211.705674 235.820005 
L 216.231375 233.234978 
L 208.559369 235.895607 
L 204.019426 238.540269 
z
" style="fill:#1a669a;"/>
    <path clip-path="url(#p9b1b2826a3)" d="M 179.629039 253.022839 
L 187.226128 250.951686 
L 191.728467 237.618651 
L 184.126471 240.220882 
L 179.629039 253.022839 
z
" style="fill:#1e74b0;"/>
    <path clip-path="url(#p9b1b2826a3)" d="M 216.231375 233.234978 
L 223.961024 230.3129 
L 228.444452 216.164547 
L 220.700902 219.598645 
L 216.231375 233.234978 
z
" style="fill:#1e74b0;"/>
    <path clip-path="url(#p9b1b2826a3)" d="M 257.481138 182.44272 
L 265.435663 177.487641 
L 269.310642 207.098569 
L 261.46858 210.568501 
L 257.481138 182.44272 
z
" style="fill:#114061;"/>
    <path clip-path="url(#p9b1b2826a3)" d="M 191.728467 237.618651 
L 199.385526 234.755292 
L 204.019426 238.540269 
L 196.388633 241.001346 
L 191.728467 237.618651 
z
" style="fill:#144d75;"/>
    <path clip-path="url(#p9b1b2826a3)" d="M 228.444452 216.164547 
L 236.250973 212.459011 
L 240.638352 220.798976 
L 232.874904 223.930965 
L 228.444452 216.164547 
z
" style="fill:#13486d;"/>
    <path clip-path="url(#p9b1b2826a3)" d="M 252.832104 215.476023 
L 260.705839 211.889756 
L 265.435663 177.487641 
L 257.481138 182.44272 
L 252.832104 215.476023 
z
" style="fill:#1d70a9;"/>
    <path clip-path="url(#p9b1b2826a3)" d="M 248.464272 217.399926 
L 256.355293 213.729792 
L 260.705839 211.889756 
L 252.832104 215.476023 
L 248.464272 217.399926 
z
" style="fill:#1a6396;"/>
    <path clip-path="url(#p9b1b2826a3)" d="M 211.705674 235.820005 
L 219.449851 232.836944 
L 223.961024 230.3129 
L 216.231375 233.234978 
L 211.705674 235.820005 
z
" style="fill:#1a669a;"/>
    <path clip-path="url(#p9b1b2826a3)" d="M 187.226128 250.951686 
L 194.875456 248.62533 
L 199.385526 234.755292 
L 191.728467 237.618651 
L 187.226128 250.951686 
z
" style="fill:#1e74af;"/>
    <path clip-path="url(#p9b1b2826a3)" d="M 223.961024 230.3129 
L 231.750835 227.125643 
L 236.250973 212.459011 
L 228.444452 216.164547 
L 223.961024 230.3129 
z
" style="fill:#1e74b0;"/>
    <path clip-path="url(#p9b1b2826a3)" d="M 199.385526 234.755292 
L 207.100124 231.627098 
L 211.705674 235.820005 
L 204.019426 238.540269 
L 199.385526 234.755292 
z
" style="fill:#144d75;"/>
    <path clip-path="url(#p9b1b2826a3)" d="M 265.435663 177.487641 
L 273.465288 172.239249 
L 277.219336 203.35825 
L 269.310642 207.098569 
L 265.435663 177.487641 
z
" style="fill:#114061;"/>
    <path clip-path="url(#p9b1b2826a3)" d="M 236.250973 212.459011 
L 244.123121 208.477799 
L 248.464272 217.399926 
L 240.638352 220.798976 
L 236.250973 212.459011 
z
" style="fill:#13486d;"/>
    <path clip-path="url(#p9b1b2826a3)" d="M 260.705839 211.889756 
L 268.646891 208.030048 
L 273.465288 172.239249 
L 265.435663 177.487641 
L 260.705839 211.889756 
z
" style="fill:#1d70a9;"/>
    <path clip-path="url(#p9b1b2826a3)" d="M 256.355293 213.729792 
L 264.314114 209.784355 
L 268.646891 208.030048 
L 260.705839 211.889756 
L 256.355293 213.729792 
z
" style="fill:#1a6396;"/>
    <path clip-path="url(#p9b1b2826a3)" d="M 219.449851 232.836944 
L 227.254498 229.587297 
L 231.750835 227.125643 
L 223.961024 230.3129 
L 219.449851 232.836944 
z
" style="fill:#1a669a;"/>
    <path clip-path="url(#p9b1b2826a3)" d="M 194.875456 248.62533 
L 202.579438 246.040382 
L 207.100124 231.627098 
L 199.385526 234.755292 
L 194.875456 248.62533 
z
" style="fill:#1e74af;"/>
    <path clip-path="url(#p9b1b2826a3)" d="M 231.750835 227.125643 
L 239.603398 223.669292 
L 244.123121 208.477799 
L 236.250973 212.459011 
L 231.750835 227.125643 
z
" style="fill:#1e74b0;"/>
    <path clip-path="url(#p9b1b2826a3)" d="M 207.100124 231.627098 
L 214.874804 228.230174 
L 219.449851 232.836944 
L 211.705674 235.820005 
L 207.100124 231.627098 
z
" style="fill:#144d74;"/>
    <path clip-path="url(#p9b1b2826a3)" d="M 273.465288 172.239249 
L 281.572996 166.692237 
L 285.197369 199.343337 
L 277.219336 203.35825 
L 273.465288 172.239249 
z
" style="fill:#114060;"/>
    <path clip-path="url(#p9b1b2826a3)" d="M 244.123121 208.477799 
L 252.06363 204.216467 
L 256.355293 213.729792 
L 248.464272 217.399926 
L 244.123121 208.477799 
z
" style="fill:#13486d;"/>
    <path clip-path="url(#p9b1b2826a3)" d="M 227.254498 229.587297 
L 235.122224 226.067084 
L 239.603398 223.669292 
L 231.750835 227.125643 
L 227.254498 229.587297 
z
" style="fill:#1a669a;"/>
    <path clip-path="url(#p9b1b2826a3)" d="M 264.314114 209.784355 
L 272.343515 205.559192 
L 276.658012 203.892559 
L 268.646891 208.030048 
L 264.314114 209.784355 
z
" style="fill:#1a6396;"/>
    <path clip-path="url(#p9b1b2826a3)" d="M 268.646891 208.030048 
L 276.658012 203.892559 
L 281.572996 166.692237 
L 273.465288 172.239249 
L 268.646891 208.030048 
z
" style="fill:#1d70a9;"/>
    <path clip-path="url(#p9b1b2826a3)" d="M 202.579438 246.040382 
L 210.34055 243.19328 
L 214.874804 228.230174 
L 207.100124 231.627098 
L 202.579438 246.040382 
z
" style="fill:#1e74af;"/>
    <path clip-path="url(#p9b1b2826a3)" d="M 239.603398 223.669292 
L 247.521373 219.939738 
L 252.06363 204.216467 
L 244.123121 208.477799 
L 239.603398 223.669292 
z
" style="fill:#1e74b0;"/>
    <path clip-path="url(#p9b1b2826a3)" d="M 214.874804 228.230174 
L 222.712179 224.560434 
L 227.254498 229.587297 
L 219.449851 232.836944 
L 214.874804 228.230174 
z
" style="fill:#144d74;"/>
    <path clip-path="url(#p9b1b2826a3)" d="M 252.06363 204.216467 
L 260.075309 199.67036 
L 264.314114 209.784355 
L 256.355293 213.729792 
L 252.06363 204.216467 
z
" style="fill:#13486d;"/>
    <path clip-path="url(#p9b1b2826a3)" d="M 281.572996 166.692237 
L 289.76186 160.841056 
L 293.247524 195.049421 
L 285.197369 199.343337 
L 281.572996 166.692237 
z
" style="fill:#114060;"/>
    <path clip-path="url(#p9b1b2826a3)" d="M 235.122224 226.067084 
L 243.055713 222.272131 
L 247.521373 219.939738 
L 239.603398 223.669292 
L 235.122224 226.067084 
z
" style="fill:#1a669a;"/>
    <path clip-path="url(#p9b1b2826a3)" d="M 210.34055 243.19328 
L 218.161336 240.080281 
L 222.712179 224.560434 
L 214.874804 228.230174 
L 210.34055 243.19328 
z
" style="fill:#1e74af;"/>
    <path clip-path="url(#p9b1b2826a3)" d="M 272.343515 205.559192 
L 280.446358 201.049669 
L 284.742034 199.472743 
L 276.658012 203.892559 
L 272.343515 205.559192 
z
" style="fill:#1a6396;"/>
    <path clip-path="url(#p9b1b2826a3)" d="M 276.658012 203.892559 
L 284.742034 199.472743 
L 289.76186 160.841056 
L 281.572996 166.692237 
L 276.658012 203.892559 
z
" style="fill:#1d70a9;"/>
    <path clip-path="url(#p9b1b2826a3)" d="M 222.712179 224.560434 
L 230.614933 220.61359 
L 235.122224 226.067084 
L 227.254498 229.587297 
L 222.712179 224.560434 
z
" style="fill:#144d74;"/>
    <path clip-path="url(#p9b1b2826a3)" d="M 247.521373 219.939738 
L 255.507496 215.932674 
L 260.075309 199.67036 
L 252.06363 204.216467 
L 247.521373 219.939738 
z
" style="fill:#1e74b0;"/>
    <path clip-path="url(#p9b1b2826a3)" d="M 260.075309 199.67036 
L 268.161056 194.834603 
L 272.343515 205.559192 
L 264.314114 209.784355 
L 260.075309 199.67036 
z
" style="fill:#13486d;"/>
    <path clip-path="url(#p9b1b2826a3)" d="M 243.055713 222.272131 
L 251.057723 218.198058 
L 255.507496 215.932674 
L 247.521373 219.939738 
L 243.055713 222.272131 
z
" style="fill:#1a669a;"/>
    <path clip-path="url(#p9b1b2826a3)" d="M 218.161336 240.080281 
L 226.044408 236.697452 
L 230.614933 220.61359 
L 222.712179 224.560434 
L 218.161336 240.080281 
z
" style="fill:#1e74af;"/>
    <path clip-path="url(#p9b1b2826a3)" d="M 230.614933 220.61359 
L 238.58583 216.38515 
L 243.055713 222.272131 
L 235.122224 226.067084 
L 230.614933 220.61359 
z
" style="fill:#144d74;"/>
    <path clip-path="url(#p9b1b2826a3)" d="M 255.507496 215.932674 
L 263.564583 211.643581 
L 268.161056 194.834603 
L 260.075309 199.67036 
L 255.507496 215.932674 
z
" style="fill:#1e74b0;"/>
    <path clip-path="url(#p9b1b2826a3)" d="M 268.161056 194.834603 
L 276.323854 189.704092 
L 280.446358 201.049669 
L 272.343515 205.559192 
L 268.161056 194.834603 
z
" style="fill:#13486d;"/>
    <path clip-path="url(#p9b1b2826a3)" d="M 226.044408 236.697452 
L 233.992451 233.040665 
L 238.58583 216.38515 
L 230.614933 220.61359 
L 226.044408 236.697452 
z
" style="fill:#1e74af;"/>
    <path clip-path="url(#p9b1b2826a3)" d="M 251.057723 218.198058 
L 259.131094 213.840277 
L 263.564583 211.643581 
L 255.507496 215.932674 
L 251.057723 218.198058 
z
" style="fill:#1a659a;"/>
    <path clip-path="url(#p9b1b2826a3)" d="M 238.58583 216.38515 
L 246.627713 211.870404 
L 251.057723 218.198058 
L 243.055713 222.272131 
L 238.58583 216.38515 
z
" style="fill:#144d74;"/>
    <path clip-path="url(#p9b1b2826a3)" d="M 263.564583 211.643581 
L 271.695533 207.067729 
L 276.323854 189.704092 
L 268.161056 194.834603 
L 263.564583 211.643581 
z
" style="fill:#1e74b0;"/>
    <path clip-path="url(#p9b1b2826a3)" d="M 233.992451 233.040665 
L 242.008224 229.105592 
L 246.627713 211.870404 
L 238.58583 216.38515 
L 233.992451 233.040665 
z
" style="fill:#1e74af;"/>
    <path clip-path="url(#p9b1b2826a3)" d="M 259.131094 213.840277 
L 267.278751 209.19398 
L 271.695533 207.067729 
L 263.564583 211.643581 
L 259.131094 213.840277 
z
" style="fill:#1a6599;"/>
    <path clip-path="url(#p9b1b2826a3)" d="M 246.627713 211.870404 
L 254.743512 207.064417 
L 259.131094 213.840277 
L 251.057723 218.198058 
L 246.627713 211.870404 
z
" style="fill:#144d74;"/>
    <path clip-path="url(#p9b1b2826a3)" d="M 242.008224 229.105592 
L 250.09457 224.887691 
L 254.743512 207.064417 
L 246.627713 211.870404 
L 242.008224 229.105592 
z
" style="fill:#1e74af;"/>
    <path clip-path="url(#p9b1b2826a3)" d="M 254.743512 207.064417 
L 262.936244 201.962023 
L 267.278751 209.19398 
L 259.131094 213.840277 
L 254.743512 207.064417 
z
" style="fill:#144d74;"/>
    <path clip-path="url(#p9b1b2826a3)" d="M 250.09457 224.887691 
L 258.254413 220.382205 
L 262.936244 201.962023 
L 254.743512 207.064417 
L 250.09457 224.887691 
z
" style="fill:#1e74af;"/>
   </g>
  </g>
 </g>
 <defs>
  <clipPath id="p9b1b2826a3">
   <rect height="326.16" width="334.8" x="54" y="51.84"/>
  </clipPath>
 </defs>
</svg>
